<?xml version="1.0" encoding="UTF-8"?>
<svg id="Layer_1" data-name="Layer 1" xmlns="http://www.w3.org/2000/svg" xmlns:xlink="http://www.w3.org/1999/xlink" viewBox="0 0 424.16 333.19">
  <defs>
    <style>
      .cls-1 {
        fill: #f47d5e;
      }

      .cls-2 {
        fill: #7bb65c;
      }

      .cls-3 {
        fill: #fff;
      }

      .cls-4 {
        fill: #886b4d;
      }

      .cls-5 {
        fill: #be7346;
      }

      .cls-6 {
        fill: none;
      }

      .cls-7 {
        clip-path: url(#clippath-1);
      }

      .cls-8 {
        fill: #876c66;
      }

      .cls-9 {
        fill: #6bbbcc;
      }

      .cls-10 {
        fill: #c2ca53;
      }

      .cls-11 {
        clip-path: url(#clippath);
      }
    </style>
    <clipPath id="clippath">
      <rect class="cls-6" x="48.08" y=".65" width="315.01" height="195.88"/>
    </clipPath>
    <clipPath id="clippath-1">
      <rect class="cls-6" x="48.08" y=".65" width="315.01" height="195.88"/>
    </clipPath>
  </defs>
  <g id="Tagline_Pure" data-name="Tagline + Pure">
    <path class="cls-3" d="M422.67,272.28c0-6.11-1.51-10.87-4.53-14.31-3.02-3.43-7.24-5.15-12.64-5.15-3.45,0-6.44.74-8.98,2.21-2.54,1.48-4.54,3.64-6,6.51-1.34-2.8-3.28-4.96-5.81-6.46-2.53-1.5-5.53-2.26-9-2.26s-6.27.71-8.74,2.13c-2.47,1.42-4.45,3.48-5.94,6.2l-.39-7.45h-8.63v43.82h10.78v-22.48c0-3.94.85-7.03,2.56-9.25,1.71-2.22,4.1-3.33,7.16-3.33s5.3,1.1,6.97,3.31c1.66,2.21,2.5,5.29,2.5,9.27v22.48h10.78v-22.48c0-3.94.85-7.03,2.56-9.25,1.71-2.22,4.08-3.33,7.12-3.33s5.34,1.1,6.99,3.31c1.65,2.21,2.48,5.29,2.48,9.27v22.48h10.78v-25.24ZM326.18,276.62c0-2.8.54-5.27,1.62-7.38,1.08-2.12,2.59-3.78,4.53-4.97,1.94-1.2,4.2-1.8,6.77-1.8,1.69,0,3.45.26,5.26.79l1.31-9.73c-.91-.23-1.82-.41-2.74-.53-.92-.12-1.82-.18-2.69-.18-3.36,0-6.33.77-8.92,2.32-2.59,1.55-4.64,3.72-6.16,6.53l-.39-7.97h-9.38v43.82h10.78v-20.9ZM274.57,267.31c1.08-1.65,2.48-2.94,4.21-3.88,1.72-.93,3.68-1.4,5.87-1.4s4.11.46,5.85,1.38c1.74.92,3.15,2.2,4.25,3.83,1.1,1.64,1.76,3.55,1.99,5.74h-24.19c.26-2.13.93-4.02,2.02-5.67ZM300.42,284.82c-3.97,3.04-8.3,4.56-12.97,4.56-2.48,0-4.72-.42-6.7-1.27-1.99-.85-3.64-2.03-4.97-3.55-1.33-1.52-2.26-3.27-2.78-5.26h33.74v-1.4c0-4.96-.95-9.33-2.85-13.08-1.9-3.75-4.55-6.69-7.95-8.81-3.4-2.12-7.36-3.18-11.85-3.18s-8.2.96-11.63,2.89c-3.43,1.93-6.13,4.56-8.11,7.89-1.97,3.33-2.96,7.11-2.96,11.35s1.09,8.43,3.26,11.98c2.18,3.55,5.13,6.35,8.87,8.39,3.74,2.05,7.96,3.07,12.66,3.07,6.49,0,12.46-1.99,17.92-5.96l-3.68-7.62ZM222.64,287.01c-1.93-1.14-3.45-2.7-4.56-4.69-1.11-1.99-1.66-4.24-1.66-6.75s.55-4.71,1.66-6.68c1.11-1.97,2.63-3.53,4.56-4.69,1.93-1.15,4.12-1.73,6.57-1.73s4.47.53,6.4,1.6c1.93,1.07,3.46,2.53,4.6,4.38,1.14,1.86,1.71,3.97,1.71,6.33v1.53c0,2.4-.57,4.53-1.71,6.4-1.14,1.87-2.67,3.34-4.6,4.4-1.93,1.07-4.06,1.6-6.4,1.6-2.45,0-4.64-.57-6.57-1.71ZM252.7,231.8h-10.78v27.21c-1.9-1.96-4.13-3.48-6.7-4.56-2.57-1.08-5.36-1.62-8.37-1.62-4.12,0-7.8.99-11.04,2.98-3.24,1.99-5.79,4.7-7.65,8.13-1.86,3.43-2.78,7.33-2.78,11.68s.93,8.25,2.78,11.68c1.85,3.43,4.4,6.14,7.65,8.13,3.24,1.99,6.92,2.98,11.04,2.98,3.18,0,6.13-.62,8.85-1.86,2.72-1.24,5.02-2.96,6.92-5.15l.57,6.13h9.51v-65.73ZM170.3,293.71c-1.91-.93-3.43-2.21-4.53-3.81-1.11-1.61-1.66-3.42-1.66-5.43,0-3.15,1.34-5.74,4.03-7.76,2.69-2.02,6.13-3.02,10.34-3.02,2.45,0,4.8.38,7.03,1.14,2.23.76,4.34,1.88,6.33,3.37v2.19c-.03,2.83-.72,5.36-2.06,7.58-1.34,2.22-3.15,3.97-5.41,5.24-2.26,1.27-4.78,1.91-7.56,1.91-2.42,0-4.59-.47-6.51-1.4ZM195.43,270.58c0-3.62-.69-6.76-2.08-9.42-1.39-2.66-3.35-4.71-5.89-6.16s-5.55-2.17-9.03-2.17c-2.69,0-5.36.45-8.02,1.34-2.66.89-5.11,2.18-7.36,3.88l1.53,3.15c1.9-1.66,3.99-2.93,6.29-3.79,2.29-.86,4.64-1.29,7.03-1.29,2.8,0,5.25.58,7.34,1.73,2.09,1.15,3.71,2.79,4.86,4.91,1.15,2.12,1.73,4.67,1.73,7.65v4.12c-1.9-1.29-4.04-2.26-6.42-2.94-2.38-.67-4.83-1.01-7.34-1.01-3.45,0-6.5.61-9.16,1.82-2.66,1.21-4.75,2.88-6.27,5-1.52,2.12-2.28,4.56-2.28,7.34,0,2.6.69,4.93,2.06,6.99,1.37,2.06,3.26,3.69,5.67,4.89,2.41,1.2,5.12,1.8,8.13,1.8,3.65,0,6.86-.88,9.64-2.63,2.77-1.75,4.83-4.1,6.18-7.05l.39,8.81h2.98v-26.95ZM151.17,293.49c-2.01,1.11-3.97,1.66-5.87,1.66-2.48,0-4.48-.87-5.98-2.61-1.51-1.74-2.26-4.04-2.26-6.9v-28.7h13.71v-3.24h-13.71v-10.95h-3.46v10.95h-7.8v3.24h7.67v29.36c0,2.42.47,4.55,1.4,6.38.93,1.83,2.24,3.24,3.92,4.23,1.68.99,3.63,1.49,5.85,1.49,2.45,0,4.92-.61,7.4-1.84l-.88-3.07ZM87.59,292.55c-2.86-1.71-5.12-4.03-6.77-6.97-1.65-2.94-2.48-6.26-2.48-9.97s.82-7.03,2.48-9.97c1.65-2.94,3.91-5.26,6.77-6.97,2.86-1.71,6.08-2.56,9.64-2.56s6.76.85,9.6,2.56c2.83,1.71,5.08,4.03,6.73,6.97,1.65,2.94,2.48,6.26,2.48,9.97s-.83,7.03-2.48,9.97c-1.65,2.94-3.89,5.26-6.73,6.97-2.83,1.71-6.03,2.56-9.6,2.56s-6.78-.85-9.64-2.56ZM108.76,295.4c3.39-2,6.06-4.72,8.02-8.15,1.96-3.43,2.94-7.31,2.94-11.63s-.98-8.2-2.94-11.63c-1.96-3.43-4.63-6.15-8.02-8.15-3.39-2-7.23-3-11.52-3s-8.1,1-11.5,3c-3.4,2-6.1,4.72-8.08,8.15-1.99,3.43-2.98,7.31-2.98,11.63s.99,8.2,2.98,11.63c1.99,3.43,4.68,6.15,8.08,8.15,3.4,2,7.24,3,11.5,3s8.14-1,11.52-3ZM62.18,253.71h-3.59v43.82h3.59v-43.82ZM62.46,235.98c.57-.57.85-1.26.85-2.08s-.28-1.51-.85-2.08c-.57-.57-1.26-.85-2.08-.85s-1.51.28-2.06.85c-.56.57-.83,1.25-.83,2.04s.28,1.52.83,2.1c.55.59,1.24.88,2.06.88s1.51-.28,2.08-.85ZM4.6,265.01h19.28c3.45,0,6.47.58,9.07,1.73,2.6,1.15,4.62,2.79,6.05,4.91,1.43,2.12,2.15,4.59,2.15,7.43s-.75,5.51-2.24,7.76c-1.49,2.25-3.56,4.01-6.22,5.28-2.66,1.27-5.71,1.91-9.16,1.91H4.6v-29.01ZM4.6,235.3h18.32c4.73,0,8.49,1.17,11.26,3.51,2.78,2.34,4.16,5.52,4.16,9.55s-1.35,7.25-4.05,9.73c-2.7,2.48-6.27,3.72-10.71,3.72H4.6v-26.51ZM24.1,297.52c4.15,0,7.8-.75,10.95-2.26,3.16-1.5,5.62-3.59,7.38-6.27,1.77-2.67,2.65-5.78,2.65-9.31,0-4.32-1.26-7.95-3.77-10.89-2.51-2.94-5.89-4.81-10.12-5.63,3.3-.96,5.96-2.83,7.97-5.61,2.01-2.78,3.02-6.05,3.02-9.82,0-4.91-1.69-8.79-5.08-11.66-3.39-2.86-7.97-4.29-13.76-4.29H.75v65.73h23.35Z"/>
    <g class="cls-11">
      <g class="cls-7">
        <path class="cls-1" d="M180.64,52.48c-.29.07-.58.14-.88.22.3-.08.59-.15.88-.22"/>
        <path class="cls-1" d="M183.95,51.97c-.32.02-.64.03-.98.07.33-.04.66-.06.98-.07"/>
        <path class="cls-1" d="M182.3,52.15c-.3.05-.6.1-.91.16.31-.06.61-.11.91-.16"/>
        <path class="cls-1" d="M175.81,62.62c.07-.04.15-.07.21-.11-.07.04-.14.07-.21.11"/>
        <path class="cls-1" d="M174.95,63.06c.07-.04.15-.07.22-.1-.07.04-.14.07-.22.1"/>
        <path class="cls-1" d="M174,63.5s.1-.04.14-.06c-.05.02-.1.04-.14.06"/>
        <path class="cls-1" d="M184.48,51.94c.49,0,.97.01,1.43.07-.46-.06-.94-.08-1.43-.07"/>
        <path class="cls-1" d="M171.36,73.72c.88-3.25,1.34-6.51,1.61-9.76-1.16.5-2.43,1.01-3.69,1.51-2.07.83-4.03,1.61-5.02,2.15-2.2,1.2-4.83,1.19-7.36,1.19-1.88,0-3.69,0-5.2.47-.08,2.92.8,10.67,1.28,13.96,1.84.34,3.75-.24,5.75-.86,1.5-.46,3.04-.94,4.67-1.06.38-.18.96-.43,1.9-.83,1.59-1.01,3.18-1.86,4.76-2.57.46-1.36.89-2.75,1.28-4.19"/>
        <path class="cls-1" d="M154.75,44.39l-.45.13c-.07.02-.15.04-.23.05-1.72.23-2.83-.13-3.62-.49-.71,3.23.17,6.93.84,9.73.18.76.35,1.46.47,2.08,4.26,5.81,12.44,2.61,20.37-.49.41-.16.82-.32,1.23-.48,0,0,0,0,0,0,.07-3.47.14-6.94.43-10.38-5.41-1.37-10.96-2.58-16.58-3.61l-.22,1.32c-.27,1.59-1.4,1.91-2.23,2.14"/>
        <path class="cls-1" d="M178.93,52.95c-.28.09-.57.17-.86.27.29-.09.57-.18.86-.27"/>
        <path class="cls-1" d="M172.92,76.77c-.06.02-.11.04-.17.06.06-.02.11-.04.17-.06"/>
        <path class="cls-1" d="M175.34,54.17c-.23.09-.47.18-.7.27.24-.09.47-.18.7-.27"/>
        <path class="cls-1" d="M177.17,53.52c-.27.09-.54.19-.81.28.27-.1.54-.19.81-.28"/>
        <path class="cls-1" d="M155.76,138.86c-.07-.26-.14-.52-.21-.78.07.26.14.52.21.78"/>
        <path class="cls-1" d="M199.82,59.61c-.15.94-.26,1.92-.34,2.92.08-1,.19-1.98.34-2.92"/>
        <path class="cls-1" d="M199.42,63.27c-.07,1.06-.11,2.13-.1,3.26,0-1.13.03-2.21.1-3.26"/>
        <path class="cls-1" d="M156.07,140c-.06-.21-.12-.42-.17-.63.06.21.12.42.17.63"/>
        <path class="cls-1" d="M201.45,53.49h0c-.34.91-.64,1.84-.9,2.79.26-.96.56-1.89.9-2.79"/>
        <path class="cls-1" d="M200.48,56.52c-.26.97-.48,1.98-.65,3.02.17-1.04.39-2.04.65-3.02"/>
        <path class="cls-1" d="M155.46,137.72c-.09-.36-.18-.72-.26-1.06.08.34.17.69.26,1.06"/>
        <path class="cls-1" d="M178.14,75.37s-.07.01-.1.02c.03,0,.07-.01.1-.02"/>
        <path class="cls-1" d="M180.7,75.03c-.08,0-.16.01-.24.02.08,0,.16-.01.24-.02"/>
        <path class="cls-1" d="M185.08,75.04c-.09,0-.18-.01-.28-.02.09,0,.19.01.28.02"/>
        <path class="cls-1" d="M189.76,137.73s.02,0,.03,0c.84-.86,1.72-1.71,2.71-2.57-.99.86-1.9,1.71-2.74,2.57"/>
        <path class="cls-1" d="M187.03,75.36c-.1-.02-.19-.04-.29-.07.1.02.19.04.29.07"/>
        <path class="cls-1" d="M154.91,135.36c-.06-.3-.11-.59-.15-.83.04.25.09.53.15.83"/>
        <path class="cls-1" d="M155.13,136.38c-.06-.26-.11-.51-.16-.74.05.24.1.48.16.74"/>
        <path class="cls-1" d="M142.22,138.55c.04.67.1,1.32.18,1.92-.08-.6-.13-1.25-.18-1.92"/>
        <path class="cls-1" d="M142.43,140.68c.09.67.19,1.3.31,1.88-.12-.58-.22-1.21-.31-1.88"/>
        <path class="cls-1" d="M117.89,131.92c.15,0,.32-.01.47-.02-.15,0-.31.01-.47.02"/>
        <path class="cls-1" d="M116.12,131.98c.19,0,.38,0,.56,0-.18,0-.37,0-.56,0"/>
        <path class="cls-1" d="M114.78,131.99c-.18,0-.37,0-.56,0,.19,0,.37,0,.56,0"/>
        <path class="cls-1" d="M112.2,131.9c.16,0,.32.01.49.02-.16,0-.32-.01-.49-.02"/>
        <path class="cls-1" d="M103.07,130.73c-4.7-1-9.18-2.67-12.01-5.25-2.46-2.25-4.4-4.02-4.29-6.31.07-1.65,1.16-3.16,3.63-5.05,2.59-1.98,5.49.36,8.04,2.43,1.43,1.16,3.21,2.57,4.16,2.49,2.15-.23,4.4.03,6.64.41,6.66-8.83,16.75-16.2,27.55-22.09-3.96-2.04-8.19-2.6-12.55-3.17-1.66-.22-3.38-.44-5.06-.75-2.72-.51-4.95-.83-7.66-.85-.88-.04-1.58.43-2.35.94-1.2.79-2.84,1.86-5.18.46-.92-.55-1.2-1.15-1.45-1.68-.15-.33-.31-.67-.72-1.18-.35-.43-1.29-.2-2.68.2-2.05.59-5.47,1.58-6.96-2.41-.15-.41-.1-.86.14-1.22,5.31-7.95,11.92-6.57,17.76-5.34,2.27.48,4.61.96,6.84.93,2.26-.04,4.61-.65,6.89-1.25,5.51-1.44,11.7-3.05,16.68,4.07.12-.21.23-.4.34-.6,1.21-2.12,1.94-3.4,1.27-6.26-.05-.24-.04-.48.03-.71-.08-1.09-1.03-5.16-1.36-6.54-.1-.44-.19-.83-.25-1.18-1.72-3.24-4.82-3.2-8.43-3.16-1.69.02-3.45.04-5.02-.35-1.27-.32-2.41-.29-3.63-.25-1.92.05-4.09.11-6.57-1.41-5.56-3.43-6.45-3.21-12.25-1.83l-.55.13c-.47.11-.97-.04-1.3-.39-.88-.93-2.04-1.7-3.17-2.44-2.52-1.66-5.96-3.92-3.48-8.16,2.38-4.07,6.82-2.01,10.06-.5,1.46.67,2.97,1.37,3.88,1.37h0c1.09,0,2.56-.63,3.99-1.24,1.8-.77,3.5-1.49,5.02-1.27,2.96.45,5.17,2.53,7.31,4.53,1.91,1.8,3.71,3.49,5.85,3.86,3.99.69,6.63.36,7.65-.97,2.02-2.64-1.33-9.85-3.78-15.12-.47-1.02-.93-2-1.35-2.94-.43-.47-.4-.96-.39-1.4l.06-1.35v-.15c-24.54-2.53-46.22-1.25-64.81,4.68l-.21.06c-37.38,7.47-16.66,66.05-4.79,81.96,7.45,9.98,20.77,15.06,36.61,17.27,0-3.85.63-7.54,1.85-11.04"/>
        <path class="cls-1" d="M142.13,135.37c.01-.95.06-1.96.14-3.05-.08,1.08-.13,2.09-.14,3.05"/>
        <path class="cls-1" d="M142.14,136.02c0,.71,0,1.41.04,2.06-.04-.64-.04-1.35-.04-2.06"/>
        <path class="cls-1" d="M138.07,98.09c.3.19.61.39.91.59-.3-.21-.6-.41-.91-.59"/>
        <path class="cls-1" d="M139.34,98.94c.27.19.54.4.8.61-.27-.21-.53-.42-.8-.61"/>
        <path class="cls-1" d="M136.78,97.37c.35.18.7.38,1.04.58-.35-.2-.69-.4-1.04-.58"/>
        <path class="cls-1" d="M140.61,99.93c.24.2.48.41.72.63-.24-.22-.48-.43-.72-.63"/>
        <path class="cls-1" d="M110.07,131.76c.1,0,.19.01.28.02-.1,0-.19-.01-.28-.02"/>
        <path class="cls-1" d="M141.87,101.08c.21.21.43.42.64.65-.21-.23-.43-.44-.64-.65"/>
        <path class="cls-1" d="M144.39,104c.14.19.28.37.42.56-.14-.2-.28-.37-.42-.56"/>
        <path class="cls-1" d="M143.11,102.41c.19.21.37.42.55.64-.18-.22-.37-.43-.55-.64"/>
        <path class="cls-1" d="M171.34,80.34c.78-.35,1.56-.66,2.33-.93-.77.28-1.54.59-2.33.93"/>
        <path class="cls-1" d="M176.57,78.51c.65-.17,1.29-.31,1.91-.43-.63.12-1.26.26-1.91.43"/>
        <path class="cls-1" d="M173.96,79.3c.73-.25,1.44-.47,2.15-.67-.71.19-1.42.42-2.15.67"/>
        <path class="cls-1" d="M182.96,54.78c.15-.02.3-.05.44-.07-.14.01-.29.05-.44.07"/>
        <path class="cls-1" d="M180.03,55.44c.25-.07.5-.15.74-.22-.24.07-.49.14-.74.22"/>
        <path class="cls-1" d="M179.14,77.98c.55-.09,1.1-.17,1.62-.22-.53.05-1.07.13-1.62.22"/>
        <path class="cls-1" d="M175.22,59.84c-.21.14-.49.29-.79.45.3-.16.58-.31.79-.45"/>
        <path class="cls-1" d="M181.51,55.06c.2-.05.41-.1.61-.14-.2.04-.41.1-.61.14"/>
        <path class="cls-1" d="M152.46,136.82c.21.95.48,2.02.81,3.21-.33-1.19-.6-2.26-.81-3.21"/>
        <path class="cls-1" d="M181.64,77.69c.43-.03.87-.06,1.28-.06-.41,0-.85.03-1.28.06"/>
        <path class="cls-1" d="M167.64,84.4c.36-.91.73-1.8,1.09-2.77.82-.45,1.64-.85,2.46-1.22-1.51.68-3.02,1.46-4.51,2.41-.06.04-.13.07-.2.1,0,0-1.83.78-2.13.93-.17.09-.35.14-.55.15-1.39.08-2.78.51-4.27.96-2.59.8-5.27,1.62-8.18.64-.47-.16-.82-.57-.9-1.06-.35-2.06-1.82-13.62-1.36-16.45.07-.45.36-.83.78-1.01,2.17-.98,4.64-.99,7.03-.98,2.31.01,4.47,0,6.06-.86,1.13-.62,3.16-1.43,5.31-2.29,2.11-.85,4.43-1.78,5.93-2.54-.32.16-.66.33-1.04.5.05-1.02.09-2.04.12-3.05.51-.2,1.02-.4,1.53-.59-.56.22-1.12.43-1.69.66-8.59,3.35-18.31,7.16-23.74-.73-.11-.16-.18-.34-.22-.53-.11-.64-.29-1.4-.49-2.23-.85-3.54-2.01-8.4-.32-12.69.23-.59.84-.94,1.46-.85.54.08.98.31,1.37.51.62.32,1.22.63,2.45.49l.4-.11c.1-.03.21-.06.3-.09l.2-1.17v-.07c-6.46-1.17-10.86-1.72-17.4-2.4l-.05,1.23c.05.08.1.18.15.3.41.93.87,1.9,1.33,2.91,3.04,6.54,6.49,13.96,3.47,17.91-1.71,2.24-5.07,2.89-10.26,1.99-2.94-.51-5.13-2.56-7.24-4.55-1.92-1.8-3.73-3.5-5.86-3.83-.75-.11-2.23.52-3.54,1.08-1.67.72-3.4,1.46-5.05,1.46-1.53.03-3.22-.79-5.02-1.63-3.84-1.78-5.6-2.26-6.59-.58-1.07,1.82-.41,2.52,2.63,4.53,1,.66,2.11,1.39,3.08,2.28,6.16-1.47,7.91-1.64,14.12,2.2,1.78,1.1,3.24,1.06,5.07,1.01,1.28-.04,2.73-.07,4.36.34,1.23.31,2.73.29,4.33.27,3.77-.06,8.47-.11,10.93,4.75.03.06.06.12.08.19.04.12.07.24.07.36.05.22.14.62.26,1.12,1.21,5.16,1.51,6.85,1.42,7.64.75,3.65-.36,5.59-1.64,7.83-.45.78-.91,1.59-1.35,2.56-.21.47-.67.77-1.18.79-.54,0-.99-.25-1.24-.7-4.17-7.65-8.91-6.41-14.92-4.85-2.43.64-4.94,1.29-7.52,1.33-2.52.05-5.03-.48-7.44-.99-5.53-1.16-10.33-2.17-14.53,3.58.49.8,1.24.77,3.39.15,1.7-.49,4.03-1.17,5.54.7.62.77.89,1.35,1.07,1.73q.18.38.39.51c.84.51,1.17.34,2.3-.4.95-.62,2.11-1.42,3.86-1.39,2.9.02,5.35.37,8.14.89,1.61.3,3.21.51,4.91.73,4.84.63,10.07,1.33,14.99,4.37,9.61-4.98,19.59-8.81,28.06-11.48"/>
        <path class="cls-1" d="M153.75,141.72c-.15-.51-.28-.99-.42-1.46.13.47.27.96.42,1.46"/>
        <path class="cls-1" d="M143.55,98.98c.24.23.48.46.72.7-.24-.25-.48-.47-.72-.7"/>
        <path class="cls-1" d="M152.02,133.99c0-.1-.01-.21-.01-.3,0,.09,0,.2.01.3"/>
        <path class="cls-1" d="M152.07,134.57c.01.14.03.28.05.43-.02-.15-.04-.3-.05-.43"/>
        <path class="cls-1" d="M176.98,56.45c.3-.11.61-.22.9-.32-.3.1-.6.21-.9.32"/>
        <path class="cls-1" d="M184.05,77.68c.29.02.59.02.86.05-.27-.03-.58-.03-.86-.05"/>
        <path class="cls-1" d="M152.22,135.63c.03.18.06.36.1.55-.04-.19-.07-.37-.1-.55"/>
        <path class="cls-1" d="M178.54,55.91c.27-.09.55-.19.82-.27-.27.08-.54.18-.82.27"/>
        <path class="cls-1" d="M175.27,57.09c.37-.14.73-.28,1.09-.41-.36.13-.73.27-1.09.41"/>
        <path class="cls-1" d="M144.92,133.22c.01-.17.02-.34.03-.52-.01.18-.02.35-.03.52"/>
        <path class="cls-1" d="M117.62,129.22c-.35.02-.7.04-1.07.04.37,0,.73-.03,1.07-.04"/>
        <path class="cls-1" d="M144.83,136.37c0-.16,0-.32,0-.49,0,.16,0,.33,0,.49"/>
        <path class="cls-1" d="M119.47,129.07c-.42.05-.88.09-1.37.13.49-.03.95-.07,1.37-.13"/>
        <path class="cls-1" d="M107.49,121.91c1.45.2,2.95.5,4.49.82-3.25-.66-6.32-1.29-9.1-1-2.06.2-4.04-1.38-6.14-3.08-1.78-1.44-3.79-3.07-4.7-2.38-1.67,1.28-2.54,2.29-2.57,3.01-.05,1.03,1.63,2.56,3.41,4.19,2.85,2.61,8.03,4.2,13.26,5.05-.69-.11-1.38-.23-2.06-.37.94-2.15,2.08-4.23,3.41-6.24"/>
        <path class="cls-1" d="M144.95,138.98s0-.07,0-.1c0,.03,0,.07,0,.1"/>
        <path class="cls-1" d="M144.86,137.73c0-.12,0-.25-.01-.37,0,.13,0,.25.01.37"/>
        <path class="cls-1" d="M144.84,134.89c0-.18,0-.36.02-.55,0,.19-.01.37-.02.55"/>
        <path class="cls-1" d="M145.59,101.16c-.25-.3-.5-.58-.75-.86.25.28.5.56.75.86"/>
        <path class="cls-1" d="M146.92,102.89c-.27-.38-.55-.74-.82-1.09.28.35.55.71.82,1.09"/>
        <path class="cls-1" d="M142.23,97.8c-.13-.1-.25-.21-.38-.31.13.1.25.21.38.31"/>
        <path class="cls-1" d="M115.91,129.28c-.36,0-.72,0-1.09,0,.37,0,.73,0,1.09,0"/>
        <path class="cls-1" d="M140.91,96.78c-.1-.07-.2-.14-.3-.21.1.07.2.14.3.21"/>
        <path class="cls-1" d="M114.12,129.26c-.38,0-.77-.02-1.17-.04.4.02.78.03,1.17.04"/>
        <path class="cls-1" d="M112.23,129.18c-.42-.02-.84-.05-1.26-.09.43.03.85.06,1.26.09"/>
        <path class="cls-1" d="M110.25,129.04c-.45-.04-.91-.09-1.37-.14.46.05.92.1,1.37.14"/>
        <path class="cls-1" d="M148.55,105.33c-.4-.66-.8-1.27-1.21-1.86.41.59.81,1.21,1.21,1.86"/>
        <path class="cls-1" d="M108.21,128.82c-.51-.06-1.03-.14-1.54-.22.51.08,1.03.15,1.54.22"/>
        <path class="cls-1" d="M234.59,129.81c-.55.72-.97,1.41-1.27,2.06.3-.65.73-1.34,1.27-2.06"/>
        <path class="cls-1" d="M243.03,100.12c-.06-.18-.13-.37-.19-.55,0,.02.01.04.02.06.05.16.11.33.17.49"/>
        <path class="cls-1" d="M235.49,128.7c-.3.34-.57.68-.82,1.01.25-.33.52-.67.82-1.01"/>
        <path class="cls-1" d="M238.3,126.14c-.62.41-1.19.87-1.7,1.38.51-.51,1.09-.97,1.7-1.38"/>
        <path class="cls-1" d="M244.39,103.53c-.12-.27-.25-.54-.37-.82.03.08.06.16.1.24.08.19.18.38.27.57"/>
        <path class="cls-1" d="M202.12,63.51c.01-.22.03-.44.05-.67-.02.22-.04.44-.05.67"/>
        <path class="cls-1" d="M240.31,125.03c-.5.23-.97.49-1.42.77.46-.27.92-.54,1.42-.77"/>
        <polyline class="cls-1" points="194.25 137.22 194.25 137.22 194.27 137.21 194.25 137.22"/>
        <path class="cls-1" d="M203.11,57.27s.01-.04.02-.06c0,.02-.01.04-.02.06"/>
        <path class="cls-1" d="M202.48,60.22s.01-.08.02-.13c0,.04,0,.08-.02.13"/>
        <path class="cls-10" d="M173.67,79.41c.1-.04.19-.07.29-.1-.1.03-.19.07-.29.1"/>
        <path class="cls-10" d="M171.2,80.41s.1-.05.15-.07c-.05.02-.1.05-.15.07"/>
        <path class="cls-10" d="M182.92,77.63c.39,0,.76.03,1.13.05-.37-.02-.73-.05-1.13-.05"/>
        <path class="cls-10" d="M176.11,78.64c.15-.04.31-.08.46-.12-.15.04-.31.08-.46.12"/>
        <path class="cls-10" d="M180.77,77.75c.3-.03.58-.04.88-.06-.29.02-.58.03-.88.06"/>
        <path class="cls-10" d="M178.49,78.08c.22-.04.44-.07.66-.11-.22.04-.43.07-.66.11"/>
        <path class="cls-10" d="M184.91,77.73c.63.07,1.23.17,1.78.31-.54-.14-1.14-.24-1.78-.31"/>
        <path class="cls-5" d="M167.64,84.4c6.79-2.14,12.62-3.54,16.52-4.19.78-.13,1.58-.27,2.39-.42h0c.08-.54.13-1.12.14-1.74-.55-.14-1.14-.24-1.78-.31-.27-.03-.58-.03-.86-.05-.37-.02-.74-.05-1.13-.05-.41,0-.85.03-1.28.06-.29.02-.58.03-.88.06-.53.05-1.07.13-1.62.22-.22.04-.44.07-.66.11-.63.12-1.27.26-1.91.43-.15.04-.31.08-.46.12-.71.19-1.42.41-2.15.67-.1.03-.19.07-.29.1-.77.28-1.55.59-2.33.93-.05.02-.1.05-.15.07-.82.37-1.64.77-2.46,1.22-.37.96-.73,1.86-1.09,2.77"/>
        <path class="cls-10" d="M186.26,81.1c-.04.13-.08.25-.13.37.04-.12.09-.24.13-.37"/>
        <path class="cls-10" d="M185.78,82.27c-.05.1-.11.21-.17.31.06-.1.11-.2.17-.31"/>
        <path class="cls-10" d="M319.86,94.72c.45-.33.92-.65,1.39-.97-.48.31-.94.64-1.39.97"/>
        <path class="cls-10" d="M321.53,93.57c.98-.63,2-1.22,3.02-1.74-1.02.52-2.04,1.11-3.02,1.74"/>
        <path class="cls-10" d="M328.99,95.82c.7-.33,1.41-.65,2.09-1.01l-.6-1.21c-.8-1.6-.51-3-.18-3.91-1.18.21-2.54.65-3.95,1.27.21.34.42.67.62,1.02.73,1.25,1.4,2.53,2.02,3.83"/>
        <path class="cls-10" d="M324.8,91.69c.52-.26,1.03-.5,1.54-.72-.51.22-1.02.46-1.54.72"/>
        <path class="cls-10" d="M318.55,95.75c.41-.34.84-.68,1.29-1.01-.45.33-.88.67-1.29,1.01"/>
        <path class="cls-10" d="M316.17,98.05c.29-.34.6-.68.95-1.03-.35.34-.66.68-.95,1.03"/>
        <path class="cls-10" d="M314.74,100.36c.14-.37.28-.74.47-1.05-.19.31-.34.67-.47,1.05"/>
        <path class="cls-10" d="M315.21,99.31c.21-.33.47-.67.74-1.01-.28.34-.54.68-.74,1.01"/>
        <path class="cls-10" d="M317.15,97c.35-.34.73-.68,1.12-1.01-.39.34-.77.67-1.12,1.01"/>
        <path class="cls-10" d="M292.67,104.5c-.4.41-.84.79-1.32,1.12.48-.33.92-.7,1.32-1.12"/>
        <path class="cls-10" d="M301.69,94.74c.17.25.33.52.48.8-.14-.29-.3-.55-.48-.8"/>
        <path class="cls-10" d="M302.39,96.04c.12.29.22.59.32.9-.1-.31-.2-.61-.32-.9"/>
        <path class="cls-10" d="M303.3,99.72c.04.31.09.62.12.94-.03-.32-.08-.63-.12-.94"/>
        <path class="cls-10" d="M300.51,93.46c.35.25.65.57.93.91-.28-.35-.58-.66-.93-.91"/>
        <path class="cls-10" d="M292.84,104.32c.4-.44.77-.92,1.08-1.46-.3.54-.67,1.02-1.08,1.46"/>
        <path class="cls-10" d="M303.51,101.83c.01.16.02.33.03.49,0-.17-.02-.33-.03-.49"/>
        <path class="cls-10" d="M302.89,97.5c.09.34.16.7.23,1.06-.07-.36-.14-.72-.23-1.06"/>
        <path class="cls-10" d="M202.5,60.1c.16-.97.37-1.91.61-2.82-.24.91-.45,1.85-.61,2.82"/>
        <path class="cls-10" d="M240.43,69.19s0,.01,0,.02c0,0,0-.01,0-.02"/>
        <path class="cls-10" d="M203.12,57.22c.25-.91.53-1.8.85-2.67-.32.86-.61,1.75-.85,2.67"/>
        <path class="cls-10" d="M240.43,73.79c0,.07.02.13.03.2-.01-.07-.02-.13-.03-.2"/>
        <path class="cls-10" d="M242.84,99.58c-.29-.88-.56-1.77-.77-2.67.16.68.34,1.35.55,2.01.07.22.15.44.22.66"/>
        <path class="cls-10" d="M240.61,74.93c.03.15.06.3.08.45-.03-.15-.06-.3-.08-.45"/>
        <path class="cls-10" d="M245.56,106c.44.88.9,1.74,1.37,2.6-.47-.86-.93-1.73-1.37-2.6"/>
        <path class="cls-10" d="M230.74,10.17s.05.15.15.59c2.61,12-4.49,18.38-13.49,26.47-6.49,5.83-11.03,10.96-13.43,17.32,4.78,2.04,9.28,4.22,13.37,6.54,4.91,2.77,9.18,5.7,12.86,8.9,3.46-.71,6.96-1.38,10.49-1.98.24-.85.58-1.71,1.08-2.57,2.75-4.75,6.59-7.79,10.3-10.72,5.3-4.2,9.88-7.82,10.29-15.62.64-12.14-2.25-20.76-10.33-30.74-.49-.61-.78-1.26-.9-2.03l-.21-1.32c-7.78,1.2-14.62,2.41-20.46,3.45l.28,1.72Z"/>
        <path class="cls-10" d="M240.85,76.15c.08.39.17.79.25,1.18-.08-.39-.17-.78-.25-1.18"/>
        <path class="cls-10" d="M202.17,62.85c.07-.9.17-1.78.31-2.63-.14.85-.24,1.73-.31,2.63"/>
        <path class="cls-10" d="M245.39,105.67c-.35-.7-.68-1.42-1-2.14.15.34.29.67.45,1,.18.38.36.76.55,1.13"/>
        <path class="cls-10" d="M221.78,106.5c0,.24,0,.48-.02.72.01-.24.02-.48.02-.72"/>
        <path class="cls-10" d="M221.36,110.07c.16-.67.26-1.35.33-2.04-.07.69-.18,1.38-.33,2.04"/>
        <path class="cls-10" d="M243.92,102.48c.03.07.06.15.09.22-.33-.78-.64-1.57-.92-2.37.06.18.12.35.18.53.2.55.42,1.09.65,1.62"/>
        <path class="cls-10" d="M202.03,66.51c0-1.03.03-2.02.09-2.99-.06.97-.1,1.95-.09,2.99"/>
        <path class="cls-10" d="M242.86,99.63s-.01-.04-.02-.06c-.07-.22-.15-.44-.22-.66.07.24.16.48.24.71"/>
        <path class="cls-10" d="M243.92,102.48c-.23-.54-.44-1.08-.65-1.62.2.55.42,1.09.65,1.62"/>
        <path class="cls-10" d="M211.16,88.11c-.53-.55-1.02-1.08-1.49-1.59.47.52.96,1.05,1.49,1.59"/>
        <path class="cls-10" d="M209.29,86.09c-.33-.37-.66-.74-.96-1.1.3.36.63.73.96,1.1"/>
        <path class="cls-5" d="M230.21,69.98c-3.67-3.2-7.95-6.13-12.86-8.9-4.1-2.31-8.59-4.49-13.37-6.54-.33.86-.61,1.75-.85,2.67,0,.02-.01.04-.02.06-.24.91-.45,1.85-.61,2.82,0,.04-.01.08-.02.13-.14.85-.23,1.73-.31,2.63-.02.22-.04.44-.05.67-.06.97-.1,1.96-.09,2.99.05,5.84.62,9.75,3,13.89-.82-1.41-1.42-2.8-1.86-4.25,8.3-1.97,17.49-4.21,27.04-6.16"/>
        <path class="cls-10" d="M206.83,83.11c-.28-.37-.54-.73-.78-1.09.25.36.51.73.78,1.09"/>
        <path class="cls-10" d="M205.86,81.73c-.29-.44-.56-.87-.81-1.3.25.43.52.87.81,1.3"/>
        <path class="cls-10" d="M244.84,104.53c-.16-.33-.3-.67-.45-1-.09-.19-.19-.38-.27-.57.23.53.47,1.06.72,1.58"/>
        <path class="cls-10" d="M207.96,84.54c-.29-.35-.57-.7-.83-1.04.26.34.54.69.83,1.04"/>
        <path class="cls-10" d="M194.89,108.74s0,.03.01.04c0-.01,0-.03-.01-.04"/>
        <path class="cls-10" d="M190.59,107.69s.1-.03.15-.04c-.05.01-.1.03-.15.04"/>
        <path class="cls-10" d="M188.17,108.52c.07-.03.14-.06.22-.08-.07.03-.14.05-.22.08"/>
        <path class="cls-10" d="M189.35,108.08c.09-.03.19-.07.28-.1-.09.03-.18.06-.28.1"/>
        <path class="cls-10" d="M193.43,107.46c.07.01.15.03.22.05-.07-.02-.14-.03-.22-.05"/>
        <path class="cls-10" d="M191.74,107.44c.07,0,.13-.01.19-.02-.07,0-.13.01-.19.02"/>
        <path class="cls-10" d="M192.63,107.38c.09,0,.18,0,.26,0-.09,0-.17,0-.26,0"/>
        <path class="cls-10" d="M194.6,108.18s.03.05.04.08c-.01-.02-.03-.05-.04-.08"/>
        <path class="cls-10" d="M174.43,60.3c-.07.04-.15.08-.22.12.08-.04.15-.08.22-.12"/>
        <path class="cls-10" d="M176.36,56.68c.21-.08.41-.15.62-.22-.21.07-.41.15-.62.22"/>
        <path class="cls-10" d="M174.81,57.26c.15-.06.31-.12.46-.17-.15.06-.31.11-.46.17"/>
        <path class="cls-10" d="M182.12,54.91c.29-.06.56-.09.84-.13-.28.04-.55.07-.84.13"/>
        <path class="cls-10" d="M180.77,55.23c.25-.07.49-.12.74-.17-.24.06-.49.11-.74.17"/>
        <path class="cls-10" d="M183.4,54.71c.41-.05.81-.07,1.19-.07-.38,0-.78.03-1.19.07"/>
        <path class="cls-10" d="M177.88,56.13c.22-.08.44-.15.66-.22-.22.07-.43.14-.66.22"/>
        <path class="cls-10" d="M179.36,55.64c.23-.07.45-.13.67-.19-.22.06-.44.12-.67.19"/>
        <path class="cls-5" d="M173.17,60.91c.38-.17.72-.34,1.04-.5.08-.04.15-.08.22-.12.3-.16.58-.31.79-.45,1.76-1.17,3.88-1.06,5.75-.96,1.45.07,2.82.15,3.33-.44.29-.33.67-1.25.29-3.81-.38,0-.78.03-1.19.07-.14.02-.29.05-.44.07-.28.04-.55.07-.84.13-.2.04-.41.1-.61.14-.24.06-.49.1-.74.17-.24.06-.49.14-.74.22-.22.06-.44.12-.67.19-.27.08-.54.18-.82.27-.22.07-.43.14-.66.22-.3.1-.6.22-.9.32-.21.07-.41.15-.62.22-.36.13-.73.27-1.09.41-.15.06-.3.11-.46.17-.5.19-1.01.39-1.53.59-.03,1.02-.07,2.04-.12,3.05"/>
        <path class="cls-10" d="M319.52,91.65c-.05.04-.1.07-.16.1.05-.03.1-.07.16-.1"/>
        <path class="cls-10" d="M311.55,102.02c.05-.31.11-.62.18-.93-.07.31-.13.61-.18.93"/>
        <path class="cls-10" d="M312.22,99.36c-.05.13-.1.25-.14.38.04-.13.1-.25.14-.38"/>
        <path class="cls-10" d="M317.87,92.84s-.07.05-.1.08c.03-.03.07-.05.1-.08"/>
        <path class="cls-10" d="M316.29,94.13s-.04.04-.06.05c.02-.02.04-.04.06-.05"/>
        <path class="cls-10" d="M306.3,103.22h0c-.02-.52-.05-1.03-.08-1.54.03.51.06,1.03.08,1.54"/>
        <path class="cls-10" d="M245.73,99.67c-.07-.19-.13-.38-.2-.57.07.19.13.38.2.57"/>
        <path class="cls-10" d="M246.95,102.66c-.05-.1-.1-.2-.14-.3.04.1.09.2.14.3"/>
        <path class="cls-10" d="M303.35,92.45c.12.14.23.3.34.45-.11-.15-.22-.31-.34-.45"/>
        <path class="cls-10" d="M253.6,4.59l.21,1.3c.05.31.14.52.34.76,8.54,10.56,11.6,19.69,10.92,32.58-.47,9.02-5.98,13.38-11.31,17.6-3.51,2.78-7.14,5.66-9.64,9.96-1.86,3.21-1.18,6.34-.38,9.96-.74-3.35-1.36-6.28.03-9.25,31.26-4.95,63.83-4.15,81.07,21.15,2.62-1.18,5.2-1.89,7.26-1.77.64.04,1.17.52,1.26,1.16.05.31.13.88-.08,1.35-.05.27-.16.52-.26.78-.27.63-.57,1.35-.13,2.24l.55,1.1c14.29-8.16,25.01-21.26,28.7-42.63C372.05-6.41,300.97-2.46,253.6,4.59"/>
        <path class="cls-10" d="M248.35,105.53c-.04-.08-.08-.16-.12-.24.04.08.08.16.12.24"/>
        <path class="cls-10" d="M314.76,95.59c.1-.11.21-.22.31-.32-.11.11-.21.22-.31.32"/>
        <path class="cls-10" d="M306.17,101.07c-.03-.43-.07-.85-.12-1.27.05.42.09.84.12,1.27"/>
        <path class="cls-10" d="M304.65,94.47c-.1-.2-.2-.39-.3-.58.11.19.21.38.3.58"/>
        <polyline class="cls-10" points="249.93 108.43 249.93 108.43 249.93 108.43 249.93 108.43"/>
        <path class="cls-10" d="M305.9,98.78c-.07-.42-.14-.83-.23-1.23.09.4.16.81.23,1.23"/>
        <path class="cls-10" d="M305.32,96.18c-.07-.22-.15-.42-.22-.63.07.21.16.41.22.63"/>
        <path class="cls-10" d="M257.63,107.89c.05-.45.12-.89.21-1.32-.09.43-.16.87-.21,1.32"/>
        <path class="cls-10" d="M258.19,105.31c-.14.39-.25.8-.35,1.23.09-.43.21-.85.35-1.23"/>
        <path class="cls-10" d="M314,96.44c-.09.11-.19.22-.28.33.09-.11.19-.22.28-.33"/>
        <path class="cls-10" d="M195.85,105.61c.3.22.56.49.79.78-.23-.29-.49-.56-.79-.78"/>
        <path class="cls-10" d="M179.76,52.71c-.27.07-.55.16-.83.24.28-.08.55-.17.83-.24"/>
        <path class="cls-10" d="M197.91,110.41c-.02-.52-.08-1.01-.17-1.46.09.45.15.94.17,1.46"/>
        <path class="cls-10" d="M178.08,53.21c-.3.1-.6.2-.91.3.3-.1.61-.21.91-.3"/>
        <path class="cls-10" d="M197.25,107.41c-.13-.28-.28-.53-.44-.76.16.24.32.49.44.76"/>
        <path class="cls-10" d="M182.97,52.04c-.22.03-.45.07-.67.1.22-.04.45-.08.67-.1"/>
        <path class="cls-10" d="M182.63,108.1c-.22.11-.44.22-.66.34.22-.12.44-.23.66-.34"/>
        <path class="cls-10" d="M181.4,52.31c-.25.05-.5.11-.75.18.25-.06.51-.12.75-.18"/>
        <path class="cls-10" d="M197.68,108.7c-.08-.35-.18-.69-.3-1,.12.31.22.64.3,1"/>
        <path class="cls-10" d="M218.53,110.19c.14-.48.25-.97.34-1.47-.09.49-.2.99-.34,1.47"/>
        <path class="cls-10" d="M219.05,107.12c-.02.38-.06.75-.11,1.12.05-.37.09-.74.11-1.12"/>
        <path class="cls-10" d="M176.02,62.51c.25-.14.49-.28.69-.41-.2.13-.43.27-.69.41"/>
        <path class="cls-10" d="M219.02,105.04c.06.54.07,1.07.06,1.6,0-.53,0-1.06-.06-1.6"/>
        <path class="cls-10" d="M180.7,75.03c1.47-.13,2.85-.13,4.1-.02-1.25-.11-2.63-.11-4.1.02"/>
        <path class="cls-10" d="M174.64,54.44c-.42.16-.85.32-1.27.49.43-.16.85-.33,1.27-.49"/>
        <path class="cls-10" d="M164.05,94.02h0c1.36-.62,2.72-1.69,4.04-2.74-1.32,1.05-2.68,2.12-4.04,2.74"/>
        <path class="cls-10" d="M176.36,53.8c-.34.12-.67.24-1.01.37.34-.13.68-.25,1.01-.37"/>
        <path class="cls-10" d="M192.31,104.68c.13,0,.25,0,.38,0-.13,0-.25,0-.38,0"/>
        <path class="cls-10" d="M183.95,51.97c.18,0,.36-.03.53-.03-.17,0-.35.02-.53.03"/>
        <path class="cls-10" d="M183.79,107.51c-.2.1-.41.2-.61.31.21-.1.41-.21.61-.31"/>
        <path class="cls-10" d="M186.74,75.29c-.52-.11-1.08-.19-1.66-.25.58.06,1.14.15,1.66.25"/>
        <path class="cls-10" d="M189.68,105.13c-.11.03-.22.06-.34.09.11-.03.23-.06.34-.09"/>
        <path class="cls-10" d="M190.76,104.88c-.13.03-.26.05-.39.08.13-.03.26-.05.39-.08"/>
        <path class="cls-10" d="M188.5,75.77c-.45-.16-.95-.3-1.47-.42.52.12,1.02.25,1.47.42"/>
        <path class="cls-10" d="M188.3,105.55c-.11.04-.22.08-.33.12.11-.04.22-.09.33-.12"/>
        <path class="cls-10" d="M184.94,106.96c-.19.09-.39.18-.58.28.19-.09.39-.19.58-.28"/>
        <path class="cls-10" d="M191.76,104.73c-.13.01-.26.03-.4.04.13-.02.26-.03.4-.04"/>
        <path class="cls-10" d="M186.09,106.44c-.18.08-.36.16-.54.24.18-.08.36-.16.54-.24"/>
        <path class="cls-10" d="M187.21,105.97c-.16.07-.33.14-.49.2.16-.07.33-.14.49-.2"/>
        <path class="cls-10" d="M175.16,62.96c.23-.11.44-.22.65-.33-.2.11-.42.22-.65.33"/>
        <path class="cls-10" d="M194.39,104.9c-.1-.03-.21-.05-.32-.07.1.02.21.04.32.07"/>
        <path class="cls-10" d="M174.14,63.44c.28-.13.55-.25.8-.37-.26.12-.52.25-.8.37"/>
        <path class="cls-10" d="M195.15,105.19c-.08-.04-.17-.07-.25-.1.08.03.17.06.25.1"/>
        <path class="cls-10" d="M172.97,63.95h0c.36-.15.7-.3,1.03-.45-.33.15-.68.3-1.03.45"/>
        <path class="cls-10" d="M172.75,76.83c-.88.32-1.77.67-2.67,1.08.9-.41,1.79-.76,2.67-1.08"/>
        <path class="cls-10" d="M180.46,75.05c-.75.07-1.53.18-2.32.32.79-.14,1.57-.25,2.32-.32"/>
        <path class="cls-10" d="M193.57,104.73c-.12-.01-.24-.02-.36-.03.12,0,.24.02.36.03"/>
        <path class="cls-10" d="M178.04,75.39c-1.64.3-3.36.75-5.12,1.38,1.76-.62,3.48-1.08,5.12-1.38"/>
        <path class="cls-10" d="M181.52,108.69c-.25.13-.5.27-.75.4.25-.14.5-.27.75-.4"/>
        <path class="cls-10" d="M199.48,62.53c-.02.24-.04.49-.06.73.02-.25.04-.49.06-.73"/>
        <path class="cls-10" d="M200.55,56.28c-.02.08-.04.16-.07.24.02-.08.04-.16.07-.24"/>
        <path class="cls-10" d="M215.59,35.22c8.67-7.79,14.93-13.42,12.65-23.88-.04-.2-.07-.29-.08-.34-.06-.15-.08-.26-.16-.78l-.21-1.3c-1.19.21-2.33.41-3.39.59-21.11,3.63-38.68,0-47.5,21.18-1.9,4.57-2.72,9.2-3.12,13.86,9.82,2.48,19.18,5.48,27.66,8.94,2.55-6.74,7.34-12.15,14.15-18.27"/>
        <path class="cls-10" d="M199.83,59.54s0,.05-.01.08c0-.02,0-.05.01-.08"/>
        <path class="cls-10" d="M205.74,86.1c.13.16.26.31.39.48-.13-.16-.26-.32-.39-.48"/>
        <path class="cls-10" d="M204.52,84.53c.1.13.2.26.3.4-.1-.13-.2-.27-.3-.4"/>
        <path class="cls-10" d="M188.27,83.29c.15-.3.28-.62.4-.95-.12.33-.25.65-.4.95"/>
        <path class="cls-10" d="M203.47,83.03c.05.07.1.14.14.21-.05-.07-.1-.14-.14-.21"/>
        <path class="cls-10" d="M186.9,85.35c.4-.42.74-.89,1.04-1.39-.3.5-.64.98-1.04,1.39"/>
        <path class="cls-10" d="M188.96,81.35c.07-.27.11-.55.16-.83-.05.28-.1.57-.16.83"/>
        <path class="cls-10" d="M207.18,87.79c.14.15.26.3.41.46-.14-.16-.27-.31-.41-.46"/>
        <path class="cls-5" d="M173.36,54.92c.43-.17.85-.33,1.27-.49.24-.09.47-.18.7-.27.34-.13.68-.25,1.01-.37.27-.1.54-.19.81-.28.3-.1.61-.21.91-.3.29-.09.57-.18.86-.27.28-.08.55-.17.83-.24.3-.08.59-.15.88-.22.25-.06.51-.13.76-.18.31-.06.61-.11.91-.16.22-.04.45-.08.67-.1.33-.04.66-.06.98-.07.18,0,.36-.03.53-.03.49,0,.97.02,1.43.07.58.07,1.05.51,1.16,1.09.69,3.56.47,5.75-.73,7.13-1.38,1.58-3.58,1.46-5.52,1.37-1.53-.08-3.1-.16-4.12.51-.2.13-.43.27-.69.41-.07.04-.14.07-.21.11-.2.11-.42.22-.65.33-.07.04-.14.07-.22.1-.25.12-.52.25-.8.38-.05.02-.1.04-.14.06-.33.15-.68.3-1.03.45-.27,3.25-.73,6.51-1.61,9.76-.39,1.45-.83,2.84-1.29,4.19,0,0,0,0,0,0,.9-.41,1.79-.76,2.67-1.08.06-.02.11-.04.17-.06,1.76-.62,3.48-1.08,5.12-1.38.03,0,.07-.01.1-.02.79-.14,1.57-.25,2.32-.32.08,0,.16-.01.24-.02,1.47-.13,2.85-.13,4.1-.02.09,0,.18.01.27.02.58.06,1.14.15,1.66.25.1.02.19.04.29.07.52.12,1.02.25,1.47.42.52.19.87.67.89,1.23.03.8-.01,1.54-.07,2.25,3.47-.7,7.23-1.55,11.21-2.48-.88-2.99-1.17-6.21-1.2-10.24-.01-1.13.03-2.21.1-3.26.02-.25.04-.49.06-.73.08-1,.19-1.98.34-2.92,0-.03,0-.05,0-.08.17-1.04.39-2.04.65-3.02.02-.08.04-.16.07-.24.26-.96.56-1.89.9-2.79-8.48-3.46-17.84-6.46-27.66-8.94-.29,3.44-.36,6.91-.43,10.38,0,0,0,0,0,0"/>
        <path class="cls-10" d="M282.2,106.53c-.06-.05-.12-.1-.16-.16.04.06.11.1.16.16"/>
        <path class="cls-9" d="M267.97,145.27c2.02-1.78,3.02-3.32,2.69-4.12-.28-.65-1.91-2.32-11-2.54-.45,2.78-1.36,5.36-2.64,7.78,4.3.75,8.28,1.24,10.95-1.12"/>
        <path class="cls-9" d="M194,171.62c.31-.23.73-.65.8-1.68.35-5.24-6.83-8.89-11.37-10.48-.14,3.1-.01,6.4.2,9.99.04.65.04,1.26.06,1.9,4.51.97,8.62,1.51,10.3.28"/>
        <path class="cls-9" d="M240.43,73.79c-.21-1.5-.27-3.03,0-4.57-.26,1.55-.21,3.07,0,4.57"/>
        <path class="cls-9" d="M244.02,102.72s0-.01,0-.02c0,0,0,.01,0,.01,0,0,0,0,0,0"/>
        <path class="cls-9" d="M238.89,125.8c-.19.12-.4.22-.59.34.19-.13.4-.23.59-.34"/>
        <path class="cls-9" d="M240.7,68.01h0c-.11.4-.2.79-.27,1.19.07-.39.16-.79.27-1.19"/>
        <path class="cls-9" d="M240.45,73.99c.05.32.1.63.16.94-.06-.31-.11-.63-.16-.94"/>
        <path class="cls-9" d="M234.67,129.71s-.06.07-.08.1c.02-.03.05-.07.08-.1"/>
        <path class="cls-9" d="M240.69,75.38c.05.26.1.52.15.78-.05-.26-.1-.52-.15-.78"/>
        <path class="cls-9" d="M236.6,127.52c-.4.4-.77.8-1.11,1.19.34-.39.7-.78,1.11-1.19"/>
        <path class="cls-9" d="M207.13,83.5c-.1-.13-.2-.26-.3-.39.1.13.2.26.3.39"/>
        <path class="cls-9" d="M205.05,80.43s-.01-.02-.02-.04c0,.01.01.02.02.04"/>
        <path class="cls-9" d="M204.46,136.22c-3.08.24-6.52.59-10.21,1-7.18,6.21-9.84,12.34-10.62,19.46,4.28,1.42,14.39,5.62,13.86,13.43-.11,1.6-.75,2.84-1.91,3.69-2.41,1.76-6.76,1.36-11.8.31.02,1.62.01,3.19,0,4.74-.02,3.95-.02,7.73.41,11.86,1.33-1.3,3.23-2.35,5.39-3.53,1.66-.91,3.54-1.93,5.47-3.23,6.33-4.28,13.98-8.02,22.09-11.98,6.65-3.25,13.37-6.53,19.35-10.15-1.05-4.28-.64-8.3,1.24-11.12,4.2-6.31,10.51-5.81,16.38-4.81,1.31-2.27,2.24-4.7,2.73-7.3-2.75.02-6.04.15-10,.45-.5.04-.87.06-1.07.07-7.4.36-11.57-.73-12.75-3.37-.5-1.13-.41-2.41.27-3.86h0c-6.57,3.3-16.06,3.33-28.86,4.34"/>
        <path class="cls-9" d="M208.33,84.99c-.13-.15-.25-.3-.37-.45.12.15.24.3.37.45"/>
        <path class="cls-9" d="M245.39,105.67c.06.11.11.22.17.34-.06-.11-.11-.22-.17-.34"/>
        <path class="cls-9" d="M244.59,108.75c-.64,7.22-1.98,12.42-4.08,16.17-.07.03-.13.07-.2.11,3.83-1.76,8.88-2.38,14.04-2.8-1.42-3.18-3.2-6.27-4.96-9.29-.83-1.43-1.66-2.87-2.47-4.34,0,0,0,0,0,0-.77.05-1.56.1-2.34.14"/>
        <path class="cls-9" d="M206.05,82.01c-.06-.09-.13-.19-.19-.28.06.09.13.19.19.28"/>
        <path class="cls-9" d="M209.67,86.52c-.13-.14-.25-.28-.38-.42.13.14.25.28.38.42"/>
        <path class="cls-9" d="M243.1,100.32c-.02-.07-.04-.13-.07-.2.02.06.04.12.06.17,0,0,0,.02,0,.02"/>
        <path class="cls-9" d="M243.09,100.3c-.02-.06-.04-.12-.06-.17-.06-.16-.11-.33-.17-.49.07.22.15.44.23.67"/>
        <path class="cls-8" d="M244.59,108.75c-7.45.46-15.31.97-23.23,1.32h0c-1.95,8.39-10.44,14.63-18.73,20.69-3.01,2.21-5.86,4.29-8.36,6.45,0,0,0,0-.01,0,3.69-.41,7.13-.76,10.21-1,12.8-1.01,22.28-1.04,28.86-4.34.3-.65.72-1.34,1.27-2.06.02-.03.06-.07.08-.1.25-.33.52-.67.82-1.01.34-.39.7-.78,1.11-1.19.51-.51,1.09-.97,1.7-1.38.19-.12.4-.23.59-.34.46-.27.92-.54,1.42-.77.07-.03.13-.08.2-.11,2.09-3.75,3.43-8.95,4.08-16.17"/>
        <path class="cls-9" d="M221.69,108.03c.03-.27.05-.54.07-.81-.01.27-.04.54-.07.81"/>
        <path class="cls-9" d="M244.12,102.96c-.03-.08-.06-.16-.1-.24,0,0,0,0,0,0,.04.08.07.16.1.25"/>
        <path class="cls-9" d="M221.71,104.77c.06.59.07,1.17.07,1.74,0-.57-.01-1.15-.07-1.74"/>
        <path class="cls-2" d="M244.84,104.53c-.03,1.05-.07,2.1-.15,3.2-.03.35-.07.68-.1,1.02.78-.05,1.57-.1,2.34-.14t0,0c-.47-.86-.93-1.73-1.37-2.6-.06-.11-.11-.22-.17-.34-.19-.38-.37-.75-.55-1.13"/>
        <path class="cls-9" d="M243.28,100.85c-.06-.17-.12-.35-.18-.53,0,0,0-.02,0-.02.07.18.12.37.19.55"/>
        <path class="cls-9" d="M242.08,96.9c.16.68.34,1.35.55,2.01-.2-.67-.39-1.34-.55-2.01"/>
        <path class="cls-2" d="M241.93,85.91c-.04.67-.08,1.35-.13,2.04.16-2.18.31-4.25.09-6.31-.15-1.45-.47-2.9-.78-4.31-.09-.39-.17-.78-.25-1.18-.05-.26-.1-.52-.15-.78-.03-.15-.06-.3-.08-.45-.06-.31-.11-.63-.16-.94,0-.07-.02-.13-.03-.2-.21-1.5-.27-3.03,0-4.57,0,0,0-.01,0-.02.07-.39.16-.79.27-1.19-3.53.6-7.03,1.27-10.49,1.98,5.28,4.59,9.26,9.76,11.72,15.93"/>
        <path class="cls-9" d="M244.02,102.71s0,0,0-.01c-.03-.07-.06-.15-.09-.22.03.08.06.16.1.23"/>
        <path class="cls-4" d="M230.21,69.98c-9.55,1.95-18.73,4.19-27.04,6.16.44,1.45,1.04,2.84,1.86,4.25,0,.01.01.02.02.04.25.43.52.87.81,1.3.06.09.13.19.19.28.25.36.51.73.78,1.09.1.13.2.26.3.39.26.34.54.69.83,1.04.12.15.24.3.37.45.3.36.63.73.96,1.1.13.14.25.28.38.43.47.52.96,1.04,1.49,1.59l1.4,1.44c4.55,4.68,8.48,8.71,9.15,15.22.06.59.08,1.17.07,1.74,0,.24,0,.48-.02.72-.01.27-.04.54-.07.81-.07.7-.18,1.38-.33,2.04h0c7.93-.35,15.79-.86,23.23-1.32.03-.34.07-.67.1-1.02.08-1.09.12-2.15.15-3.2-.25-.52-.49-1.05-.72-1.58-.04-.08-.07-.16-.1-.25-.03-.08-.06-.16-.09-.23-.22-.54-.44-1.08-.65-1.62-.07-.18-.13-.37-.19-.55-.08-.22-.15-.44-.23-.67-.08-.24-.16-.47-.24-.72-.2-.67-.39-1.34-.54-2.01-.71-3.05-.49-6.05-.28-8.95.05-.69.09-1.36.13-2.04-2.46-6.18-6.44-11.34-11.72-15.93"/>
        <path class="cls-9" d="M154.97,135.64c-.02-.09-.04-.19-.06-.28.02.09.04.18.06.28"/>
        <path class="cls-9" d="M204.82,84.93c.29.39.6.78.92,1.17-.32-.4-.63-.79-.92-1.17"/>
        <path class="cls-9" d="M206.13,86.58c.33.4.69.8,1.05,1.21-.37-.41-.72-.82-1.05-1.21"/>
        <path class="cls-9" d="M207.59,88.25c.51.56,1.04,1.14,1.62,1.73-.57-.6-1.11-1.17-1.62-1.73"/>
        <path class="cls-9" d="M203.61,83.24c.28.43.59.86.91,1.3-.32-.44-.62-.87-.91-1.3"/>
        <path class="cls-9" d="M187.93,83.95c.13-.21.22-.44.33-.66-.11.22-.21.45-.33.66"/>
        <path class="cls-9" d="M155.9,139.37c-.05-.17-.09-.34-.14-.52.05.17.09.34.14.52"/>
        <path class="cls-9" d="M155.19,136.66c-.02-.1-.04-.19-.07-.28.02.1.04.19.07.28"/>
        <path class="cls-9" d="M155.55,138.08c-.03-.12-.06-.24-.09-.36.03.12.06.24.09.36"/>
        <path class="cls-9" d="M200.52,76.77h0c.63,2.13,1.57,4.15,2.95,6.26-1.38-2.11-2.32-4.13-2.95-6.26"/>
        <path class="cls-9" d="M156.07,140c.41,1.46.84,2.9,1.17,4.01.48,1.6.89,2.98,1.15,3.99,5.38-.08,9.89,2.18,14.24,4.36,2.67,1.33,5.42,2.69,8.37,3.52.79-6.5,3.1-12.37,8.75-18.15-9.88,1.15-21.32,2.61-33.27,3.74-.14-.48-.28-.97-.42-1.47"/>
        <path class="cls-9" d="M188.67,82.34c.11-.31.21-.64.29-.98-.08.34-.18.67-.29.98"/>
        <path class="cls-9" d="M189.31,79.25c-.04.45-.12.86-.19,1.27.07-.41.15-.82.19-1.27"/>
        <path class="cls-9" d="M189.34,105.22c-.34.1-.69.21-1.05.34.35-.13.7-.24,1.05-.34"/>
        <path class="cls-9" d="M194.07,104.83c-.16-.04-.33-.07-.5-.09.17.02.34.06.5.09"/>
        <path class="cls-9" d="M190.37,104.95c-.23.05-.46.11-.69.18.23-.06.46-.13.69-.18"/>
        <path class="cls-9" d="M191.36,104.77c-.19.03-.4.07-.6.1.2-.04.4-.07.6-.1"/>
        <path class="cls-9" d="M192.31,104.68c-.18,0-.37.02-.55.04.19-.02.37-.04.55-.04"/>
        <path class="cls-9" d="M194.9,105.09c-.17-.07-.34-.14-.51-.19.18.05.34.12.51.19"/>
        <path class="cls-9" d="M197.74,108.95c-.02-.09-.04-.17-.06-.25.02.09.04.17.06.25"/>
        <path class="cls-9" d="M218.94,108.25c-.02.16-.04.32-.07.48.03-.16.05-.32.07-.48"/>
        <path class="cls-9" d="M195.85,105.61c-.22-.16-.45-.3-.7-.42.24.12.48.26.7.42"/>
        <path class="cls-9" d="M197.38,107.7c-.04-.1-.08-.2-.12-.3.04.1.08.19.12.3"/>
        <path class="cls-9" d="M219.08,106.64c0,.16-.01.32-.02.48,0-.16.02-.32.02-.48"/>
        <path class="cls-9" d="M192.69,104.68c.18,0,.35,0,.52.02-.17-.01-.34-.02-.52-.02"/>
        <path class="cls-9" d="M181.98,108.44c-.15.08-.31.16-.46.24.15-.08.31-.16.46-.24"/>
        <path class="cls-9" d="M185.54,106.68c-.2.09-.4.18-.6.28.2-.1.4-.19.6-.28"/>
        <path class="cls-9" d="M184.36,107.23c-.19.09-.38.18-.57.28.19-.1.38-.19.57-.28"/>
        <path class="cls-9" d="M183.18,107.82c-.18.09-.36.19-.54.28.18-.09.36-.19.54-.28"/>
        <path class="cls-9" d="M196.64,106.39c.06.08.11.17.17.25-.06-.08-.11-.17-.17-.25"/>
        <path class="cls-8" d="M180.33,109.04c-16.46-2.39-18.5-7.26-16.29-15.02-.07.03-.14.08-.21.11-.21.09-.85.36-.98.45-.42.65-1.02,1.43-2.99,3.1.89,3.88-.13,10.67-1.36,17.89-.11.63-.21,1.22-.3,1.76,2.28.89,6.38,1.22,12.24-3.14.14-.11.31-.18.48-.23,1.7-.42,4.52-1.97,7.52-3.62.77-.42,1.55-.85,2.32-1.27,0,0,0,0,0,0-.14-.02-.29-.03-.43-.05"/>
        <path class="cls-9" d="M187.97,105.68c-.25.09-.5.19-.76.29.26-.1.51-.19.76-.29"/>
        <path class="cls-9" d="M186.71,106.17c-.21.09-.42.17-.63.27.21-.09.42-.18.63-.27"/>
        <path class="cls-8" d="M197.91,110.41h0c.06,1.47-.11,3.21-.55,5.26-.09.43-.38.79-.79.96-1.61.7-3.36.55-5.05.4-1.77-.15-3.45-.3-4.63.6-1.2.91-1.94,2.14-2.71,3.45-.88,1.48-1.79,3-3.43,4.16-2.31,1.63-4.61.12-6.46-1.09-2.28-1.49-3.08-1.78-3.98-.86l-1.3,1.32c-4.05,4.16-9,9.25-14.25,9.91.04.25.09.53.15.83.02.09.04.19.06.28.05.24.1.48.16.74.02.1.04.19.07.29.08.34.17.69.26,1.06.03.12.06.24.09.36.07.26.14.52.21.78.05.17.09.34.14.51.06.21.12.42.18.63.14.5.28.99.42,1.47,11.95-1.12,23.39-2.58,33.27-3.74.84-.86,1.75-1.71,2.74-2.57,2.58-2.23,5.61-4.44,8.53-6.58,7.59-5.55,15.39-11.26,17.5-18.39-6.97.27-13.94.4-20.63.22"/>
        <path class="cls-4" d="M189.13,80.52c-.05.28-.1.56-.16.83-.08.34-.18.67-.29.98-.12.33-.25.64-.4.95-.11.22-.21.46-.33.66-.3.51-.64.98-1.04,1.4-2.76,2.87-7.06,2.9-10.85,2.93-1.08,0-2.12.01-3.07.1-1.39.12-3.17,1.53-4.89,2.9-1.32,1.05-2.68,2.12-4.04,2.74-2.21,7.76-.18,12.63,16.29,15.02.14.02.29.03.43.05,0,0,0,0,0,0,.25-.13.5-.27.75-.4.15-.08.31-.16.46-.24.22-.12.44-.23.66-.34.18-.1.36-.19.54-.28.21-.1.41-.21.61-.31.19-.1.38-.19.57-.28.19-.09.39-.19.58-.28.2-.1.4-.19.6-.28.18-.08.36-.16.54-.24.21-.09.42-.18.63-.27.16-.07.33-.14.49-.2.26-.1.51-.19.76-.29.11-.04.22-.09.33-.12.35-.12.7-.24,1.05-.34.11-.03.22-.06.34-.09.23-.06.46-.13.69-.18.13-.03.26-.05.39-.08.2-.04.4-.08.6-.1.13-.02.26-.03.4-.04.19-.02.37-.04.55-.04.13,0,.25,0,.38,0,.18,0,.35,0,.52.02.12,0,.24.02.36.04.17.02.34.06.5.09.11.02.21.04.32.07.18.05.34.12.51.19.08.04.17.06.25.1.24.12.48.26.7.42.3.22.56.49.79.78.06.08.11.17.17.25.16.24.31.49.44.76.04.1.08.2.12.3.12.31.22.64.3,1,.02.08.04.17.06.25.09.45.15.94.17,1.46h0c6.69.18,13.65.05,20.62-.22.14-.48.25-.97.34-1.47.03-.16.05-.32.07-.48.05-.37.09-.74.11-1.12,0-.16.02-.32.02-.48,0-.53,0-1.06-.06-1.6-.57-5.57-3.86-8.94-8.4-13.61l-1.41-1.45c-.57-.59-1.11-1.17-1.62-1.73-.14-.16-.27-.31-.4-.46-.37-.41-.72-.82-1.05-1.21-.13-.16-.26-.32-.39-.47-.32-.4-.63-.79-.92-1.17-.1-.13-.2-.27-.3-.4-.32-.44-.63-.87-.91-1.3-.05-.07-.1-.14-.14-.21-1.38-2.1-2.32-4.13-2.95-6.26-3.98.93-7.74,1.78-11.21,2.48-.04.45-.11.86-.19,1.27"/>
        <path class="cls-9" d="M329.86,103.27c.68.1,1.38.16,2.13-.06-.13-.39-.26-.77-.4-1.15-.89.32-1.37.73-1.73,1.21"/>
        <path class="cls-9" d="M306.37,106.83c.02,2.55.04,4.98.37,6.89,3.55-.34,3.99-3.29,4.4-8.2.1-1.18.22-2.36.4-3.5-1.73.44-3.49.83-5.25,1.2.04,1.21.06,2.43.07,3.61"/>
        <path class="cls-9" d="M306.21,101.68c-.01-.21-.03-.41-.05-.61.01.2.03.41.05.61"/>
        <path class="cls-9" d="M302.09,91.26c.48.34.89.75,1.27,1.18-.38-.43-.79-.84-1.27-1.18"/>
        <path class="cls-9" d="M306.05,99.8c-.04-.34-.1-.68-.15-1.01.05.34.11.67.15,1.01"/>
        <path class="cls-9" d="M324.85,88.65h0c-1.81.81-3.64,1.85-5.33,3,1.69-1.15,3.52-2.19,5.33-3"/>
        <path class="cls-9" d="M317.76,92.92c-.52.4-1.01.8-1.48,1.21.46-.41.96-.81,1.48-1.21"/>
        <path class="cls-9" d="M319.36,91.75c-.51.35-1.01.71-1.5,1.09.48-.37.98-.73,1.5-1.09"/>
        <path class="cls-9" d="M315.08,95.26c.36-.36.74-.72,1.15-1.08-.41.36-.79.72-1.15,1.08"/>
        <path class="cls-9" d="M314.76,95.59c-.27.28-.53.57-.77.85.24-.28.49-.56.77-.85"/>
        <path class="cls-9" d="M312.92,97.88c-.28.46-.5.96-.7,1.48.19-.52.41-1.03.7-1.48"/>
        <path class="cls-9" d="M313.72,96.77c-.3.38-.58.75-.8,1.11.22-.36.5-.73.8-1.11"/>
        <path class="cls-9" d="M312.08,99.74c-.14.43-.25.89-.35,1.35.1-.46.21-.92.35-1.35"/>
        <path class="cls-9" d="M305.67,97.55c-.1-.47-.21-.93-.35-1.37.13.44.25.9.35,1.37"/>
        <path class="cls-9" d="M305.09,95.55c-.13-.37-.28-.74-.45-1.09.17.35.31.71.45,1.09"/>
        <path class="cls-9" d="M249.93,108.43c-.55-.97-1.08-1.93-1.58-2.9.5.97,1.03,1.93,1.58,2.9"/>
        <path class="cls-9" d="M304.34,93.88c-.19-.35-.42-.67-.65-.99.23.31.46.64.65.99"/>
        <path class="cls-9" d="M257.85,106.55s0,.02,0,.03c0,0,0-.02,0-.03"/>
        <path class="cls-9" d="M246.81,102.36c-.4-.89-.75-1.78-1.08-2.69.32.9.68,1.8,1.08,2.69"/>
        <path class="cls-9" d="M248.23,105.29c-.45-.88-.88-1.75-1.28-2.63.4.88.83,1.76,1.28,2.63"/>
        <path class="cls-9" d="M245.53,99.1c-.31-.92-.6-1.86-.82-2.8.22.95.51,1.88.82,2.8"/>
        <path class="cls-9" d="M255.19,108.14c-1.71.09-3.47.18-5.26.29.59,1.04,1.19,2.09,1.81,3.15,1.96,3.37,3.94,6.81,5.47,10.43,4.49-.34,8.75-.66,11.86-1.61-1.88-3.16-5.87-4.22-9.14-4.11-.51.02-1.05-.29-1.27-.79-.97-2.11-1.32-5.04-1.03-7.61-2,.08-3.98.16-5.94.25h3.5Z"/>
        <path class="cls-2" d="M243.77,67.5c-1.39,2.97-.77,5.89-.03,9.25.33,1.48.66,3,.83,4.6.25,2.31.08,4.59-.08,6.8-.2,2.83-.4,5.5.22,8.15.22.95.5,1.88.82,2.8.06.19.13.38.19.57.33.9.68,1.8,1.08,2.69.04.1.1.2.14.31.4.88.83,1.75,1.28,2.63.04.08.08.16.12.24.5.97,1.03,1.93,1.58,2.9t0,0c1.78-.1,3.54-.2,5.26-.29h-3.5c1.95-.08,3.94-.17,5.94-.25.05-.45.12-.89.22-1.32,0,0,0-.02,0-.03.1-.43.21-.85.35-1.23.16-.46.55-.79,1.02-.88,1.2-.22,2.4-.48,3.63-.74,6.74-1.42,14.36-3.04,21.12.63,3.39.61,6.27-.44,7.59-2.79,1.42-2.52.69-5.73-1.89-8.37-.33-.34-.46-.82-.35-1.27.11-.46.45-.82.9-.96,5.3-1.71,9.19-1.61,11.87.33.48.34.89.75,1.27,1.18.12.14.23.3.34.45.23.31.46.64.65.99.11.19.21.38.3.58.16.35.31.71.45,1.09.07.21.16.41.22.63.14.44.25.9.35,1.37.09.4.16.81.23,1.23.05.34.11.67.15,1.01.05.42.09.84.12,1.27.02.2.03.41.05.61.03.51.06,1.03.08,1.54,1.77-.37,3.52-.76,5.25-1.2.05-.31.11-.62.18-.93.1-.46.21-.92.35-1.35.04-.13.1-.25.14-.38.19-.52.41-1.03.7-1.48.23-.36.5-.73.8-1.11.09-.11.18-.22.28-.33.24-.28.49-.56.77-.85.1-.11.2-.22.31-.32.36-.36.74-.72,1.15-1.08.02-.02.04-.04.06-.05.47-.41.96-.81,1.48-1.21.03-.03.07-.05.1-.08.48-.37.98-.73,1.5-1.09.05-.04.1-.07.15-.1,1.69-1.15,3.51-2.18,5.33-3-17.24-25.3-49.82-26.1-81.07-21.15"/>
        <path class="cls-9" d="M302.71,96.94c.06.19.12.37.17.57-.05-.2-.11-.38-.17-.57"/>
        <path class="cls-9" d="M292.84,104.32c-.06.06-.12.12-.18.18.06-.06.12-.12.18-.18"/>
        <path class="cls-9" d="M302.16,95.54c.08.16.16.33.23.5-.07-.17-.15-.34-.23-.5"/>
        <path class="cls-9" d="M315.96,98.3c.07-.08.14-.17.21-.25-.07.08-.14.17-.21.25"/>
        <path class="cls-9" d="M303.12,98.56c.07.38.13.76.19,1.15-.05-.39-.12-.78-.19-1.15"/>
        <path class="cls-9" d="M301.44,94.37c.09.11.17.24.25.37-.08-.12-.16-.25-.25-.37"/>
        <path class="cls-9" d="M335.14,130.68l-1.85-.11c-6.45-.36-11.54-.64-12.88-3.68-1.06-2.39.87-5.2,2.44-7.13l.84-1.15c2.56,1.86,3.88.89,6.07-.73,1.39-1.03,2.97-2.18,5.03-2.5-.56-4.09-.71-5.68-2-9.59l-.04.02c-1.47.43-2.75.22-3.69.07-.32-.05-.76-.12-.93-.1-.25.21-.56.31-.86.31-.37,0-.74-.15-1.01-.45-.49-.55-.46-1.39.08-1.89.02-.02.04-.04.07-.06.18-.17.35-.49.55-.85.54-.98,1.36-2.45,3.68-3.31-.51-1.25-1.06-2.49-1.64-3.71-4.57,2.19-9.43,3.97-14.51,5.4-.34,1.36-.5,2.94-.64,4.52-.41,4.87-.97,10.96-8.22,10.71-.59-.02-1.11-.42-1.26-1-.64-2.35-.67-5.39-.7-8.6,0-1.02-.02-2.05-.05-3.09-4.03.76-8.13,1.36-12.27,1.85-2.1,1.42-4.88,1.93-7.96,1.36-.07,0-.14-.02-.21-.04-.39-.07-.62-.12-.88-.31-.04-.03-.07-.07-.1-.1-7.33.61-14.67.95-21.8,1.25.04-.28.07-.58.13-.84-.48,1.99-.37,4.66.28,6.64,5.49.12,9.8,2.79,11.38,7.13.25.68-.08,1.43-.74,1.71-3.37,1.43-8.14,1.85-13.22,2.23.67,1.95,1.21,3.95,1.49,6.02.25,1.82.3,3.56.21,5.23,7.85.22,12.13,1.6,13.22,4.19,1.29,3.07-2.23,6.18-3.39,7.2-3.85,3.4-9.12,2.49-14.23,1.57-3.65,5.47-9.26,10.05-15.83,14.18.07.21.13.42.22.63,1.81,4.63,5.06,8.12,8.28,8.9,4.48,1.09,7.19-1.16,10.33-3.77,3.76-3.12,8.02-6.66,15.7-4.2,6.02,1.92,8.61,3.7,8.65,5.94.06,3.16-4.92,4.96-11.81,7.44-5.32,1.92-11.35,4.09-13.17,6.59-.13.18-.25.33-.37.48-.53.66-.85,1.06-.33,5.07l.17,1.31c13.44-1.69,25.22-3.35,33.91-4.15l1.49-.17v-.13c-.33-5.08-.25-8.49,3.6-13.01,4-4.69,6.76-6.58,9.3-6.4,2.75.22,4.36,2.89,6.23,5.97.74,1.22,1.5,2.48,2.41,3.75,12.11-10.71,19.86-27.92,20.97-46.6h-.13Z"/>
        <path class="cls-9" d="M335.41,127.98c.23-3.93.1-5.98-.29-9.9-1.37.24-2.53,1.08-3.76,1.99-1.44,1.06-3.09,2.28-5.16,2.28-.54,0-1.11-.1-1.71-.29-1.83,2.42-1.76,3.42-1.61,3.75.67,1.52,5.92,1.81,10.55,2.07l1.86.1h.11Z"/>
        <path class="cls-9" d="M303.42,100.66c.04.39.07.78.09,1.18-.03-.4-.05-.79-.09-1.18"/>
        <path class="cls-9" d="M318.27,95.98c.09-.08.19-.16.28-.24-.1.08-.19.16-.28.24"/>
        <path class="cls-9" d="M319.84,94.73s.01,0,.02-.01c0,0-.01,0-.02.01"/>
        <path class="cls-9" d="M321.25,93.75c.09-.06.19-.12.28-.18-.09.06-.19.12-.28.18"/>
        <path class="cls-9" d="M317.12,97.02s.02-.02.03-.03c0,0-.02.02-.03.03"/>
        <path class="cls-9" d="M314.48,101.22c.08-.3.16-.58.26-.86-.1.27-.18.56-.26.86"/>
        <path class="cls-9" d="M303.55,102.33c.03.48.05.96.06,1.44-.01-.48-.04-.96-.06-1.44"/>
        <path class="cls-9" d="M324.55,91.83c.09-.04.17-.09.26-.13-.09.04-.17.09-.26.13"/>
        <path class="cls-2" d="M326.97,91.99c-.2-.35-.42-.68-.62-1.02h0c-.51.22-1.02.46-1.54.72-.08.04-.17.09-.25.13-1.02.52-2.04,1.11-3.02,1.74-.09.06-.19.12-.28.18-.48.31-.94.64-1.39.97,0,0-.01,0-.02.01-.45.33-.88.67-1.29,1.01-.1.08-.19.16-.28.24-.39.34-.77.67-1.12,1.01,0,0-.02.02-.03.02-.35.34-.66.69-.95,1.03-.07.08-.14.17-.21.25-.28.34-.54.68-.74,1.01-.19.31-.33.67-.47,1.05-.1.28-.18.56-.26.86,5.08-1.43,9.94-3.21,14.51-5.4-.63-1.3-1.3-2.58-2.02-3.83"/>
        <path class="cls-2" d="M303.61,103.77c-.02-.48-.04-.96-.06-1.44,0-.17-.02-.33-.03-.49-.03-.4-.05-.79-.09-1.18-.03-.32-.08-.63-.12-.94-.05-.4-.12-.78-.19-1.16-.07-.36-.14-.72-.23-1.06-.05-.2-.11-.38-.17-.57-.1-.31-.2-.61-.32-.9-.07-.17-.15-.34-.23-.5-.14-.29-.3-.55-.48-.8-.08-.12-.16-.25-.25-.37-.28-.34-.58-.66-.93-.91-1.61-1.16-4.14-1.33-7.51-.51,2.22,3.18,2.61,6.9.92,9.91-.3.54-.67,1.02-1.08,1.46-.06.06-.12.12-.18.18-.4.42-.84.79-1.32,1.12,4.14-.49,8.24-1.09,12.27-1.85h0"/>
        <path class="cls-2" d="M282.2,106.53c-.06-.05-.12-.1-.16-.16-5.74-2.76-12.28-1.37-18.63-.03-.97.2-1.92.41-2.88.6-.06.26-.09.56-.13.84,7.13-.3,14.47-.64,21.8-1.25"/>
        <path class="cls-9" d="M240.01,152.2c-1.32,1.98-1.68,4.92-1.07,8.11,5.53-3.56,10.29-7.45,13.57-11.95-4.94-.75-9.45-.74-12.5,3.84"/>
        <path class="cls-9" d="M182.23,196.34l-.1-.82-.21-1.34c-.88-5.6-.85-10.55-.83-15.34,0-1.73,0-3.52-.03-5.33-1.17-.27-2.35-.56-3.55-.85-6.75-1.66-14.4-3.54-17.2-1.55-.61.44-.96,1.06-1.09,1.96.78,2.78,1.18,5.41-1.37,7.19.56,3.8.44,7.97-.36,12.44l-.22,1.25c8.06,1.4,16.11,2.14,24.96,2.43v-.04Z"/>
        <path class="cls-9" d="M184.94,196.44c24.06.79,47.83-1.93,69.74-4.66l-.17-1.3c-.61-4.68-.22-5.72.9-7.11.09-.12.19-.24.3-.38,2.31-3.17,8.48-5.4,14.44-7.55,3.51-1.27,10.05-3.62,10.02-4.84,0-.01-.21-1.31-6.77-3.41-6.27-2-9.61.77-13.15,3.71-3.23,2.68-6.9,5.72-12.7,4.31-4.11-1-8.01-5.04-10.16-10.54-.02-.06-.04-.12-.06-.18-5.93,3.52-12.49,6.73-18.99,9.91-8.02,3.92-15.6,7.62-21.76,11.79-2.04,1.38-3.98,2.44-5.69,3.37-3.86,2.1-5.88,3.3-5.92,5.49l-.03,1.35v.04Z"/>
        <path class="cls-9" d="M309.57,174.94c-1.48-2.45-2.76-4.56-4.13-4.67-1.47-.12-3.83,1.72-7.02,5.46-3.08,3.62-3.28,6.15-2.98,11,6.55-1.14,11.56-3.36,16.78-7.69l-.04-.05c-1.01-1.39-1.86-2.8-2.61-4.05"/>
        <path class="cls-9" d="M255.43,124.86c-6.89.54-13.67,1.3-16.91,4.56-3.4,3.43-3.15,4.86-2.99,5.21.48,1.08,3.41,2.1,10.14,1.77.19,0,.53-.03,1.01-.07,3.98-.29,7.47-.45,10.53-.46.1-1.55.05-3.16-.17-4.84-.28-2.11-.86-4.16-1.6-6.17"/>
        <path class="cls-9" d="M152.12,135.01c.03.2.06.41.1.62-.04-.22-.07-.43-.1-.62"/>
        <path class="cls-9" d="M146.54,191.45l.36-1.31c.81-2.97.85-4.94.88-6.38.04-1.73.07-3.37,2.18-4.01.6-11.35-.89-11.64-6.04-12.62-.66-.13-1.37-.26-2.13-.43-5.09-1.11-7.99-.16-13.53,1.92-2.49.94-4.69.69-6.63.46-2.37-.27-4.25-.48-6.56,1.19-.18.13-.36.24-.53.32l-1.13.8c.73.92,1.5,1.84,2.31,2.78,7.45,8.6,17.75,13.94,30.8,17.37l.02-.09Z"/>
        <path class="cls-9" d="M149.13,192.21c2.39.63,2.96.72,5.48,1.21l.22-1.21c.81-4.51.88-8.69.21-12.4-.1-.59.19-1.18.72-1.45,1.28-.65,1.85-1.12.79-4.81-.05-.16-.06-.33-.05-.5.17-1.81.92-3.21,2.24-4.15,3.81-2.72,11.39-.85,19.42,1.12.92.23,1.86.46,2.81.68-.02-.37-.01-.73-.04-1.11-.23-3.89-.36-7.51-.16-10.96-3.39-.88-6.42-2.38-9.35-3.85-4.53-2.27-8.81-4.41-14-4.03-.72.03-1.32-.44-1.44-1.13-.12-.76-.71-2.74-1.34-4.84-.32-1.09-.62-2.1-.9-3.07-2.75.24-5.52.47-8.3.67.4,1.88.93,3.29,1.36,4.46,1.17,3.13,1.64,5.03-2.28,7.74-3.55,2.46-16.6,6.37-23.24,6.37-.68,0-1.3-.04-1.83-.13-1.62-.27-3.01-1.42-4.23-2.42-.88-.73-1.79-1.47-2.51-1.66-.9,1.79-1.63,2.4-3.21,2.29-.48-.03-1.03-.07-2.2.53l-1.2.62-.06.03c1.81,3.97,2.41,4.76,5.71,9.03l.04-.03,1.11-.78c.17-.12.34-.22.5-.3l.08-.05c3.16-2.29,5.97-1.97,8.46-1.69,1.79.21,3.48.4,5.36-.31,5.4-2.03,8.96-3.36,15.06-2.03.73.16,1.42.29,2.07.41,6.84,1.3,8.99,2.87,8.17,16.48-.04.66-.55,1.19-1.21,1.27-.66.07-.82.17-.84.18-.04.12-.06.84-.07,1.41-.03,1.49-.08,3.74-.98,7.04l-.36,1.3v.05Z"/>
        <path class="cls-9" d="M152.01,133.69c0-.26.01-.51.05-.71-.04.2-.05.44-.05.71"/>
        <path class="cls-9" d="M152.32,136.18c.04.2.09.42.14.64-.05-.22-.1-.43-.14-.64"/>
        <path class="cls-9" d="M153.27,140.02c.02.08.04.15.06.23-.02-.08-.04-.15-.06-.23"/>
        <path class="cls-9" d="M144.27,99.68c.19.19.37.41.56.62-.19-.21-.37-.42-.56-.62"/>
        <path class="cls-9" d="M146.1,101.79c-.17-.22-.34-.43-.51-.64.17.21.34.42.51.64"/>
        <path class="cls-9" d="M186.13,81.46c-.1.29-.22.56-.35.81.13-.25.25-.52.35-.81"/>
        <path class="cls-9" d="M185.61,82.58c-.2.32-.41.63-.66.89.25-.26.47-.57.66-.89"/>
        <path class="cls-9" d="M144.83,135.88c0-.32,0-.65.02-.99,0,.34-.01.67-.02.99"/>
        <path class="cls-9" d="M152.02,133.99c0,.19.02.38.04.59-.02-.21-.04-.4-.04-.59"/>
        <path class="cls-9" d="M144.86,134.34c.01-.36.04-.74.06-1.12-.02.38-.04.75-.06,1.12"/>
        <path class="cls-9" d="M118.1,129.2c-.15.01-.32.01-.48.02.16,0,.33-.01.48-.02"/>
        <path class="cls-9" d="M144.94,138.88c-.03-.37-.05-.75-.07-1.15.02.4.04.78.07,1.15"/>
        <path class="cls-9" d="M145.45,142.38c-.21-.99-.39-2.12-.5-3.4.11,1.29.29,2.41.5,3.4"/>
        <path class="cls-9" d="M144.85,137.36c-.01-.32-.02-.65-.02-.99,0,.34.01.67.02.99"/>
        <path class="cls-9" d="M186.55,79.79c-.07.47-.17.9-.3,1.31.12-.41.23-.84.3-1.31"/>
        <path class="cls-9" d="M144.95,132.7c.04-.56.09-1.14.16-1.75-.07.61-.12,1.19-.16,1.75"/>
        <path class="cls-9" d="M147.34,103.47c-.14-.2-.28-.39-.42-.58.14.19.28.38.42.58"/>
        <path class="cls-9" d="M143.55,98.98c-.44-.42-.88-.81-1.32-1.18.44.37.88.76,1.32,1.18"/>
        <path class="cls-9" d="M106.67,128.6c-.17-.03-.35-.05-.52-.08.18.03.35.05.52.08"/>
        <path class="cls-9" d="M141.85,97.48c-.31-.25-.63-.48-.94-.71.31.23.63.46.94.71"/>
        <path class="cls-9" d="M140.61,96.56c-.34-.24-.69-.47-1.03-.68.34.21.69.44,1.03.68"/>
        <path class="cls-9" d="M108.88,128.89c-.22-.03-.45-.05-.67-.08.22.03.45.05.67.08"/>
        <path class="cls-9" d="M112.95,129.22c-.24-.01-.48-.02-.73-.04.24.01.49.03.73.04"/>
        <path class="cls-9" d="M114.82,129.28c-.23,0-.46,0-.7-.01.23,0,.47.01.7.01"/>
        <path class="cls-9" d="M116.54,129.27c-.2,0-.42,0-.63,0,.21,0,.43,0,.63,0"/>
        <path class="cls-9" d="M110.96,129.1c-.24-.02-.47-.04-.71-.06.24.02.48.04.71.06"/>
        <path class="cls-9" d="M188.39,108.43c.33-.13.65-.25.96-.36-.31.11-.64.23-.96.36"/>
        <path class="cls-9" d="M194.23,107.79c.14.1.26.23.37.39-.11-.15-.23-.29-.37-.39"/>
        <path class="cls-9" d="M193.64,107.5c.22.07.42.16.59.28-.17-.13-.37-.21-.59-.28"/>
        <path class="cls-9" d="M194.65,108.25c.09.14.18.3.25.48-.07-.18-.15-.34-.25-.48"/>
        <path class="cls-8" d="M153.34,140.25c-.02-.08-.04-.15-.06-.23-.33-1.19-.6-2.26-.81-3.21-.05-.22-.1-.43-.14-.64-.04-.19-.07-.37-.1-.55-.04-.22-.07-.42-.1-.62-.02-.15-.04-.3-.06-.43-.02-.21-.04-.4-.04-.59,0-.1-.01-.21-.01-.3,0-.27.01-.51.05-.71.13-.65.79-1.07,1.37-1.09,4.64.13,9.82-5.24,13.64-9.16l1.31-1.34c2.6-2.63,5.48-.74,7.39.5,1.77,1.16,2.69,1.65,3.42,1.14,1.17-.82,1.9-2.04,2.67-3.34.83-1.4,1.78-2.98,3.4-4.21,2.01-1.53,4.39-1.32,6.5-1.15,1.13.1,2.22.19,3.11,0,.46-2.51.47-4.4.04-5.56.15.42.25.93.29,1.54-3.29-.13-6.51-.34-9.61-.65.88-.42,1.75-.81,2.58-1.15-2.79,1.12-5.93,2.84-8.42,4.21-3.15,1.73-5.88,3.23-7.9,3.8-7.78,5.68-13.22,4.19-15.79,2.79-.5-.27-.78-.83-.69-1.39.13-.8.29-1.75.47-2.8.91-5.3,2.42-14.17,1.21-17.44-.2-.54-.03-1.15.41-1.51,2.44-2,2.9-2.7,3.13-3.03.48-.72.85-.93,2.19-1.5,1.08-.46,2.37-1.48,3.62-2.48-.31.25-.62.5-.94.74.65-1.7,1.41-3.56,2.18-5.49-8.48,2.67-18.45,6.5-28.06,11.48h0c.34.22.69.44,1.03.68.1.07.2.14.3.21.32.23.63.46.94.71.13.1.25.21.38.31.44.37.88.76,1.32,1.18.24.23.48.46.72.7.19.19.37.41.56.61.25.28.5.56.75.86.17.21.34.42.51.64.28.35.55.71.82,1.09.14.19.28.38.42.58.41.59.81,1.21,1.21,1.86.18.3.24.66.16,1.01-1.35,5.76-1.81,7.75-2.33,8.46-.22,1-.67,3.22-1.29,6.31-.1.48-.45.88-.92,1.02-.47.15-.98.03-1.34-.31-.63-.38-4-.52-6.23-.61-3.22-.13-5.43-.24-6.81-.7-5.32,4.76-11.94,3.41-17.81,2.21-1.54-.31-3.04-.61-4.49-.82-1.33,2.01-2.47,4.09-3.41,6.24.68.14,1.37.26,2.06.37.17.03.35.05.52.08.52.08,1.03.15,1.54.22.22.03.45.05.67.08.46.05.92.1,1.37.14.24.02.48.04.71.06.43.03.85.06,1.26.09.25.01.49.03.73.04.4.02.79.03,1.17.04.23,0,.47.01.7.01.38,0,.74,0,1.09,0,.21,0,.43,0,.63,0,.37,0,.72-.03,1.07-.04.16,0,.33-.01.49-.02.49-.03.95-.07,1.37-.13,4.98-.62,8.74-.21,12.38.2,3.65.4,7.09.78,11.75.2.41-.05.82.09,1.12.38.3.29.44.7.4,1.11-.07.61-.12,1.19-.16,1.75-.01.18-.02.35-.03.52-.02.38-.05.76-.06,1.12,0,.19-.01.37-.02.55,0,.34-.01.67-.02.99,0,.16,0,.33,0,.49,0,.34.01.67.02.99,0,.12,0,.25.01.37.02.4.04.78.07,1.15,0,.03,0,.07,0,.1.11,1.29.29,2.41.5,3.4,2.78-.19,5.55-.42,8.3-.67-.15-.5-.28-.99-.42-1.46"/>
        <path class="cls-9" d="M190.73,107.65c.35-.09.69-.16,1.01-.21-.32.05-.66.12-1.01.21"/>
        <path class="cls-9" d="M189.63,107.98c.33-.11.65-.2.96-.29-.31.08-.63.18-.96.29"/>
        <path class="cls-9" d="M192.89,107.38c.19,0,.37.04.53.07-.17-.04-.34-.06-.53-.07"/>
        <path class="cls-9" d="M191.94,107.42c.24-.03.47-.05.69-.05-.22,0-.45.02-.69.05"/>
        <path class="cls-4" d="M184.16,80.21c-3.9.65-9.73,2.05-16.52,4.19-.77,1.93-1.53,3.79-2.18,5.49.31-.24.63-.49.94-.74,2.04-1.62,4.14-3.29,6.35-3.48,1.01-.08,2.13-.1,3.27-.1,3.42-.03,6.96-.06,8.92-2.1.25-.26.47-.57.66-.89.06-.1.11-.2.17-.31.13-.25.25-.52.35-.81.04-.12.09-.24.13-.37.12-.41.23-.84.3-1.31h0c-.81.15-1.61.29-2.39.42"/>
        <path class="cls-4" d="M195.2,110.31c-.04-.6-.14-1.12-.29-1.53,0-.01,0-.03-.01-.04-.07-.18-.16-.34-.25-.48-.01-.02-.03-.06-.04-.08-.11-.16-.23-.29-.37-.39-.17-.13-.37-.21-.59-.28-.07-.02-.14-.03-.22-.05-.17-.04-.34-.06-.53-.07-.09,0-.17,0-.26,0-.22,0-.45.02-.69.05-.07,0-.13,0-.19.02-.32.05-.66.12-1.01.21-.05.01-.1.03-.15.04-.31.08-.63.18-.96.29-.09.03-.19.06-.28.1-.31.11-.64.23-.96.35-.07.03-.14.06-.22.09-.84.34-1.71.73-2.58,1.15,3.1.31,6.32.52,9.61.65"/>
        <path class="cls-9" d="M138.97,98.68c.12.08.25.17.37.26-.12-.09-.25-.17-.37-.26"/>
        <path class="cls-9" d="M137.83,97.95c.08.05.16.09.24.14-.08-.05-.16-.1-.24-.14"/>
        <path class="cls-9" d="M109.24,119.46c1.1.19,2.2.4,3.29.62-1.09-.22-2.19-.43-3.29-.62"/>
        <path class="cls-9" d="M140.15,99.55c.16.12.31.25.46.38-.15-.13-.31-.26-.46-.38"/>
        <path class="cls-9" d="M141.33,100.56c.18.17.36.34.54.52-.18-.18-.36-.35-.54-.52"/>
        <path class="cls-9" d="M143.67,103.06c.24.3.48.62.72.94-.24-.32-.48-.64-.72-.94"/>
        <path class="cls-9" d="M144.81,104.56c.38.54.76,1.1,1.13,1.7-.37-.6-.75-1.16-1.13-1.7"/>
        <path class="cls-9" d="M142.5,101.73c.2.22.41.45.61.68-.2-.23-.4-.47-.61-.68"/>
        <path class="cls-8" d="M109.24,119.46c1.1.19,2.2.4,3.29.62,5.98,1.22,11.64,2.38,16.04-2.13.5-.52,1.32-.55,1.86-.07.64.4,4.04.54,6.29.63,2.67.11,4.66.21,6.04.5.84-4.16,1.17-5.68,1.57-6.25.2-.69.65-2.37,1.62-6.49-.37-.6-.75-1.16-1.13-1.7-.14-.2-.28-.37-.42-.56-.24-.32-.48-.64-.72-.94-.18-.22-.37-.43-.55-.64-.2-.23-.4-.47-.61-.68-.21-.23-.42-.44-.64-.65-.18-.18-.36-.35-.54-.52-.24-.22-.47-.43-.71-.63-.15-.13-.31-.26-.46-.38-.27-.21-.53-.42-.8-.61-.12-.09-.25-.17-.37-.26-.3-.2-.6-.4-.91-.59-.08-.05-.16-.1-.24-.14-.35-.2-.69-.4-1.04-.58-10.8,5.89-20.88,13.26-27.55,22.09"/>
        <path class="cls-9" d="M142.14,136.02c0-.22-.01-.42,0-.65,0,.23,0,.43,0,.65"/>
        <path class="cls-9" d="M116.68,131.97c.42-.01.82-.03,1.21-.05-.39.02-.79.04-1.21.05"/>
        <path class="cls-9" d="M112.69,131.93c.53.02,1.04.04,1.54.05-.5,0-1.01-.03-1.54-.05"/>
        <path class="cls-9" d="M106.07,157.16c1.86-.96,2.98-.87,3.65-.82.04,0,.07,0,.11,0,.12-.16.37-.55.81-1.5.17-.37.5-.65.9-.75,2.11-.53,3.87.93,5.42,2.21,1.01.83,2.05,1.69,2.96,1.84,4.81.81,19.73-3.48,23.08-5.8,2.37-1.64,2.27-1.92,1.28-4.57-.48-1.27-1.09-2.95-1.54-5.23h0c-14.31.91-28.73.99-41.52-.79,0,5.04,1.11,10.37,3.66,16.02l1.19-.62Z"/>
        <path class="cls-9" d="M110.35,131.78c.63.05,1.24.09,1.85.13-.6-.03-1.22-.07-1.85-.13"/>
        <path class="cls-9" d="M118.35,131.89c.52-.04,1-.08,1.45-.13-.44.05-.93.1-1.45.13"/>
        <path class="cls-9" d="M103.07,130.73h0c2.34.5,4.72.83,7,1.03-2.28-.2-4.67-.53-7-1.03"/>
        <path class="cls-9" d="M116.12,131.98c-.43,0-.88,0-1.34,0,.46,0,.9,0,1.34,0"/>
        <path class="cls-9" d="M142.18,138.08c0,.16.03.31.04.47,0-.16-.03-.31-.04-.47"/>
        <path class="cls-9" d="M142.39,140.47c0,.07.02.14.03.21,0-.07-.02-.14-.03-.21"/>
        <path class="cls-8" d="M142.73,142.56h0c-.12-.58-.22-1.21-.31-1.88,0-.07-.02-.14-.03-.21-.07-.6-.13-1.25-.17-1.92-.01-.16-.03-.3-.04-.47-.04-.64-.04-1.34-.04-2.06,0-.22-.01-.42,0-.65.01-.95.06-1.96.14-3.05-4.17.35-7.49-.01-10.72-.37-3.65-.4-7.09-.78-11.75-.2-.44.05-.93.1-1.45.13-.15.01-.31.02-.47.02-.39.02-.79.04-1.21.05-.18,0-.37,0-.56,0-.43,0-.88.01-1.34,0-.18,0-.37,0-.56,0-.5,0-1.01-.03-1.54-.05-.16,0-.32-.01-.49-.02-.61-.03-1.22-.07-1.85-.13-.1,0-.19-.01-.28-.02-2.28-.2-4.66-.53-7-1.03-1.22,3.5-1.85,7.19-1.85,11.04,12.78,1.78,27.2,1.7,41.52.79"/>
      </g>
    </g>
    <g>
      <path class="cls-3" d="M1.8,329.1l1.23-1.94c.8.66,1.61,1.21,2.44,1.65.83.44,1.68.77,2.55.99.87.22,1.76.32,2.66.32,1.39,0,2.61-.24,3.67-.73,1.05-.49,1.87-1.16,2.47-2.02s.89-1.86.89-2.98c0-1.2-.33-2.19-.98-2.97s-1.49-1.44-2.52-1.98c-1.03-.54-2.11-1.05-3.27-1.53-.92-.39-1.84-.81-2.73-1.24-.9-.44-1.72-.95-2.45-1.53-.73-.58-1.32-1.28-1.76-2.09-.44-.81-.66-1.79-.66-2.94,0-1.46.37-2.74,1.1-3.85.73-1.11,1.75-1.97,3.05-2.59,1.3-.62,2.8-.93,4.51-.93,1.14,0,2.28.15,3.41.44,1.13.29,2.22.72,3.26,1.29l-1.04,2.07c-.89-.51-1.81-.9-2.76-1.17s-1.9-.41-2.84-.41c-1.2,0-2.26.21-3.18.63-.92.42-1.64,1-2.16,1.75-.52.75-.78,1.61-.78,2.6,0,1.08.31,1.98.92,2.7.61.72,1.41,1.34,2.37,1.85s1.99,1.01,3.07,1.49c.98.42,1.93.86,2.88,1.33.94.47,1.8,1.02,2.57,1.64.77.63,1.39,1.38,1.85,2.25.46.87.69,1.92.69,3.15,0,1.58-.4,2.98-1.2,4.18-.8,1.2-1.91,2.14-3.32,2.81-1.42.67-3.07,1.01-4.96,1.01-1.65,0-3.23-.27-4.74-.82-1.51-.54-2.93-1.35-4.26-2.43Z"/>
      <path class="cls-3" d="M27.94,331.77h-2.34v-28.49h2.34v20.88l1.35-1.63,9.25-9.74h2.93l-7.71,8.19,8.96,10.81h-3.02l-7.56-9.1-4.2,4.46v4.63Z"/>
      <path class="cls-3" d="M48.23,306.11c-.44,0-.81-.16-1.11-.46-.3-.31-.45-.69-.45-1.13s.15-.8.45-1.1c.3-.3.67-.46,1.11-.46s.84.15,1.15.46c.31.3.47.67.47,1.1s-.16.82-.47,1.13c-.31.31-.69.46-1.15.46ZM49.4,331.77h-2.34v-18.99h2.34v18.99Z"/>
      <path class="cls-3" d="M73.17,331.77h-2.34v-10.86c0-1.98-.53-3.53-1.6-4.66-1.06-1.13-2.53-1.7-4.39-1.7-1.3,0-2.46.28-3.46.84-1,.56-1.78,1.36-2.35,2.38-.56,1.03-.85,2.24-.85,3.63v10.37h-2.34v-18.99h2.07l.08,3.57c.66-1.28,1.61-2.26,2.87-2.93,1.25-.68,2.7-1.02,4.35-1.02,2.46,0,4.39.74,5.81,2.22,1.42,1.48,2.13,3.5,2.13,6.06v11.09Z"/>
      <path class="cls-3" d="M78.45,331.77v-28.49h10.41c2.94,0,5.23.64,6.89,1.93s2.48,3.07,2.48,5.35c0,1.48-.35,2.78-1.06,3.9-.71,1.12-1.66,1.95-2.85,2.5,1.66.46,2.96,1.28,3.89,2.47.94,1.19,1.41,2.65,1.41,4.39,0,1.6-.39,2.99-1.18,4.19-.79,1.2-1.89,2.12-3.31,2.78-1.42.66-3.1.99-5.02.99h-11.64ZM83.46,315.42h5.13c1.44,0,2.58-.35,3.42-1.05.84-.7,1.25-1.66,1.25-2.86s-.43-2.11-1.28-2.79c-.85-.68-2.02-1.03-3.5-1.03h-5.01v7.73ZM83.46,327.37h5.41c1.14,0,2.13-.17,2.96-.52.84-.35,1.48-.84,1.95-1.46s.69-1.36.69-2.21-.22-1.54-.65-2.14c-.43-.6-1.04-1.06-1.82-1.39-.79-.32-1.72-.48-2.81-.48h-5.74v8.21Z"/>
      <path class="cls-3" d="M105.85,307.75c-.66,0-1.21-.23-1.66-.69-.45-.46-.67-1.02-.67-1.68s.22-1.2.67-1.66c.45-.46,1-.69,1.66-.69s1.23.23,1.69.69c.46.46.68,1.02.68,1.66s-.23,1.22-.68,1.68c-.46.46-1.02.69-1.69.69ZM108.19,331.77h-4.67v-18.99h4.67v18.99Z"/>
      <path class="cls-3" d="M122.11,332.15c-1.92,0-3.65-.43-5.18-1.29-1.53-.86-2.73-2.04-3.61-3.52-.88-1.49-1.32-3.17-1.32-5.06s.44-3.57,1.32-5.06c.88-1.49,2.08-2.66,3.61-3.52s3.25-1.29,5.18-1.29,3.67.43,5.19,1.29,2.71,2.04,3.58,3.52c.87,1.49,1.3,3.17,1.3,5.06s-.43,3.57-1.3,5.06c-.87,1.49-2.06,2.66-3.58,3.52-1.52.86-3.25,1.29-5.19,1.29ZM122.09,327.96c1.01,0,1.92-.25,2.72-.74s1.43-1.17,1.89-2.03c.46-.86.69-1.84.69-2.92s-.23-2.04-.69-2.9c-.46-.85-1.09-1.53-1.89-2.02s-1.7-.74-2.72-.74-1.9.25-2.71.74-1.44,1.17-1.9,2.02c-.46.86-.69,1.82-.69,2.9s.23,2.06.69,2.92,1.1,1.54,1.9,2.03,1.71.74,2.71.74Z"/>
      <path class="cls-3" d="M166.58,331.77h-4.67v-9.74c0-1.72-.36-3.06-1.07-4.02-.72-.96-1.73-1.43-3.03-1.43s-2.35.48-3.09,1.44c-.74.96-1.11,2.3-1.11,4.01v9.74h-4.67v-9.74c0-1.72-.36-3.06-1.08-4.02-.72-.96-1.73-1.43-3.02-1.43s-2.36.48-3.11,1.44c-.74.96-1.11,2.3-1.11,4.01v9.74h-4.67v-18.99h3.74l.17,3.23c.65-1.18,1.5-2.07,2.57-2.69,1.07-.61,2.33-.92,3.79-.92s2.81.33,3.9.98c1.09.65,1.93,1.59,2.52,2.8.63-1.24,1.5-2.18,2.6-2.82,1.1-.64,2.4-.96,3.89-.96,2.34,0,4.17.74,5.48,2.23,1.31,1.49,1.97,3.56,1.97,6.2v10.94Z"/>
      <path class="cls-3" d="M188.48,329.57c-2.37,1.72-4.96,2.58-7.77,2.58-2.04,0-3.87-.44-5.49-1.33-1.62-.89-2.9-2.09-3.85-3.63-.94-1.53-1.42-3.27-1.42-5.21,0-1.84.43-3.48,1.28-4.92.85-1.44,2.03-2.58,3.51-3.42,1.49-.84,3.17-1.25,5.04-1.25s3.66.46,5.14,1.38,2.62,2.19,3.45,3.82c.82,1.63,1.23,3.52,1.23,5.67v.61h-14.63c.23.86.63,1.62,1.21,2.28s1.29,1.17,2.16,1.54,1.83.55,2.91.55c2.03,0,3.9-.66,5.62-1.97l1.6,3.3ZM174.8,321.14h10.48c-.1-.95-.39-1.78-.86-2.49-.48-.71-1.09-1.26-1.84-1.66-.75-.4-1.6-.6-2.54-.6s-1.8.2-2.54.61c-.75.41-1.35.97-1.82,1.68-.47.72-.76,1.54-.87,2.46Z"/>
      <path class="cls-3" d="M218.36,331.77h-2.72l-19.15-24.65v24.65h-2.51v-28.49h2.72l19.15,24.65v-24.65h2.51v28.49Z"/>
      <path class="cls-3" d="M232.98,332.15c-1.87,0-3.56-.43-5.05-1.29-1.5-.86-2.67-2.04-3.53-3.52-.86-1.49-1.29-3.17-1.29-5.06s.43-3.55,1.29-5.04c.86-1.49,2.04-2.67,3.53-3.53,1.49-.87,3.17-1.3,5.03-1.3s3.55.43,5.03,1.3c1.48.87,2.65,2.05,3.51,3.53.86,1.49,1.29,3.17,1.29,5.04s-.43,3.56-1.29,5.05-2.03,2.67-3.51,3.53c-1.48.86-3.15,1.29-5.01,1.29ZM232.96,330.05c1.42,0,2.69-.34,3.81-1.03,1.12-.68,2.01-1.61,2.66-2.77.65-1.17.98-2.49.98-3.97s-.33-2.8-.98-3.97c-.65-1.17-1.54-2.09-2.66-2.77-1.12-.68-2.39-1.03-3.81-1.03s-2.69.34-3.82,1.03-2.02,1.61-2.67,2.77c-.65,1.17-.98,2.49-.98,3.97s.33,2.8.98,3.97c.65,1.17,1.54,2.09,2.67,2.77s2.4,1.03,3.82,1.03Z"/>
      <path class="cls-3" d="M264.36,331.77h-2.07l-.08-3.57c-.67,1.28-1.59,2.26-2.76,2.93-1.17.68-2.57,1.02-4.21,1.02-2.51,0-4.48-.76-5.92-2.29-1.44-1.53-2.16-3.62-2.16-6.3v-10.79h2.34v10.64c0,2.03.55,3.63,1.65,4.82,1.1,1.18,2.59,1.78,4.46,1.78s3.49-.62,4.65-1.87c1.17-1.25,1.75-2.91,1.75-4.99v-10.37h2.34v18.99Z"/>
      <path class="cls-3" d="M272.97,331.77h-2.34v-18.99h2.07l.1,4.2c.63-1.47,1.57-2.6,2.82-3.39,1.25-.79,2.71-1.19,4.38-1.19.3,0,.62.02.94.05.32.03.64.08.96.14l-.29,2.11c-.62-.13-1.24-.19-1.86-.19-1.32,0-2.49.32-3.51.97s-1.83,1.54-2.4,2.67c-.58,1.13-.86,2.44-.86,3.92v9.71Z"/>
      <path class="cls-3" d="M286.83,306.11c-.44,0-.81-.16-1.11-.46-.3-.31-.45-.69-.45-1.13s.15-.8.45-1.1c.3-.3.67-.46,1.11-.46s.84.15,1.15.46c.31.3.47.67.47,1.1s-.16.82-.47,1.13-.69.46-1.15.46ZM288.01,331.77h-2.34v-18.99h2.34v18.99Z"/>
      <path class="cls-3" d="M293.14,330.12l.68-2.17c.47.43.99.8,1.57,1.1.58.3,1.18.54,1.8.7.63.17,1.26.25,1.91.25,1.29,0,2.34-.32,3.15-.95.81-.63,1.22-1.46,1.22-2.47,0-.72-.2-1.31-.61-1.78-.41-.46-.94-.86-1.6-1.19s-1.35-.64-2.09-.93c-.85-.33-1.68-.7-2.49-1.11-.81-.41-1.48-.95-2-1.6-.53-.66-.79-1.53-.79-2.6,0-1.01.25-1.89.75-2.63.5-.74,1.2-1.32,2.11-1.73.91-.41,1.95-.62,3.14-.62,1.71,0,3.39.42,5.05,1.25l-.72,2.11c-.39-.24-.84-.45-1.33-.64s-1-.33-1.52-.43c-.52-.1-1.01-.15-1.48-.15-1.08,0-1.94.26-2.6.77-.66.51-.99,1.19-.99,2.02,0,.54.15,1.02.45,1.42.3.4.75.77,1.36,1.11.61.34,1.37.7,2.28,1.08.87.35,1.73.76,2.56,1.21.84.45,1.53,1.02,2.08,1.72s.83,1.6.83,2.72-.28,2.05-.84,2.9c-.56.84-1.34,1.5-2.34,1.97-.99.47-2.15.7-3.47.7-2.19,0-4.22-.68-6.08-2.03Z"/>
      <path class="cls-3" d="M310.8,331.77v-28.49h2.34v12.9c1.37-2.52,3.68-3.78,6.95-3.78,2.52,0,4.49.75,5.9,2.26,1.41,1.51,2.12,3.62,2.12,6.32v10.79h-2.34v-10.31c0-2.19-.55-3.9-1.65-5.12s-2.63-1.83-4.6-1.83-3.53.62-4.67,1.86-1.71,2.94-1.71,5.09v10.31h-2.34Z"/>
      <path class="cls-3" d="M363.78,331.77h-2.34v-10.31c0-2.19-.49-3.9-1.48-5.12-.99-1.22-2.37-1.83-4.14-1.83s-3.19.62-4.22,1.85c-1.03,1.24-1.54,2.93-1.54,5.1v10.31h-2.34v-10.31c0-2.19-.49-3.9-1.48-5.12-.99-1.22-2.38-1.83-4.16-1.83s-3.19.62-4.22,1.85c-1.03,1.24-1.54,2.93-1.54,5.1v10.31h-2.34v-18.99h1.94l.09,3.74c.61-1.36,1.47-2.38,2.59-3.08,1.12-.7,2.46-1.04,4.02-1.04,1.68,0,3.11.41,4.27,1.22s2,1.97,2.51,3.48c.57-1.53,1.44-2.7,2.61-3.5s2.6-1.2,4.28-1.2c2.36,0,4.19.75,5.5,2.26s1.97,3.62,1.97,6.32v10.79Z"/>
      <path class="cls-3" d="M386.23,329.4c-2.33,1.84-4.91,2.75-7.75,2.75-1.96,0-3.72-.44-5.27-1.32-1.55-.88-2.77-2.08-3.66-3.6-.89-1.52-1.33-3.24-1.33-5.17s.42-3.52,1.24-4.98,1.97-2.6,3.41-3.44c1.44-.84,3.08-1.25,4.92-1.25s3.5.44,4.92,1.32c1.42.88,2.53,2.1,3.32,3.65.8,1.55,1.2,3.35,1.2,5.38v.59h-16.49c.15,1.33.59,2.5,1.31,3.5s1.66,1.78,2.8,2.34c1.15.56,2.43.84,3.85.84,2.33,0,4.47-.77,6.42-2.32l1.1,1.71ZM370.67,321.33h14.38c-.11-1.35-.49-2.54-1.12-3.55-.63-1.01-1.47-1.8-2.5-2.37-1.03-.57-2.21-.85-3.52-.85s-2.52.29-3.58.85c-1.06.57-1.91,1.36-2.54,2.38s-1.01,2.2-1.11,3.54Z"/>
      <path class="cls-3" d="M409.29,331.77h-2.34v-10.86c0-1.98-.53-3.53-1.6-4.66-1.06-1.13-2.53-1.7-4.39-1.7-1.3,0-2.46.28-3.46.84-1,.56-1.78,1.36-2.35,2.38-.56,1.03-.84,2.24-.84,3.63v10.37h-2.34v-18.99h2.07l.08,3.57c.66-1.28,1.61-2.26,2.87-2.93,1.25-.68,2.7-1.02,4.35-1.02,2.46,0,4.39.74,5.81,2.22,1.42,1.48,2.13,3.5,2.13,6.06v11.09Z"/>
      <path class="cls-3" d="M425.13,331.34c-1.15.54-2.29.82-3.42.82-1.06,0-1.99-.23-2.78-.7-.79-.47-1.41-1.13-1.85-1.97-.44-.85-.67-1.84-.67-2.96v-11.62h-3.32v-2.11h3.42v-4.75h2.24v4.75h5.81v2.11h-5.81v11.21c0,1.19.32,2.15.95,2.87.63.72,1.47,1.08,2.51,1.08.82,0,1.65-.24,2.49-.72l.44,2.01Z"/>
    </g>
  </g>
</svg>