<?xml version="1.0" encoding="UTF-8"?>
<svg id="Logo_Text_Pure_Colours" data-name="Logo + Text + Pure Colours" xmlns="http://www.w3.org/2000/svg" xmlns:xlink="http://www.w3.org/1999/xlink" viewBox="0 0 477.42 149.14">
  <defs>
    <style>
      .cls-1 {
        fill: #f47d5e;
      }

      .cls-2 {
        fill: #7bb65c;
      }

      .cls-3 {
        fill: #fff;
      }

      .cls-4 {
        fill: #886b4d;
      }

      .cls-5 {
        fill: #be7346;
      }

      .cls-6 {
        fill: none;
      }

      .cls-7 {
        clip-path: url(#clippath-1);
      }

      .cls-8 {
        fill: #876c66;
      }

      .cls-9 {
        fill: #6bbbcc;
      }

      .cls-10 {
        fill: #c2ca53;
      }

      .cls-11 {
        clip-path: url(#clippath);
      }
    </style>
    <clipPath id="clippath">
      <rect class="cls-6" x="309.35" y="1.02" width="168.07" height="104.51"/>
    </clipPath>
    <clipPath id="clippath-1">
      <rect class="cls-6" x="309.35" y="1.02" width="168.07" height="104.51"/>
    </clipPath>
  </defs>
  <path class="cls-3" d="M330.94,126.06c0-4.77-1.18-8.5-3.55-11.19-2.36-2.68-5.66-4.03-9.88-4.03-2.7,0-5.04.58-7.02,1.73-1.99,1.15-3.55,2.85-4.69,5.09-1.05-2.19-2.56-3.88-4.54-5.05-1.98-1.18-4.32-1.76-7.04-1.76s-4.9.55-6.83,1.66-3.48,2.72-4.64,4.85l-.31-5.82h-6.75v34.26h8.43v-17.57c0-3.08.67-5.49,2-7.23,1.34-1.74,3.2-2.6,5.6-2.6s4.14.86,5.45,2.59c1.3,1.72,1.95,4.14,1.95,7.24v17.57h8.43v-17.57c0-3.08.67-5.49,2-7.23,1.34-1.74,3.19-2.6,5.57-2.6s4.17.86,5.46,2.59c1.29,1.72,1.94,4.14,1.94,7.24v17.57h8.43v-19.73ZM255.5,129.45c0-2.19.42-4.12,1.27-5.77.84-1.66,2.03-2.95,3.55-3.89,1.52-.94,3.28-1.4,5.29-1.4,1.33,0,2.7.21,4.11.62l1.03-7.61c-.71-.18-1.42-.32-2.14-.41-.72-.09-1.42-.14-2.11-.14-2.63,0-4.95.61-6.97,1.82-2.02,1.21-3.63,2.91-4.81,5.1l-.31-6.24h-7.33v34.26h8.43v-16.34ZM215.14,122.17c.85-1.29,1.94-2.3,3.29-3.03,1.35-.73,2.88-1.1,4.59-1.1s3.21.36,4.57,1.08c1.36.72,2.47,1.72,3.32,3,.86,1.28,1.38,2.77,1.56,4.49h-18.91c.21-1.67.73-3.15,1.58-4.44ZM235.36,135.85c-3.11,2.38-6.49,3.56-10.14,3.56-1.94,0-3.69-.33-5.24-.99-1.55-.66-2.85-1.59-3.89-2.77-1.04-1.19-1.76-2.56-2.18-4.11h26.38v-1.1c0-3.88-.74-7.29-2.23-10.23-1.48-2.93-3.56-5.23-6.22-6.89-2.66-1.66-5.75-2.48-9.27-2.48s-6.41.75-9.1,2.26c-2.68,1.51-4.8,3.56-6.34,6.17-1.54,2.6-2.31,5.56-2.31,8.87s.85,6.6,2.55,9.37c1.7,2.77,4.01,4.96,6.94,6.56,2.92,1.6,6.22,2.4,9.9,2.4,5.07,0,9.74-1.55,14.01-4.66l-2.88-5.96ZM174.55,137.57c-1.51-.89-2.7-2.11-3.56-3.67-.87-1.55-1.3-3.31-1.3-5.28s.43-3.68,1.3-5.22c.87-1.54,2.06-2.76,3.56-3.67,1.51-.9,3.22-1.35,5.14-1.35s3.49.42,5,1.25c1.51.83,2.71,1.98,3.6,3.43.89,1.45,1.34,3.1,1.34,4.95v1.2c0,1.87-.45,3.54-1.34,5-.89,1.46-2.09,2.61-3.6,3.44-1.51.83-3.18,1.25-5,1.25-1.92,0-3.63-.45-5.14-1.34ZM198.05,94.4h-8.43v21.28c-1.48-1.53-3.23-2.72-5.24-3.56-2.01-.85-4.19-1.27-6.54-1.27-3.22,0-6.1.78-8.63,2.33-2.54,1.55-4.53,3.67-5.98,6.36-1.45,2.68-2.18,5.73-2.18,9.13s.72,6.45,2.18,9.13c1.45,2.68,3.44,4.8,5.98,6.35,2.54,1.55,5.41,2.33,8.63,2.33,2.49,0,4.8-.49,6.92-1.46,2.12-.97,3.93-2.31,5.41-4.02l.45,4.8h7.43v-51.39ZM133.63,142.81c-1.5-.73-2.68-1.72-3.54-2.98-.87-1.26-1.3-2.67-1.3-4.25,0-2.47,1.05-4.49,3.15-6.06,2.1-1.58,4.8-2.36,8.09-2.36,1.92,0,3.75.3,5.5.89,1.75.59,3.4,1.47,4.95,2.64v1.71c-.02,2.21-.56,4.19-1.61,5.93-1.05,1.74-2.46,3.1-4.23,4.09-1.77.99-3.74,1.49-5.91,1.49-1.9,0-3.59-.37-5.09-1.1ZM153.27,124.72c0-2.83-.54-5.29-1.63-7.37-1.08-2.08-2.62-3.68-4.61-4.81-1.99-1.13-4.34-1.7-7.06-1.7-2.1,0-4.19.35-6.27,1.05-2.08.7-4,1.71-5.76,3.03l1.2,2.47c1.48-1.3,3.12-2.29,4.92-2.96,1.79-.67,3.62-1.01,5.5-1.01,2.19,0,4.1.45,5.74,1.35,1.63.9,2.9,2.18,3.8,3.84.9,1.66,1.35,3.65,1.35,5.98v3.22c-1.49-1.01-3.16-1.77-5.02-2.29-1.86-.53-3.77-.79-5.74-.79-2.69,0-5.08.47-7.16,1.42-2.08.95-3.71,2.25-4.9,3.9-1.19,1.66-1.78,3.57-1.78,5.74,0,2.03.54,3.86,1.61,5.47,1.07,1.61,2.55,2.88,4.44,3.82,1.88.94,4,1.4,6.36,1.4,2.85,0,5.37-.69,7.54-2.06,2.17-1.37,3.78-3.21,4.83-5.52l.31,6.89h2.33v-21.07ZM118.67,142.64c-1.58.87-3.11,1.3-4.59,1.3-1.94,0-3.5-.68-4.68-2.04-1.18-1.36-1.76-3.16-1.76-5.4v-22.44h10.72v-2.53h-10.72v-8.56h-2.71v8.56h-6.1v2.53h5.99v22.95c0,1.9.37,3.56,1.1,4.98.73,1.43,1.75,2.53,3.07,3.31,1.31.78,2.84,1.17,4.57,1.17,1.92,0,3.85-.48,5.79-1.44l-.69-2.4ZM67.9,141.9c-2.24-1.34-4-3.15-5.29-5.45-1.29-2.29-1.94-4.89-1.94-7.79s.65-5.5,1.94-7.79c1.29-2.3,3.05-4.11,5.29-5.45,2.24-1.34,4.75-2.01,7.54-2.01s5.29.67,7.5,2.01c2.21,1.34,3.97,3.15,5.26,5.45,1.29,2.29,1.94,4.89,1.94,7.79s-.65,5.5-1.94,7.79c-1.29,2.3-3.04,4.11-5.26,5.45-2.22,1.34-4.72,2-7.5,2s-5.3-.67-7.54-2ZM84.45,144.13c2.65-1.56,4.74-3.69,6.27-6.37,1.53-2.68,2.3-5.71,2.3-9.1s-.77-6.41-2.3-9.1c-1.53-2.68-3.62-4.81-6.27-6.37-2.65-1.56-5.65-2.35-9.01-2.35s-6.33.78-8.99,2.35c-2.66,1.56-4.77,3.69-6.32,6.37-1.55,2.68-2.33,5.72-2.33,9.1s.78,6.41,2.33,9.1c1.55,2.68,3.66,4.81,6.32,6.37,2.66,1.57,5.66,2.35,8.99,2.35s6.36-.78,9.01-2.35ZM48.03,111.53h-2.81v34.26h2.81v-34.26ZM48.25,97.67c.45-.45.67-.99.67-1.63s-.22-1.18-.67-1.63c-.45-.45-.99-.67-1.63-.67s-1.18.22-1.61.67c-.43.44-.65.98-.65,1.59s.22,1.19.65,1.64c.43.46.97.69,1.61.69s1.18-.22,1.63-.67ZM3.01,120.37h15.07c2.69,0,5.06.45,7.09,1.35,2.03.9,3.61,2.18,4.73,3.84,1.12,1.66,1.68,3.59,1.68,5.81s-.58,4.3-1.75,6.06c-1.16,1.76-2.79,3.13-4.86,4.13-2.08.99-4.47,1.49-7.16,1.49H3.01v-22.68ZM3.01,97.14h14.32c3.7,0,6.63.91,8.81,2.74,2.17,1.83,3.25,4.32,3.25,7.47s-1.06,5.66-3.17,7.6c-2.11,1.94-4.9,2.91-8.38,2.91H3.01v-20.73ZM18.26,145.79c3.24,0,6.1-.59,8.56-1.76,2.47-1.18,4.39-2.81,5.77-4.9,1.38-2.09,2.07-4.52,2.07-7.28,0-3.38-.98-6.22-2.95-8.51-1.97-2.29-4.6-3.76-7.91-4.4,2.58-.75,4.66-2.21,6.24-4.38,1.58-2.17,2.36-4.73,2.36-7.67,0-3.84-1.32-6.87-3.97-9.11-2.65-2.24-6.24-3.36-10.76-3.36H0v51.39h18.26Z"/>
  <g class="cls-11">
    <g class="cls-7">
      <path class="cls-1" d="M380.08,28.68c-.16.04-.31.08-.47.12.16-.04.31-.08.47-.12"/>
      <path class="cls-1" d="M381.85,28.41c-.17,0-.34.02-.52.04.18-.02.35-.03.52-.04"/>
      <path class="cls-1" d="M380.97,28.5c-.16.03-.32.05-.48.09.16-.03.32-.06.48-.09"/>
      <path class="cls-1" d="M377.5,34.09s.08-.04.11-.06c-.04.02-.08.04-.11.06"/>
      <path class="cls-1" d="M377.04,34.32s.08-.04.12-.06c-.04.02-.08.04-.12.06"/>
      <path class="cls-1" d="M376.54,34.56s.05-.02.08-.03c-.03.01-.05.02-.08.03"/>
      <path class="cls-1" d="M382.13,28.39c.26,0,.52,0,.76.04-.25-.03-.5-.04-.76-.04"/>
      <path class="cls-1" d="M375.13,40.01c.47-1.74.72-3.47.86-5.21-.62.27-1.3.54-1.97.81-1.1.44-2.15.86-2.68,1.15-1.17.64-2.58.64-3.93.64-1,0-1.97,0-2.77.25-.04,1.56.43,5.69.68,7.45.98.18,2-.13,3.07-.46.8-.25,1.62-.5,2.49-.57.2-.09.51-.23,1.02-.44.85-.54,1.7-.99,2.54-1.37.24-.72.48-1.47.69-2.24"/>
      <path class="cls-1" d="M366.27,24.36l-.24.07s-.08.02-.12.03c-.92.12-1.51-.07-1.93-.26-.38,1.72.09,3.7.45,5.19.1.4.19.78.25,1.11,2.27,3.1,6.64,1.39,10.87-.26.22-.09.44-.17.66-.25,0,0,0,0,0,0,.04-1.85.07-3.7.23-5.54-2.89-.73-5.85-1.38-8.85-1.93l-.12.7c-.15.85-.75,1.02-1.19,1.14"/>
      <path class="cls-1" d="M379.17,28.93c-.15.05-.3.09-.46.14.15-.05.31-.1.46-.14"/>
      <path class="cls-1" d="M375.96,41.64s-.06.02-.09.03c.03-.01.06-.02.09-.03"/>
      <path class="cls-1" d="M377.25,29.58c-.12.05-.25.09-.38.14.13-.05.25-.1.38-.14"/>
      <path class="cls-1" d="M378.23,29.23c-.14.05-.29.1-.43.15.15-.05.29-.1.43-.15"/>
      <path class="cls-1" d="M366.8,74.77c-.04-.14-.08-.28-.11-.42.04.14.07.28.11.42"/>
      <path class="cls-1" d="M390.31,32.48c-.08.5-.14,1.02-.18,1.56.04-.53.1-1.06.18-1.56"/>
      <path class="cls-1" d="M390.1,34.43c-.04.56-.06,1.14-.05,1.74,0-.6.02-1.18.05-1.74"/>
      <path class="cls-1" d="M366.97,75.37c-.03-.11-.06-.22-.09-.33.03.11.06.22.09.33"/>
      <path class="cls-1" d="M391.18,29.22h0c-.18.48-.34.98-.48,1.49.14-.51.3-1.01.48-1.49"/>
      <path class="cls-1" d="M390.67,30.83c-.14.52-.26,1.06-.35,1.61.09-.56.21-1.09.35-1.61"/>
      <path class="cls-1" d="M366.64,74.16c-.05-.19-.1-.38-.14-.56.04.18.09.37.14.56"/>
      <path class="cls-1" d="M378.74,40.89s-.04,0-.05.01c.02,0,.04,0,.05-.01"/>
      <path class="cls-1" d="M380.11,40.71s-.09,0-.13.01c.04,0,.08,0,.13-.01"/>
      <path class="cls-1" d="M382.45,40.71s-.1,0-.15-.01c.05,0,.1,0,.15.01"/>
      <path class="cls-1" d="M384.95,74.17s0,0,.01,0c.45-.46.92-.91,1.45-1.37-.53.46-1.01.91-1.46,1.37"/>
      <path class="cls-1" d="M383.49,40.88c-.05-.01-.1-.02-.16-.03.05.01.1.02.16.03"/>
      <path class="cls-1" d="M366.35,72.9c-.03-.16-.06-.31-.08-.44.02.13.05.28.08.44"/>
      <path class="cls-1" d="M366.47,73.44c-.03-.14-.06-.27-.09-.4.03.13.06.26.09.4"/>
      <path class="cls-1" d="M359.58,74.6c.02.36.05.71.09,1.03-.04-.32-.07-.67-.09-1.03"/>
      <path class="cls-1" d="M359.69,75.74c.05.36.1.69.16,1-.06-.31-.12-.65-.16-1"/>
      <path class="cls-1" d="M346.6,71.06c.08,0,.17,0,.25-.01-.08,0-.17,0-.25.01"/>
      <path class="cls-1" d="M345.65,71.1c.1,0,.2,0,.3,0-.1,0-.2,0-.3,0"/>
      <path class="cls-1" d="M344.94,71.1c-.1,0-.2,0-.3,0,.1,0,.2,0,.3,0"/>
      <path class="cls-1" d="M343.56,71.06c.09,0,.17,0,.26.01-.09,0-.17,0-.26-.01"/>
      <path class="cls-1" d="M338.69,70.43c-2.51-.53-4.9-1.42-6.41-2.8-1.31-1.2-2.35-2.14-2.29-3.36.04-.88.62-1.69,1.94-2.69,1.38-1.06,2.93.19,4.29,1.29.76.62,1.71,1.37,2.22,1.33,1.15-.12,2.35.01,3.54.22,3.56-4.71,8.94-8.64,14.7-11.79-2.11-1.09-4.37-1.39-6.7-1.69-.89-.12-1.8-.24-2.7-.4-1.45-.27-2.64-.44-4.09-.45-.47-.02-.84.23-1.26.5-.64.42-1.52.99-2.76.24-.49-.29-.64-.62-.77-.9-.08-.18-.17-.36-.39-.63-.19-.23-.69-.11-1.43.11-1.09.32-2.92.85-3.71-1.29-.08-.22-.05-.46.08-.65,2.83-4.24,6.36-3.51,9.48-2.85,1.21.25,2.46.51,3.65.5,1.21-.02,2.46-.35,3.68-.67,2.94-.77,6.24-1.63,8.9,2.17.06-.11.12-.22.18-.32.65-1.13,1.04-1.81.68-3.34-.03-.13-.02-.26.01-.38-.04-.58-.55-2.75-.72-3.49-.06-.24-.1-.44-.14-.63-.92-1.73-2.57-1.71-4.5-1.69-.9,0-1.84.02-2.68-.19-.68-.17-1.29-.15-1.94-.14-1.02.03-2.18.06-3.5-.75-2.96-1.83-3.44-1.71-6.54-.97l-.29.07c-.25.06-.51-.02-.69-.21-.47-.49-1.09-.9-1.69-1.3-1.34-.88-3.18-2.09-1.85-4.35,1.27-2.17,3.64-1.07,5.37-.27.78.36,1.58.73,2.07.73h0c.58,0,1.37-.34,2.13-.66.96-.41,1.87-.8,2.68-.68,1.58.24,2.76,1.35,3.9,2.42,1.02.96,1.98,1.86,3.12,2.06,2.13.37,3.54.19,4.08-.52,1.08-1.41-.71-5.26-2.01-8.07-.25-.54-.5-1.07-.72-1.57-.23-.25-.22-.51-.21-.75l.03-.72v-.08c-13.09-1.35-24.66-.67-34.58,2.5l-.11.03c-19.95,3.98-8.89,35.24-2.56,43.73,3.98,5.33,11.08,8.03,19.53,9.21,0-2.06.33-4.02.99-5.89"/>
      <path class="cls-1" d="M359.53,72.91c0-.51.03-1.05.07-1.62-.04.58-.07,1.12-.07,1.62"/>
      <path class="cls-1" d="M359.54,73.25c0,.38,0,.75.02,1.1-.02-.34-.02-.72-.02-1.1"/>
      <path class="cls-1" d="M357.37,53.01c.16.1.32.21.48.32-.16-.11-.32-.22-.48-.32"/>
      <path class="cls-1" d="M358.05,53.47c.14.1.29.21.43.33-.14-.11-.28-.22-.43-.33"/>
      <path class="cls-1" d="M356.68,52.63c.19.1.37.2.56.31-.19-.11-.37-.22-.56-.31"/>
      <path class="cls-1" d="M358.72,54c.13.11.25.22.38.34-.13-.12-.25-.23-.38-.34"/>
      <path class="cls-1" d="M342.43,70.98c.05,0,.1,0,.15.01-.05,0-.1,0-.15-.01"/>
      <path class="cls-1" d="M359.39,54.61c.11.11.23.23.34.35-.11-.12-.23-.23-.34-.35"/>
      <path class="cls-1" d="M360.74,56.17c.07.1.15.2.23.3-.08-.1-.15-.2-.23-.3"/>
      <path class="cls-1" d="M360.06,55.32c.1.11.2.22.29.34-.1-.12-.2-.23-.29-.34"/>
      <path class="cls-1" d="M375.12,43.55c.42-.19.83-.35,1.24-.5-.41.15-.82.31-1.24.5"/>
      <path class="cls-1" d="M377.91,42.57c.35-.09.69-.17,1.02-.23-.33.06-.67.14-1.02.23"/>
      <path class="cls-1" d="M376.52,42.99c.39-.13.77-.25,1.15-.36-.38.1-.76.22-1.15.36"/>
      <path class="cls-1" d="M381.32,29.91c.08-.01.16-.03.23-.04-.08,0-.16.03-.23.04"/>
      <path class="cls-1" d="M379.75,30.26c.13-.04.27-.08.4-.11-.13.04-.26.08-.4.11"/>
      <path class="cls-1" d="M379.28,42.28c.29-.05.58-.09.87-.12-.28.03-.57.07-.87.12"/>
      <path class="cls-1" d="M377.19,32.61c-.11.07-.26.16-.42.24.16-.08.31-.17.42-.24"/>
      <path class="cls-1" d="M380.54,30.05c.11-.02.22-.05.33-.08-.11.02-.22.05-.33.08"/>
      <path class="cls-1" d="M365.04,73.68c.11.51.26,1.08.43,1.71-.17-.64-.32-1.2-.43-1.71"/>
      <path class="cls-1" d="M380.61,42.13c.23-.01.46-.03.68-.03-.22,0-.45.02-.68.03"/>
      <path class="cls-1" d="M373.14,45.71c.19-.49.39-.96.58-1.48.44-.24.88-.46,1.31-.65-.8.36-1.61.78-2.41,1.29-.03.02-.07.04-.1.06,0,0-.98.42-1.14.49-.09.05-.19.07-.29.08-.74.04-1.49.27-2.28.51-1.38.43-2.81.86-4.36.34-.25-.09-.44-.3-.48-.56-.19-1.1-.97-7.27-.73-8.78.04-.24.19-.44.41-.54,1.16-.52,2.47-.53,3.75-.52,1.24,0,2.39,0,3.24-.46.6-.33,1.69-.76,2.83-1.22,1.13-.45,2.36-.95,3.17-1.36-.17.09-.35.17-.55.27.03-.54.05-1.09.06-1.63.27-.11.55-.21.81-.32-.3.12-.6.23-.9.35-4.58,1.79-9.77,3.82-12.67-.39-.06-.08-.1-.18-.12-.28-.06-.34-.16-.74-.26-1.19-.45-1.89-1.07-4.48-.17-6.77.12-.31.45-.5.78-.45.29.04.52.17.73.27.33.17.65.34,1.31.26l.21-.06c.05-.01.11-.03.16-.05l.11-.62v-.03c-3.45-.62-5.79-.92-9.28-1.28l-.03.66s.05.1.08.16c.22.5.46,1.02.71,1.55,1.62,3.49,3.46,7.45,1.85,9.55-.91,1.19-2.7,1.54-5.47,1.06-1.57-.27-2.74-1.37-3.86-2.43-1.02-.96-1.99-1.87-3.13-2.04-.4-.06-1.19.28-1.89.58-.89.38-1.81.78-2.69.78-.82.02-1.72-.42-2.68-.87-2.05-.95-2.99-1.2-3.52-.31-.57.97-.22,1.35,1.4,2.42.53.35,1.12.74,1.64,1.22,3.29-.78,4.22-.87,7.54,1.17.95.59,1.73.57,2.7.54.68-.02,1.46-.04,2.33.18.65.16,1.46.15,2.31.14,2.01-.03,4.52-.06,5.83,2.54.02.03.03.07.04.1.02.06.04.13.04.19.03.12.08.33.14.6.65,2.75.8,3.65.76,4.07.4,1.95-.19,2.98-.88,4.18-.24.42-.48.85-.72,1.37-.11.25-.36.41-.63.42-.29,0-.53-.14-.66-.38-2.23-4.08-4.76-3.42-7.96-2.59-1.3.34-2.64.69-4.01.71-1.35.03-2.68-.26-3.97-.53-2.95-.62-5.51-1.16-7.75,1.91.26.43.66.41,1.81.08.91-.26,2.15-.62,2.96.37.33.41.47.72.57.92q.09.2.21.27c.45.27.63.18,1.23-.21.5-.33,1.13-.76,2.06-.74,1.55.01,2.85.2,4.34.48.86.16,1.71.27,2.62.39,2.58.34,5.37.71,8,2.33,5.13-2.66,10.45-4.7,14.97-6.12"/>
      <path class="cls-1" d="M365.73,76.29c-.08-.27-.15-.53-.22-.78.07.25.14.51.22.78"/>
      <path class="cls-1" d="M360.29,53.49c.13.12.26.24.38.38-.13-.13-.26-.25-.38-.38"/>
      <path class="cls-1" d="M364.81,72.17c0-.05,0-.11,0-.16,0,.05,0,.11,0,.16"/>
      <path class="cls-1" d="M364.83,72.48c0,.07.02.15.03.23-.01-.08-.02-.16-.03-.23"/>
      <path class="cls-1" d="M378.13,30.8c.16-.06.32-.12.48-.17-.16.06-.32.11-.48.17"/>
      <path class="cls-1" d="M381.9,42.13c.15,0,.31.01.46.03-.15-.02-.31-.02-.46-.03"/>
      <path class="cls-1" d="M364.92,73.04c.02.1.03.19.05.29-.02-.1-.04-.2-.05-.29"/>
      <path class="cls-1" d="M378.96,30.51c.15-.05.29-.1.44-.14-.14.04-.29.1-.44.14"/>
      <path class="cls-1" d="M377.21,31.14c.19-.07.39-.15.58-.22-.19.07-.39.15-.58.22"/>
      <path class="cls-1" d="M361.02,71.76c0-.09,0-.18.02-.28,0,.1-.01.19-.02.28"/>
      <path class="cls-1" d="M346.45,69.63c-.19.01-.37.02-.57.02.2,0,.39-.01.57-.02"/>
      <path class="cls-1" d="M360.97,73.44c0-.09,0-.17,0-.26,0,.09,0,.17,0,.26"/>
      <path class="cls-1" d="M347.44,69.54c-.22.03-.47.05-.73.07.26-.02.51-.04.73-.07"/>
      <path class="cls-1" d="M341.05,65.72c.77.11,1.57.27,2.39.44-1.73-.35-3.37-.69-4.86-.53-1.1.11-2.16-.74-3.28-1.64-.95-.77-2.02-1.64-2.51-1.27-.89.68-1.35,1.22-1.37,1.61-.02.55.87,1.37,1.82,2.23,1.52,1.39,4.28,2.24,7.07,2.69-.37-.06-.74-.12-1.1-.2.5-1.15,1.11-2.26,1.82-3.33"/>
      <path class="cls-1" d="M361.03,74.83s0-.03,0-.05c0,.02,0,.04,0,.05"/>
      <path class="cls-1" d="M360.99,74.17c0-.06,0-.13,0-.2,0,.07,0,.13,0,.2"/>
      <path class="cls-1" d="M360.98,72.65c0-.1,0-.19,0-.29,0,.1,0,.2,0,.29"/>
      <path class="cls-1" d="M361.38,54.65c-.13-.16-.27-.31-.4-.46.13.15.27.3.4.46"/>
      <path class="cls-1" d="M362.09,55.57c-.15-.2-.29-.4-.44-.58.15.19.29.38.44.58"/>
      <path class="cls-1" d="M359.59,52.86c-.07-.06-.13-.11-.2-.17.07.05.14.11.2.17"/>
      <path class="cls-1" d="M345.54,69.65c-.19,0-.38,0-.58,0,.2,0,.39,0,.58,0"/>
      <path class="cls-1" d="M358.88,52.31c-.05-.04-.11-.08-.16-.11.05.04.11.08.16.11"/>
      <path class="cls-1" d="M344.59,69.65c-.2,0-.41-.01-.62-.02.21.01.42.02.62.02"/>
      <path class="cls-1" d="M343.58,69.6c-.22-.01-.45-.03-.67-.05.23.02.45.03.67.05"/>
      <path class="cls-1" d="M342.52,69.53c-.24-.02-.49-.05-.73-.08.25.03.49.05.73.08"/>
      <path class="cls-1" d="M362.96,56.88c-.21-.35-.43-.68-.64-.99.22.32.43.64.64.99"/>
      <path class="cls-1" d="M341.43,69.41c-.27-.03-.55-.07-.82-.11.27.04.55.08.82.11"/>
      <path class="cls-1" d="M408.86,69.94c-.29.39-.52.75-.68,1.1.16-.35.39-.72.68-1.1"/>
      <path class="cls-1" d="M413.37,54.1c-.03-.1-.07-.19-.1-.29,0,.01,0,.02,0,.03.03.09.06.17.09.26"/>
      <path class="cls-1" d="M409.34,69.35c-.16.18-.3.36-.44.54.13-.18.28-.35.44-.54"/>
      <path class="cls-1" d="M410.84,67.98c-.33.22-.64.46-.91.74.27-.27.58-.51.91-.74"/>
      <path class="cls-1" d="M414.09,55.92c-.07-.14-.13-.29-.2-.43.02.04.03.09.05.13.04.1.1.2.14.31"/>
      <path class="cls-1" d="M391.54,34.57c0-.12.02-.24.03-.35,0,.12-.02.24-.03.35"/>
      <path class="cls-1" d="M411.92,67.39c-.27.12-.52.26-.76.41.24-.14.49-.29.76-.41"/>
      <polyline class="cls-1" points="387.34 73.89 387.34 73.89 387.35 73.89 387.34 73.89"/>
      <path class="cls-1" d="M392.07,31.24s0-.02,0-.03c0,.01,0,.02,0,.03"/>
      <path class="cls-1" d="M391.73,32.81s0-.04,0-.07c0,.02,0,.04,0,.07"/>
      <path class="cls-10" d="M376.36,43.05c.05-.02.1-.04.16-.06-.05.02-.1.04-.16.06"/>
      <path class="cls-10" d="M375.04,43.58s.05-.02.08-.04c-.03.01-.05.03-.08.04"/>
      <path class="cls-10" d="M381.3,42.1c.21,0,.4.01.6.03-.2-.01-.39-.03-.6-.03"/>
      <path class="cls-10" d="M377.66,42.63c.08-.02.16-.04.25-.06-.08.02-.16.04-.25.06"/>
      <path class="cls-10" d="M380.15,42.16c.16-.02.31-.02.47-.03-.15,0-.31.01-.47.03"/>
      <path class="cls-10" d="M378.93,42.34c.12-.02.23-.04.35-.06-.12.02-.23.04-.35.06"/>
      <path class="cls-10" d="M382.36,42.15c.34.04.66.09.95.17-.29-.08-.61-.13-.95-.17"/>
      <path class="cls-5" d="M373.14,45.71c3.62-1.14,6.73-1.89,8.81-2.24.41-.07.84-.15,1.28-.23h0c.04-.29.07-.6.07-.93-.29-.08-.61-.13-.95-.17-.15-.02-.31-.02-.46-.03-.2-.01-.39-.03-.6-.03-.22,0-.45.02-.68.03-.15,0-.31.02-.47.03-.28.03-.57.07-.87.12-.12.02-.23.04-.35.06-.33.06-.68.14-1.02.23-.08.02-.16.04-.25.06-.38.1-.76.22-1.15.36-.05.02-.1.04-.16.06-.41.15-.82.31-1.24.5-.03.01-.05.03-.08.04-.44.2-.88.41-1.31.65-.19.51-.39.99-.58,1.48"/>
      <path class="cls-10" d="M383.08,43.95c-.02.07-.05.13-.07.2.02-.06.05-.13.07-.2"/>
      <path class="cls-10" d="M382.82,44.57c-.03.06-.06.11-.09.17.03-.05.06-.11.09-.17"/>
      <path class="cls-10" d="M454.36,51.22c.24-.18.49-.35.74-.52-.25.17-.5.34-.74.52"/>
      <path class="cls-10" d="M455.25,50.6c.52-.34,1.07-.65,1.61-.93-.54.28-1.09.59-1.61.93"/>
      <path class="cls-10" d="M459.23,51.81c.37-.18.75-.35,1.11-.54l-.32-.64c-.43-.85-.27-1.6-.1-2.09-.63.11-1.35.35-2.11.68.11.18.23.36.33.54.39.67.75,1.35,1.08,2.04"/>
      <path class="cls-10" d="M457,49.6c.27-.14.55-.27.82-.39-.27.12-.55.25-.82.39"/>
      <path class="cls-10" d="M453.66,51.76c.22-.18.45-.36.69-.54-.24.18-.47.36-.69.54"/>
      <path class="cls-10" d="M452.39,52.99c.16-.18.32-.36.51-.55-.19.18-.35.36-.51.55"/>
      <path class="cls-10" d="M451.63,54.23c.07-.2.15-.4.25-.56-.1.16-.18.36-.25.56"/>
      <path class="cls-10" d="M451.88,53.67c.11-.18.25-.36.4-.54-.15.18-.29.36-.4.54"/>
      <path class="cls-10" d="M452.91,52.43c.18-.18.39-.36.6-.54-.21.18-.41.36-.6.54"/>
      <path class="cls-10" d="M439.85,56.44c-.22.22-.45.42-.71.6.26-.17.49-.37.71-.6"/>
      <path class="cls-10" d="M444.66,51.23c.09.14.18.28.25.43-.08-.15-.16-.29-.25-.43"/>
      <path class="cls-10" d="M445.04,51.92c.06.15.12.31.17.48-.05-.17-.11-.33-.17-.48"/>
      <path class="cls-10" d="M445.53,53.88c.02.17.05.33.06.5-.02-.17-.04-.33-.06-.5"/>
      <path class="cls-10" d="M444.03,50.54c.19.14.35.3.5.49-.15-.19-.31-.35-.5-.49"/>
      <path class="cls-10" d="M439.94,56.34c.21-.24.41-.49.57-.78-.16.29-.36.55-.57.78"/>
      <path class="cls-10" d="M445.64,55.01c0,.09.01.18.02.26,0-.09-.01-.18-.02-.26"/>
      <path class="cls-10" d="M445.3,52.7c.05.18.09.37.12.57-.04-.19-.08-.38-.12-.57"/>
      <path class="cls-10" d="M391.74,32.74c.09-.52.19-1.02.32-1.51-.13.49-.24.99-.32,1.51"/>
      <polyline class="cls-10" points="411.98 37.6 411.98 37.61 411.98 37.6"/>
      <path class="cls-10" d="M392.07,31.21c.13-.49.28-.96.46-1.42-.17.46-.33.93-.46,1.42"/>
      <path class="cls-10" d="M411.98,40.05s0,.07.01.11c0-.03-.01-.07-.01-.11"/>
      <path class="cls-10" d="M413.27,53.81c-.15-.47-.3-.94-.41-1.42.08.36.18.72.29,1.08.04.12.08.23.12.35"/>
      <path class="cls-10" d="M412.08,40.66c.01.08.03.16.04.24-.01-.08-.03-.16-.04-.24"/>
      <path class="cls-10" d="M414.72,57.24c.24.47.48.93.73,1.39-.25-.46-.5-.92-.73-1.39"/>
      <path class="cls-10" d="M406.81,6.1s.03.08.08.32c1.39,6.4-2.4,9.81-7.2,14.12-3.46,3.11-5.89,5.85-7.16,9.24,2.55,1.09,4.95,2.25,7.14,3.49,2.62,1.48,4.9,3.04,6.86,4.75,1.85-.38,3.71-.74,5.6-1.06.13-.45.31-.91.58-1.37,1.47-2.53,3.51-4.15,5.49-5.72,2.83-2.24,5.27-4.18,5.49-8.34.34-6.48-1.2-11.07-5.51-16.4-.26-.33-.42-.67-.48-1.08l-.11-.7c-4.15.64-7.8,1.29-10.92,1.84l.15.92Z"/>
      <path class="cls-10" d="M412.2,41.31c.04.21.09.42.13.63-.04-.21-.09-.42-.13-.63"/>
      <path class="cls-10" d="M391.57,34.21c.04-.48.09-.95.17-1.4-.07.45-.13.92-.17,1.4"/>
      <path class="cls-10" d="M414.63,57.06c-.19-.38-.36-.76-.53-1.14.08.18.16.36.24.54.1.2.19.4.29.6"/>
      <path class="cls-10" d="M402.03,57.5c0,.13,0,.26-.01.38,0-.13.01-.25.01-.38"/>
      <path class="cls-10" d="M401.81,59.41c.08-.36.14-.72.18-1.09-.04.37-.09.74-.18,1.09"/>
      <path class="cls-10" d="M413.84,55.35s.03.08.05.12c-.18-.42-.34-.84-.49-1.26.03.09.06.19.1.28.11.29.22.58.35.87"/>
      <path class="cls-10" d="M391.49,36.16c0-.55.02-1.08.05-1.6-.03.52-.06,1.04-.05,1.6"/>
      <path class="cls-10" d="M413.28,53.84s0-.02,0-.03c-.04-.12-.08-.23-.12-.35.04.13.08.25.13.38"/>
      <path class="cls-10" d="M413.84,55.35c-.12-.29-.24-.57-.35-.87.11.29.22.58.35.87"/>
      <path class="cls-10" d="M396.36,47.69c-.28-.29-.55-.57-.8-.85.25.28.51.56.8.85"/>
      <path class="cls-10" d="M395.37,46.61c-.18-.2-.35-.4-.51-.59.16.19.33.39.51.59"/>
      <path class="cls-5" d="M406.53,38.02c-1.96-1.7-4.24-3.27-6.86-4.75-2.19-1.24-4.58-2.4-7.14-3.49-.17.46-.32.93-.46,1.42,0,.01,0,.02,0,.03-.13.49-.24.99-.32,1.51,0,.02,0,.04-.01.07-.07.45-.12.92-.17,1.4,0,.12-.02.24-.03.36-.03.52-.05,1.04-.05,1.6.03,3.12.33,5.2,1.6,7.41-.43-.75-.76-1.49-.99-2.27,4.43-1.05,9.33-2.25,14.43-3.29"/>
      <path class="cls-10" d="M394.05,45.02c-.15-.2-.29-.39-.42-.58.13.19.27.39.42.58"/>
      <path class="cls-10" d="M393.54,44.29c-.16-.23-.3-.47-.43-.7.13.23.28.46.43.7"/>
      <path class="cls-10" d="M414.33,56.45c-.08-.18-.16-.36-.24-.54-.05-.1-.1-.2-.14-.31.12.28.25.56.38.84"/>
      <path class="cls-10" d="M394.66,45.79c-.15-.19-.3-.37-.44-.56.14.18.29.37.44.56"/>
      <path class="cls-10" d="M387.68,58.69s0,.02,0,.02c0,0,0-.02,0-.02"/>
      <path class="cls-10" d="M385.39,58.14s.05-.02.08-.02c-.03,0-.05.01-.08.02"/>
      <path class="cls-10" d="M384.1,58.58s.08-.03.12-.04c-.04.01-.08.03-.12.04"/>
      <path class="cls-10" d="M384.73,58.34s.1-.03.15-.05c-.05.02-.1.03-.15.05"/>
      <path class="cls-10" d="M386.9,58.01s.08.02.11.03c-.04-.01-.08-.02-.11-.03"/>
      <path class="cls-10" d="M386,58.01s.07,0,.1-.01c-.04,0-.07,0-.1.01"/>
      <path class="cls-10" d="M386.48,57.97s.09,0,.14,0c-.05,0-.09,0-.14,0"/>
      <path class="cls-10" d="M387.53,58.4s.01.03.02.04c0-.01-.01-.03-.02-.04"/>
      <path class="cls-10" d="M376.76,32.85s-.08.04-.12.06c.04-.02.08-.04.12-.06"/>
      <path class="cls-10" d="M377.8,30.92c.11-.04.22-.08.33-.12-.11.04-.22.08-.33.12"/>
      <path class="cls-10" d="M376.97,31.23c.08-.03.16-.06.24-.09-.08.03-.16.06-.24.09"/>
      <path class="cls-10" d="M380.87,29.98c.15-.03.3-.05.45-.07-.15.02-.29.04-.45.07"/>
      <path class="cls-10" d="M380.15,30.15c.13-.03.26-.06.39-.09-.13.03-.26.06-.39.09"/>
      <path class="cls-10" d="M381.55,29.87c.22-.02.43-.04.64-.04-.2,0-.42.01-.64.04"/>
      <path class="cls-10" d="M378.61,30.62c.12-.04.23-.08.35-.12-.12.04-.23.08-.35.12"/>
      <path class="cls-10" d="M379.39,30.36c.12-.04.24-.07.36-.1-.12.03-.24.07-.36.1"/>
      <path class="cls-5" d="M376.09,33.18c.2-.09.38-.18.55-.27.04-.02.08-.04.12-.06.16-.08.31-.17.42-.24.94-.62,2.07-.56,3.07-.51.77.04,1.51.08,1.78-.23.15-.18.36-.67.16-2.03-.2,0-.42.01-.64.04-.08,0-.16.03-.24.04-.15.02-.29.04-.45.07-.11.02-.22.05-.33.08-.13.03-.26.06-.39.09-.13.03-.26.08-.4.11-.12.03-.24.07-.36.1-.14.04-.29.1-.44.14-.12.04-.23.08-.35.12-.16.06-.32.11-.48.17-.11.04-.22.08-.33.12-.19.07-.39.15-.58.22-.08.03-.16.06-.24.09-.27.1-.54.21-.81.32-.01.54-.04,1.09-.06,1.63"/>
      <path class="cls-10" d="M454.18,49.58s-.06.04-.08.06c.03-.02.05-.04.08-.06"/>
      <path class="cls-10" d="M449.93,55.11c.03-.17.06-.33.09-.5-.04.16-.07.33-.09.5"/>
      <path class="cls-10" d="M450.29,53.69c-.03.07-.05.13-.08.2.02-.07.05-.14.08-.2"/>
      <path class="cls-10" d="M453.3,50.21s-.04.03-.06.04c.02-.01.04-.03.06-.04"/>
      <path class="cls-10" d="M452.45,50.9s-.02.02-.03.03c.01,0,.02-.02.03-.03"/>
      <path class="cls-10" d="M447.12,55.75h0c-.01-.28-.03-.55-.04-.82.02.27.03.55.04.82"/>
      <path class="cls-10" d="M414.81,53.86c-.04-.1-.07-.2-.11-.3.03.1.07.2.11.3"/>
      <path class="cls-10" d="M415.46,55.45c-.03-.05-.05-.11-.08-.16.02.05.05.11.08.16"/>
      <path class="cls-10" d="M445.55,50c.06.08.12.16.18.24-.06-.08-.12-.16-.18-.24"/>
      <path class="cls-10" d="M419.01,3.13l.11.69c.03.17.08.28.18.4,4.56,5.63,6.19,10.51,5.83,17.38-.25,4.81-3.19,7.14-6.03,9.39-1.87,1.49-3.81,3.02-5.14,5.32-.99,1.71-.63,3.38-.2,5.31-.39-1.79-.72-3.35.02-4.93,16.68-2.64,34.06-2.21,43.26,11.29,1.4-.63,2.78-1.01,3.88-.94.34.02.62.28.67.62.02.17.07.47-.04.72-.03.14-.08.28-.14.41-.14.34-.3.72-.07,1.19l.29.58c7.62-4.36,13.35-11.34,15.32-22.74,5.28-30.57-32.64-28.46-57.92-24.69"/>
      <path class="cls-10" d="M416.21,56.98s-.04-.08-.07-.13c.02.04.04.08.07.13"/>
      <path class="cls-10" d="M451.64,51.68c.05-.06.11-.11.17-.17-.06.06-.11.11-.17.17"/>
      <path class="cls-10" d="M447.06,54.6c-.02-.23-.04-.45-.07-.68.03.22.05.45.07.68"/>
      <path class="cls-10" d="M446.24,51.08c-.05-.11-.11-.21-.16-.31.06.1.11.2.16.31"/>
      <polyline class="cls-10" points="417.05 58.53 417.05 58.53 417.05 58.53 417.05 58.53"/>
      <path class="cls-10" d="M446.91,53.38c-.04-.22-.07-.44-.12-.66.05.21.09.43.12.66"/>
      <path class="cls-10" d="M446.6,52c-.04-.12-.08-.22-.12-.34.04.11.09.22.12.34"/>
      <path class="cls-10" d="M421.16,58.25c.03-.24.07-.48.11-.7-.05.23-.09.46-.11.7"/>
      <path class="cls-10" d="M421.46,56.87c-.07.21-.13.43-.19.66.05-.23.11-.45.19-.66"/>
      <path class="cls-10" d="M451.23,52.13c-.05.06-.1.12-.15.18.05-.06.1-.12.15-.18"/>
      <path class="cls-10" d="M388.19,57.03c.16.12.3.26.42.42-.12-.15-.26-.3-.42-.42"/>
      <path class="cls-10" d="M379.61,28.8c-.15.04-.29.08-.44.13.15-.04.29-.09.44-.13"/>
      <path class="cls-10" d="M389.29,59.59c-.01-.28-.04-.54-.09-.78.05.24.08.5.09.78"/>
      <path class="cls-10" d="M378.71,29.07c-.16.05-.32.11-.48.16.16-.06.32-.11.48-.16"/>
      <path class="cls-10" d="M388.94,57.98c-.07-.15-.15-.28-.24-.41.09.13.17.26.24.41"/>
      <path class="cls-10" d="M381.32,28.45c-.12.01-.24.04-.36.06.12-.02.24-.04.36-.06"/>
      <path class="cls-10" d="M381.14,58.36c-.12.06-.23.12-.35.18.12-.06.23-.12.35-.18"/>
      <path class="cls-10" d="M380.48,28.59c-.13.03-.27.06-.4.09.13-.03.27-.07.4-.09"/>
      <path class="cls-10" d="M389.17,58.67c-.04-.19-.1-.37-.16-.53.07.17.12.34.16.53"/>
      <path class="cls-10" d="M400.3,59.47c.08-.26.13-.52.18-.78-.05.26-.11.53-.18.78"/>
      <path class="cls-10" d="M400.57,57.83c-.01.2-.03.4-.06.6.03-.2.05-.4.06-.6"/>
      <path class="cls-10" d="M377.62,34.03c.14-.07.26-.15.37-.22-.11.07-.23.14-.37.22"/>
      <path class="cls-10" d="M400.56,56.72c.03.29.04.57.03.85,0-.28,0-.56-.03-.85"/>
      <path class="cls-10" d="M380.11,40.71c.79-.07,1.52-.07,2.19,0-.67-.06-1.4-.06-2.19,0"/>
      <path class="cls-10" d="M376.88,29.72c-.23.09-.45.17-.68.26.23-.09.45-.17.68-.26"/>
      <path class="cls-10" d="M371.23,50.84h0c.72-.33,1.45-.9,2.15-1.46-.7.56-1.43,1.13-2.15,1.46"/>
      <path class="cls-10" d="M377.79,29.38c-.18.06-.36.13-.54.2.18-.07.36-.13.54-.2"/>
      <path class="cls-10" d="M386.31,56.53c.07,0,.14,0,.2,0-.07,0-.14,0-.2,0"/>
      <path class="cls-10" d="M381.85,28.41c.09,0,.19-.02.28-.02-.09,0-.19.01-.28.02"/>
      <path class="cls-10" d="M381.76,58.04c-.11.05-.22.11-.33.17.11-.06.22-.11.33-.17"/>
      <path class="cls-10" d="M383.33,40.85c-.28-.06-.57-.1-.89-.13.31.03.61.08.89.13"/>
      <path class="cls-10" d="M384.9,56.77c-.06.02-.12.03-.18.05.06-.02.12-.03.18-.05"/>
      <path class="cls-10" d="M385.48,56.63c-.07.01-.14.03-.21.04.07-.02.14-.03.21-.04"/>
      <path class="cls-10" d="M384.27,41.11c-.24-.09-.51-.16-.79-.22.28.06.54.14.79.22"/>
      <path class="cls-10" d="M384.17,57c-.06.02-.12.05-.18.07.06-.02.12-.05.18-.07"/>
      <path class="cls-10" d="M382.37,57.74c-.1.05-.21.1-.31.15.1-.05.21-.1.31-.15"/>
      <path class="cls-10" d="M386.01,56.56c-.07,0-.14.01-.21.02.07,0,.14-.02.21-.02"/>
      <path class="cls-10" d="M382.98,57.47c-.1.04-.19.09-.29.13.1-.04.19-.09.29-.13"/>
      <path class="cls-10" d="M383.58,57.22c-.09.04-.18.07-.26.11.09-.04.18-.07.26-.11"/>
      <path class="cls-10" d="M377.16,34.27c.12-.06.24-.12.34-.18-.11.06-.22.12-.34.18"/>
      <path class="cls-10" d="M387.42,56.65c-.06-.02-.11-.03-.17-.04.06.01.11.02.17.04"/>
      <path class="cls-10" d="M376.61,34.53c.15-.07.29-.13.43-.2-.14.07-.28.13-.43.2"/>
      <path class="cls-10" d="M387.82,56.8s-.09-.04-.13-.05c.04.02.09.03.13.05"/>
      <path class="cls-10" d="M375.99,34.8h0c.19-.08.37-.16.55-.24-.18.08-.36.16-.55.24"/>
      <path class="cls-10" d="M375.87,41.67c-.47.17-.95.36-1.43.58.48-.22.96-.41,1.43-.58"/>
      <path class="cls-10" d="M379.98,40.72c-.4.04-.81.1-1.24.17.42-.08.84-.13,1.24-.17"/>
      <path class="cls-10" d="M386.98,56.56c-.06,0-.13-.01-.19-.02.06,0,.13,0,.19.02"/>
      <path class="cls-10" d="M378.69,40.9c-.87.16-1.79.4-2.73.73.94-.33,1.86-.57,2.73-.73"/>
      <path class="cls-10" d="M380.55,58.67c-.13.07-.27.14-.4.22.13-.07.27-.14.4-.22"/>
      <path class="cls-10" d="M390.13,34.04c-.01.13-.02.26-.03.39,0-.13.02-.26.03-.39"/>
      <path class="cls-10" d="M390.7,30.71s-.02.08-.04.13c.01-.04.02-.08.04-.13"/>
      <path class="cls-10" d="M398.73,19.47c4.62-4.16,7.97-7.16,6.75-12.74-.02-.11-.04-.16-.04-.18-.03-.08-.04-.14-.09-.42l-.11-.69c-.64.11-1.24.22-1.81.32-11.26,1.94-20.64,0-25.34,11.3-1.01,2.44-1.45,4.91-1.66,7.39,5.24,1.32,10.23,2.92,14.76,4.77,1.36-3.6,3.92-6.48,7.55-9.75"/>
      <path class="cls-10" d="M390.32,32.44s0,.03,0,.04c0-.01,0-.03,0-.04"/>
      <path class="cls-10" d="M393.47,46.62c.07.08.14.17.21.25-.07-.09-.14-.17-.21-.25"/>
      <path class="cls-10" d="M392.82,45.78c.05.07.11.14.16.21-.05-.07-.11-.14-.16-.21"/>
      <path class="cls-10" d="M384.15,45.12c.08-.16.15-.33.21-.51-.06.18-.13.35-.21.51"/>
      <path class="cls-10" d="M392.26,44.98s.05.08.08.11c-.03-.04-.05-.08-.08-.11"/>
      <path class="cls-10" d="M383.42,46.21c.21-.22.39-.47.55-.74-.16.27-.34.52-.55.74"/>
      <path class="cls-10" d="M384.52,44.09c.03-.14.06-.29.09-.44-.03.15-.05.3-.09.44"/>
      <path class="cls-10" d="M394.24,47.52c.07.08.14.16.22.25-.08-.08-.14-.16-.22-.25"/>
      <path class="cls-5" d="M376.2,29.98c.23-.09.45-.17.68-.26.13-.05.25-.1.38-.14.18-.07.36-.13.54-.2.15-.05.29-.1.43-.15.16-.06.32-.11.48-.16.15-.05.3-.1.46-.14.15-.05.3-.09.44-.13.16-.04.32-.08.47-.12.14-.03.27-.07.4-.09.16-.03.32-.06.48-.08.12-.02.24-.04.36-.06.18-.02.35-.03.52-.04.09,0,.19-.02.28-.02.26,0,.52,0,.76.04.31.04.56.27.62.58.37,1.9.25,3.07-.39,3.8-.74.84-1.91.78-2.94.73-.81-.04-1.65-.09-2.2.27-.11.07-.23.15-.37.22-.04.02-.08.04-.11.06-.11.06-.22.12-.34.18-.04.02-.08.04-.12.06-.14.07-.28.13-.43.2-.02.01-.05.02-.08.03-.18.08-.36.16-.55.24-.14,1.74-.39,3.47-.86,5.21-.21.77-.44,1.51-.69,2.24,0,0,0,0,0,0,.48-.22.96-.41,1.43-.58.03-.01.06-.02.09-.03.94-.33,1.86-.58,2.73-.73.02,0,.04,0,.05-.01.42-.08.84-.13,1.24-.17.04,0,.08,0,.13-.01.79-.07,1.52-.07,2.19-.01.05,0,.1,0,.15.01.31.03.61.08.89.14.05.01.1.02.15.04.28.06.55.14.79.22.28.1.46.36.47.65.01.43,0,.82-.04,1.2,1.85-.37,3.86-.83,5.98-1.33-.47-1.6-.62-3.31-.64-5.46,0-.6.02-1.18.05-1.74,0-.13.02-.26.03-.39.04-.53.1-1.06.18-1.56,0-.01,0-.03,0-.04.09-.56.21-1.09.35-1.61.01-.04.02-.08.04-.13.14-.51.3-1.01.48-1.49-4.53-1.85-9.52-3.45-14.76-4.77-.16,1.84-.19,3.69-.23,5.54,0,0,0,0,0,0"/>
      <path class="cls-10" d="M434.27,57.52s-.06-.05-.09-.08c.02.03.06.06.09.08"/>
      <path class="cls-9" d="M426.67,78.19c1.08-.95,1.61-1.77,1.43-2.2-.15-.35-1.02-1.24-5.87-1.36-.24,1.49-.72,2.86-1.41,4.15,2.29.4,4.42.66,5.84-.6"/>
      <path class="cls-9" d="M387.21,92.24c.17-.12.39-.35.43-.9.19-2.8-3.64-4.74-6.07-5.59-.07,1.66,0,3.41.11,5.33.02.35.02.67.03,1.01,2.4.52,4.6.81,5.5.15"/>
      <path class="cls-9" d="M411.98,40.05c-.11-.8-.14-1.61,0-2.44-.14.83-.11,1.64,0,2.44"/>
      <path class="cls-9" d="M413.9,55.48s0,0,0-.01c0,0,0,0,0,0,0,0,0,0,0,0"/>
      <path class="cls-9" d="M411.16,67.8c-.1.06-.22.12-.32.18.1-.07.21-.12.32-.18"/>
      <path class="cls-9" d="M412.12,36.96h0c-.06.21-.11.42-.15.63.04-.21.08-.42.15-.63"/>
      <path class="cls-9" d="M411.99,40.15c.02.17.05.34.08.5-.03-.17-.06-.34-.08-.5"/>
      <path class="cls-9" d="M408.91,69.89s-.03.04-.04.05c.01-.02.03-.03.04-.05"/>
      <path class="cls-9" d="M412.12,40.9c.03.14.05.28.08.41-.03-.14-.06-.28-.08-.41"/>
      <path class="cls-9" d="M409.94,68.72c-.21.22-.41.43-.59.63.18-.21.38-.42.59-.63"/>
      <path class="cls-9" d="M394.21,45.23c-.05-.07-.11-.14-.16-.21.05.07.11.14.16.21"/>
      <path class="cls-9" d="M393.1,43.59s0-.01-.01-.02c0,0,0,.01.01.02"/>
      <path class="cls-9" d="M392.79,73.36c-1.64.13-3.48.32-5.45.54-3.83,3.31-5.25,6.58-5.66,10.38,2.28.76,7.68,3,7.39,7.17-.06.85-.4,1.52-1.02,1.97-1.29.94-3.61.72-6.3.16.01.86,0,1.7,0,2.53-.01,2.1-.01,4.13.22,6.33.71-.69,1.72-1.25,2.87-1.88.88-.48,1.89-1.03,2.92-1.73,3.38-2.28,7.46-4.28,11.79-6.39,3.55-1.73,7.13-3.49,10.33-5.41-.56-2.28-.34-4.43.66-5.93,2.24-3.36,5.61-3.1,8.74-2.57.7-1.21,1.2-2.51,1.46-3.89-1.47.01-3.22.08-5.33.24-.27.02-.47.03-.57.04-3.95.19-6.18-.39-6.8-1.8-.27-.6-.22-1.29.14-2.06h0c-3.51,1.76-8.57,1.78-15.4,2.32"/>
      <path class="cls-9" d="M394.85,46.02c-.07-.08-.13-.16-.2-.24.07.08.13.16.2.24"/>
      <path class="cls-9" d="M414.63,57.06c.03.06.06.12.09.18-.03-.06-.06-.12-.09-.18"/>
      <path class="cls-9" d="M414.2,58.7c-.34,3.85-1.06,6.62-2.18,8.63-.04.02-.07.04-.11.06,2.04-.94,4.74-1.27,7.49-1.49-.76-1.7-1.71-3.34-2.65-4.96-.44-.76-.89-1.53-1.32-2.31,0,0,0,0,0,0-.41.03-.83.05-1.25.08"/>
      <path class="cls-9" d="M393.64,44.44s-.07-.1-.1-.15c.03.05.07.1.1.15"/>
      <path class="cls-9" d="M395.57,46.84c-.07-.08-.13-.15-.2-.23.07.08.13.15.2.23"/>
      <path class="cls-9" d="M413.4,54.21s-.02-.07-.04-.11c.01.03.02.06.03.09,0,0,0,0,0,.01"/>
      <path class="cls-9" d="M413.4,54.19s-.02-.06-.03-.09c-.03-.09-.06-.17-.09-.26.04.12.08.24.12.35"/>
      <path class="cls-8" d="M414.2,58.7c-3.97.24-8.17.52-12.4.71h0c-1.04,4.47-5.57,7.81-9.99,11.04-1.61,1.18-3.13,2.29-4.46,3.44,0,0,0,0,0,0,1.97-.22,3.8-.41,5.44-.53,6.83-.54,11.89-.56,15.4-2.32.16-.35.39-.72.68-1.1.01-.02.03-.04.04-.05.14-.18.28-.35.44-.54.18-.21.38-.42.59-.63.27-.27.58-.51.91-.74.1-.07.21-.12.31-.18.24-.15.49-.29.76-.41.04-.02.07-.04.11-.06,1.12-2,1.83-4.77,2.18-8.63"/>
      <path class="cls-9" d="M401.98,58.32c.01-.14.03-.29.04-.43,0,.14-.02.29-.04.43"/>
      <path class="cls-9" d="M413.95,55.61s-.03-.09-.05-.13c0,0,0,0,0,0,.02.04.03.09.05.13"/>
      <path class="cls-9" d="M401.99,56.58c.03.32.04.62.04.93,0-.3,0-.61-.04-.93"/>
      <path class="cls-2" d="M414.33,56.45c-.02.56-.04,1.12-.08,1.71-.01.19-.04.36-.05.54.41-.03.84-.05,1.25-.08t0,0c-.25-.46-.5-.92-.73-1.39-.03-.06-.06-.12-.09-.18-.1-.2-.2-.4-.29-.6"/>
      <path class="cls-9" d="M413.5,54.49c-.03-.09-.06-.19-.1-.28,0,0,0,0,0-.01.04.1.07.2.1.29"/>
      <path class="cls-9" d="M412.86,52.38c.08.36.18.72.29,1.08-.11-.35-.21-.71-.29-1.08"/>
      <path class="cls-2" d="M412.78,46.52c-.02.36-.04.72-.07,1.09.08-1.17.16-2.27.05-3.37-.08-.77-.25-1.55-.42-2.3-.05-.21-.09-.42-.14-.63-.03-.14-.06-.28-.08-.42-.02-.08-.03-.16-.04-.24-.03-.17-.06-.34-.08-.5,0-.03-.01-.07-.01-.11-.11-.8-.14-1.62,0-2.44,0,0,0,0,0-.01.04-.21.08-.42.14-.63-1.88.32-3.75.68-5.6,1.06,2.82,2.45,4.94,5.2,6.25,8.5"/>
      <path class="cls-9" d="M413.9,55.48s0,0,0,0c-.02-.04-.03-.08-.05-.12.02.04.03.08.05.12"/>
      <path class="cls-4" d="M406.53,38.02c-5.1,1.04-10,2.24-14.43,3.29.24.77.56,1.51.99,2.27,0,0,0,.01.01.02.13.23.28.46.43.7.03.05.07.1.1.15.13.19.27.39.42.58.05.07.1.14.16.21.14.18.29.37.44.56.07.08.13.16.2.24.16.19.34.39.51.59.07.08.13.15.2.23.25.27.51.56.79.85l.74.77c2.43,2.5,4.53,4.65,4.88,8.12.03.31.04.62.04.93,0,.13,0,.26-.01.38,0,.15-.02.29-.04.43-.04.37-.09.74-.18,1.09h0c4.23-.19,8.42-.46,12.4-.7.02-.18.04-.36.05-.55.04-.58.06-1.15.08-1.7-.13-.28-.26-.56-.38-.84-.02-.04-.04-.09-.06-.13-.02-.04-.03-.08-.05-.12-.12-.29-.24-.58-.34-.87-.04-.1-.07-.2-.1-.29-.04-.12-.08-.24-.12-.35-.04-.13-.09-.25-.13-.38-.11-.35-.21-.71-.29-1.07-.38-1.63-.26-3.23-.15-4.78.03-.37.05-.73.07-1.09-1.31-3.29-3.44-6.05-6.25-8.5"/>
      <path class="cls-9" d="M366.38,73.05s-.02-.1-.03-.15c0,.05.02.1.03.15"/>
      <path class="cls-9" d="M392.98,45.99c.16.21.32.42.49.63-.17-.21-.34-.42-.49-.63"/>
      <path class="cls-9" d="M393.68,46.87c.18.21.37.43.56.65-.19-.22-.38-.44-.56-.65"/>
      <path class="cls-9" d="M394.46,47.77c.27.3.56.61.86.93-.31-.32-.59-.62-.86-.93"/>
      <path class="cls-9" d="M392.34,45.09c.15.23.31.46.48.69-.17-.23-.33-.46-.48-.69"/>
      <path class="cls-9" d="M383.97,45.47c.07-.11.12-.23.18-.35-.06.12-.11.24-.18.35"/>
      <path class="cls-9" d="M366.88,75.04c-.03-.09-.05-.18-.08-.27.02.09.05.18.08.27"/>
      <path class="cls-9" d="M366.5,73.6c-.01-.05-.02-.1-.04-.15.01.05.02.1.04.15"/>
      <path class="cls-9" d="M366.69,74.35c-.02-.06-.03-.13-.05-.19.02.06.03.13.05.19"/>
      <path class="cls-9" d="M390.69,41.64h0c.33,1.14.84,2.21,1.57,3.34-.74-1.12-1.24-2.2-1.57-3.34"/>
      <path class="cls-9" d="M366.97,75.37c.22.78.45,1.55.62,2.14.25.86.47,1.59.61,2.13,2.87-.04,5.28,1.16,7.6,2.33,1.42.71,2.89,1.43,4.47,1.88.42-3.47,1.65-6.6,4.67-9.68-5.27.62-11.38,1.39-17.75,1.99-.07-.25-.15-.52-.22-.78"/>
      <path class="cls-9" d="M384.36,44.61c.06-.17.11-.34.16-.52-.04.18-.1.35-.16.52"/>
      <path class="cls-9" d="M384.71,42.96c-.02.24-.06.46-.1.68.04-.22.08-.44.1-.68"/>
      <path class="cls-9" d="M384.72,56.82c-.18.05-.37.11-.56.18.19-.07.38-.13.56-.18"/>
      <path class="cls-9" d="M387.25,56.61c-.09-.02-.18-.04-.27-.05.09.01.18.03.27.05"/>
      <path class="cls-9" d="M385.27,56.68c-.12.03-.24.06-.37.09.12-.03.25-.07.37-.09"/>
      <path class="cls-9" d="M385.8,56.58c-.1.02-.21.04-.32.06.11-.02.21-.04.32-.06"/>
      <path class="cls-9" d="M386.31,56.53c-.1,0-.2.01-.3.02.1-.01.2-.02.3-.02"/>
      <path class="cls-9" d="M387.69,56.75c-.09-.04-.18-.07-.27-.1.09.03.18.06.27.1"/>
      <path class="cls-9" d="M389.2,58.81s-.02-.09-.03-.14c.01.05.02.09.03.14"/>
      <path class="cls-9" d="M400.52,58.43c-.01.09-.02.17-.04.26.01-.08.03-.17.04-.26"/>
      <path class="cls-9" d="M388.19,57.03c-.12-.09-.24-.16-.37-.22.13.06.25.14.37.22"/>
      <path class="cls-9" d="M389.01,58.14c-.02-.05-.04-.11-.07-.16.02.05.04.1.07.16"/>
      <path class="cls-9" d="M400.59,57.58c0,.09,0,.17-.01.26,0-.08,0-.17.01-.26"/>
      <path class="cls-9" d="M386.51,56.53c.09,0,.19,0,.28.01-.09,0-.18-.01-.28-.01"/>
      <path class="cls-9" d="M380.79,58.54c-.08.04-.16.09-.25.13.08-.04.16-.09.25-.13"/>
      <path class="cls-9" d="M382.7,57.6c-.11.05-.21.1-.32.15.11-.05.21-.1.32-.15"/>
      <path class="cls-9" d="M382.06,57.89c-.1.05-.2.1-.3.15.1-.05.2-.1.3-.15"/>
      <path class="cls-9" d="M381.43,58.21c-.1.05-.19.1-.29.15.1-.05.19-.1.29-.15"/>
      <path class="cls-9" d="M388.62,57.44s.06.09.09.13c-.03-.04-.06-.09-.09-.13"/>
      <path class="cls-8" d="M379.92,58.86c-8.78-1.27-9.87-3.88-8.69-8.01-.04.02-.08.04-.11.06-.11.05-.45.19-.52.24-.22.35-.54.76-1.6,1.66.48,2.07-.07,5.69-.73,9.55-.06.34-.11.65-.16.94,1.22.47,3.4.65,6.53-1.67.08-.06.16-.1.26-.12.9-.22,2.41-1.05,4.01-1.93.41-.23.83-.45,1.24-.68,0,0,0,0,0,0-.07-.01-.15-.02-.23-.03"/>
      <path class="cls-9" d="M383.99,57.06c-.14.05-.27.1-.41.15.14-.05.27-.1.41-.15"/>
      <path class="cls-9" d="M383.32,57.33c-.11.05-.22.09-.34.14.11-.05.22-.1.34-.14"/>
      <path class="cls-8" d="M389.29,59.59h0c.03.78-.06,1.71-.29,2.8-.05.23-.21.42-.42.51-.86.37-1.79.29-2.69.21-.95-.08-1.84-.16-2.47.32-.64.49-1.03,1.14-1.45,1.84-.47.79-.96,1.6-1.83,2.22-1.23.87-2.46.06-3.45-.58-1.21-.79-1.64-.95-2.13-.46l-.69.7c-2.16,2.22-4.8,4.93-7.6,5.29.02.13.05.28.08.44,0,.05.02.1.03.15.03.13.06.26.09.4.01.05.02.1.03.15.04.18.09.37.14.56.02.06.03.13.05.19.04.14.07.28.11.42.03.09.05.18.08.27.03.11.06.22.09.34.07.26.15.53.22.78,6.37-.6,12.48-1.38,17.75-1.99.45-.46.93-.91,1.46-1.37,1.38-1.19,2.99-2.37,4.55-3.51,4.05-2.96,8.21-6.01,9.34-9.81-3.72.15-7.44.21-11,.12"/>
      <path class="cls-4" d="M384.61,43.64c-.03.15-.05.3-.09.44-.04.18-.1.36-.16.52-.06.18-.14.34-.21.51-.06.12-.11.24-.18.35-.16.27-.34.52-.55.74-1.47,1.53-3.76,1.55-5.79,1.56-.57,0-1.13,0-1.64.05-.74.06-1.69.82-2.61,1.55-.7.56-1.43,1.13-2.15,1.46-1.18,4.14-.1,6.74,8.69,8.01.07.01.15.02.23.03,0,0,0,0,0,0,.13-.07.27-.14.4-.21.08-.04.16-.09.25-.13.12-.06.23-.12.35-.18.1-.05.19-.1.29-.15.11-.06.22-.11.33-.17.1-.05.2-.1.3-.15.1-.05.21-.1.31-.15.11-.05.21-.1.32-.15.1-.04.19-.09.29-.13.11-.05.22-.1.33-.14.09-.04.18-.07.26-.11.14-.05.27-.1.41-.15.06-.02.12-.05.18-.07.19-.07.38-.13.56-.18.06-.02.12-.03.18-.05.12-.03.25-.07.37-.09.07-.02.14-.03.21-.04.11-.02.21-.04.32-.06.07,0,.14-.02.21-.02.1-.01.2-.02.3-.02.07,0,.14,0,.2,0,.1,0,.19,0,.28.01.06,0,.13,0,.19.02.09.01.18.03.27.05.06.01.11.02.17.04.1.03.18.06.27.1.04.02.09.03.13.05.13.06.25.14.37.22.16.12.3.26.42.42.03.04.06.09.09.13.09.13.17.26.24.41.02.05.04.1.07.16.07.16.12.34.16.53.01.04.02.09.03.13.05.24.08.5.09.78h0c3.57.09,7.28.03,11-.12.08-.26.13-.52.18-.78.01-.08.03-.17.04-.26.03-.2.05-.4.06-.6,0-.08.01-.17.01-.26,0-.28,0-.56-.03-.85-.31-2.97-2.06-4.77-4.48-7.26l-.75-.77c-.31-.32-.59-.62-.86-.92-.07-.08-.14-.16-.22-.25-.19-.22-.38-.44-.56-.65-.07-.09-.14-.17-.21-.25-.17-.21-.34-.42-.49-.63-.05-.07-.11-.14-.16-.21-.17-.23-.33-.46-.49-.69-.03-.04-.05-.08-.08-.11-.74-1.12-1.24-2.2-1.57-3.34-2.12.5-4.13.95-5.98,1.33-.02.24-.06.46-.1.68"/>
      <path class="cls-9" d="M459.7,55.78c.36.05.73.09,1.14-.03-.07-.21-.14-.41-.21-.62-.47.17-.73.39-.92.65"/>
      <path class="cls-9" d="M447.16,57.68c.01,1.36.02,2.66.2,3.68,1.9-.18,2.13-1.76,2.35-4.38.05-.63.12-1.26.21-1.87-.92.23-1.86.44-2.8.64.02.65.03,1.29.04,1.93"/>
      <path class="cls-9" d="M447.08,54.93c0-.11-.02-.22-.03-.33,0,.11.02.22.03.33"/>
      <path class="cls-9" d="M444.88,49.37c.25.18.47.4.67.63-.2-.23-.42-.45-.67-.63"/>
      <path class="cls-9" d="M446.99,53.92c-.02-.18-.05-.36-.08-.54.03.18.06.36.08.54"/>
      <path class="cls-9" d="M457.02,47.98h0c-.97.43-1.94.99-2.84,1.6.9-.61,1.88-1.17,2.84-1.6"/>
      <path class="cls-9" d="M453.24,50.25c-.28.21-.54.43-.79.65.25-.22.51-.43.79-.65"/>
      <path class="cls-9" d="M454.1,49.63c-.27.19-.54.38-.8.58.26-.2.53-.39.8-.58"/>
      <path class="cls-9" d="M451.81,51.51c.19-.19.4-.39.61-.58-.22.19-.42.39-.61.58"/>
      <path class="cls-9" d="M451.64,51.68c-.15.15-.28.3-.41.45.13-.15.26-.3.41-.45"/>
      <path class="cls-9" d="M450.66,52.9c-.15.24-.27.51-.37.79.1-.28.22-.55.37-.79"/>
      <path class="cls-9" d="M451.08,52.31c-.16.2-.31.4-.43.59.12-.19.27-.39.43-.59"/>
      <path class="cls-9" d="M450.21,53.9c-.08.23-.14.47-.19.72.05-.25.11-.49.19-.72"/>
      <path class="cls-9" d="M446.79,52.73c-.05-.25-.11-.49-.19-.73.07.24.13.48.19.73"/>
      <path class="cls-9" d="M446.48,51.66c-.07-.2-.15-.39-.24-.58.09.19.17.38.24.58"/>
      <path class="cls-9" d="M417.05,58.53c-.29-.52-.58-1.03-.84-1.55.27.51.55,1.03.84,1.55"/>
      <path class="cls-9" d="M446.08,50.77c-.1-.19-.22-.36-.35-.53.12.17.24.34.35.53"/>
      <path class="cls-9" d="M421.27,57.53s0,.01,0,.02c0,0,0-.01,0-.02"/>
      <path class="cls-9" d="M415.38,55.29c-.21-.47-.4-.95-.58-1.43.17.48.36.96.58,1.43"/>
      <path class="cls-9" d="M416.14,56.86c-.24-.47-.47-.93-.68-1.4.21.47.44.94.68,1.4"/>
      <path class="cls-9" d="M414.7,53.55c-.17-.49-.32-.99-.44-1.5.12.51.27,1,.44,1.5"/>
      <path class="cls-9" d="M419.85,58.38c-.91.05-1.85.1-2.8.15.31.56.64,1.12.97,1.68,1.04,1.8,2.1,3.63,2.92,5.56,2.39-.18,4.67-.35,6.33-.86-1-1.69-3.13-2.25-4.88-2.19-.27.01-.56-.16-.68-.42-.51-1.13-.71-2.69-.55-4.06-1.07.04-2.13.09-3.17.13h1.87Z"/>
      <path class="cls-2" d="M413.76,36.69c-.74,1.58-.41,3.15-.02,4.93.17.79.35,1.6.44,2.45.13,1.23.04,2.45-.04,3.63-.11,1.51-.21,2.93.12,4.35.12.51.27,1,.44,1.5.03.1.07.2.1.31.17.48.36.96.57,1.43.02.06.05.11.08.16.21.47.44.94.68,1.4.02.04.04.08.06.13.27.51.55,1.03.84,1.55t0,0c.95-.06,1.89-.11,2.8-.15h-1.86c1.04-.05,2.1-.09,3.17-.13.03-.24.06-.48.11-.7,0,0,0,0,0-.01.05-.23.11-.45.18-.66.09-.24.29-.42.55-.47.64-.12,1.28-.26,1.93-.4,3.59-.76,7.66-1.62,11.27.34,1.81.32,3.34-.23,4.05-1.49.76-1.35.37-3.06-1.01-4.47-.18-.18-.24-.43-.19-.68.06-.24.24-.44.48-.51,2.83-.92,4.9-.86,6.33.18.25.18.47.4.67.63.07.08.12.16.18.24.13.17.24.34.35.53.06.1.11.21.16.31.09.19.17.38.24.58.04.11.09.22.12.34.07.24.13.48.19.73.05.22.09.43.12.66.03.18.06.36.08.54.03.22.05.45.06.68,0,.11.02.22.02.33.02.27.03.55.04.82.94-.2,1.88-.41,2.8-.64.03-.17.06-.33.09-.5.05-.25.11-.49.19-.72.02-.07.05-.14.08-.2.1-.28.22-.55.37-.79.12-.19.27-.39.43-.59.05-.06.1-.12.15-.18.13-.15.26-.3.41-.45.05-.06.11-.11.17-.17.19-.19.4-.38.61-.58.01,0,.02-.02.03-.03.25-.22.51-.43.79-.65.02-.01.04-.03.06-.04.26-.2.52-.39.8-.58.03-.02.05-.04.08-.06.9-.61,1.88-1.17,2.84-1.6-9.2-13.5-26.58-13.93-43.26-11.28"/>
      <path class="cls-9" d="M445.21,52.4c.03.1.06.2.09.3-.03-.1-.06-.2-.09-.3"/>
      <path class="cls-9" d="M439.94,56.34s-.06.06-.09.1c.03-.03.06-.06.09-.1"/>
      <path class="cls-9" d="M444.92,51.65c.04.09.08.17.12.27-.04-.09-.08-.18-.12-.27"/>
      <path class="cls-9" d="M452.28,53.13s.07-.09.11-.13c-.04.05-.08.09-.11.13"/>
      <path class="cls-9" d="M445.43,53.27c.04.2.07.41.1.62-.03-.21-.06-.42-.1-.62"/>
      <path class="cls-9" d="M444.53,51.03c.05.06.09.13.13.2-.04-.07-.09-.14-.13-.2"/>
      <path class="cls-9" d="M462.51,70.4l-.99-.06c-3.44-.19-6.16-.34-6.87-1.96-.56-1.28.46-2.77,1.3-3.8l.45-.61c1.37.99,2.07.47,3.24-.39.74-.55,1.58-1.16,2.68-1.34-.3-2.18-.38-3.03-1.07-5.12h-.02c-.79.24-1.47.13-1.97.05-.17-.03-.41-.06-.5-.06-.13.11-.3.17-.46.17-.2,0-.4-.08-.54-.24-.26-.29-.24-.74.04-1.01.01,0,.02-.02.04-.03.1-.09.19-.26.3-.45.29-.52.73-1.31,1.96-1.77-.27-.67-.56-1.33-.88-1.98-2.44,1.17-5.03,2.12-7.74,2.88-.18.72-.27,1.57-.34,2.41-.22,2.6-.52,5.85-4.39,5.71-.32-.01-.59-.23-.67-.53-.34-1.26-.36-2.88-.37-4.59,0-.54-.01-1.1-.03-1.65-2.15.41-4.34.73-6.54.99-1.12.76-2.61,1.03-4.25.72-.04,0-.07-.01-.11-.02-.21-.04-.33-.07-.47-.16-.02-.01-.04-.03-.06-.05-3.91.32-7.83.51-11.63.67.02-.15.04-.31.07-.45-.26,1.06-.2,2.49.15,3.54,2.93.06,5.23,1.49,6.07,3.8.13.36-.04.76-.4.91-1.8.76-4.34.99-7.06,1.19.36,1.04.64,2.1.79,3.21.13.97.16,1.9.11,2.79,4.19.12,6.47.85,7.06,2.24.69,1.64-1.19,3.3-1.81,3.84-2.06,1.82-4.87,1.33-7.59.84-1.95,2.92-4.94,5.36-8.45,7.56.04.11.07.22.11.34.96,2.47,2.7,4.33,4.42,4.75,2.39.58,3.84-.62,5.51-2.01,2.01-1.67,4.28-3.55,8.38-2.24,3.21,1.03,4.59,1.97,4.61,3.17.03,1.69-2.62,2.64-6.3,3.97-2.84,1.02-6.06,2.18-7.03,3.52-.07.09-.13.18-.2.26-.28.35-.45.57-.17,2.7l.09.7c7.17-.9,13.46-1.79,18.09-2.21l.79-.09v-.07c-.18-2.71-.13-4.53,1.92-6.94,2.13-2.5,3.61-3.51,4.96-3.42,1.47.12,2.33,1.54,3.32,3.18.39.65.8,1.32,1.29,2,6.46-5.71,10.6-14.9,11.19-24.86h-.07Z"/>
      <path class="cls-9" d="M462.66,68.96c.12-2.1.05-3.19-.15-5.28-.73.13-1.35.58-2,1.06-.77.57-1.65,1.22-2.75,1.22-.29,0-.59-.05-.91-.15-.98,1.29-.94,1.83-.86,2,.36.81,3.16.97,5.63,1.1l.99.06h.06Z"/>
      <path class="cls-9" d="M445.59,54.38c.02.21.03.42.05.63-.01-.21-.03-.42-.05-.63"/>
      <path class="cls-9" d="M453.51,51.89s.1-.08.15-.13c-.05.04-.1.08-.15.13"/>
      <polyline class="cls-9" points="454.35 51.22 454.36 51.22 454.35 51.22"/>
      <path class="cls-9" d="M455.1,50.7s.1-.07.15-.1c-.05.03-.1.07-.15.1"/>
      <path class="cls-9" d="M452.9,52.44s0,0,.01-.01c0,0-.01,0-.01.01"/>
      <path class="cls-9" d="M451.49,54.69c.04-.16.09-.31.14-.46-.05.15-.1.3-.14.46"/>
      <path class="cls-9" d="M445.66,55.28c.01.25.02.51.03.77,0-.26-.02-.51-.03-.77"/>
      <path class="cls-9" d="M456.86,49.67s.09-.05.14-.07c-.05.02-.09.05-.14.07"/>
      <path class="cls-2" d="M458.15,49.76c-.11-.19-.22-.36-.33-.54h0c-.27.12-.54.25-.82.39-.04.02-.09.05-.14.07-.54.28-1.09.59-1.61.93-.05.03-.1.06-.15.1-.25.17-.5.34-.74.52,0,0,0,0,0,0-.24.18-.47.36-.69.54-.05.04-.1.08-.15.13-.21.18-.41.36-.6.54,0,0,0,0-.01.01-.19.18-.35.37-.51.55-.04.04-.08.09-.11.13-.15.18-.29.36-.4.54-.1.16-.18.36-.25.56-.05.15-.1.3-.14.46,2.71-.76,5.3-1.71,7.74-2.88-.33-.69-.69-1.38-1.08-2.05"/>
      <path class="cls-2" d="M445.69,56.04c0-.26-.02-.51-.03-.77,0-.09-.01-.18-.02-.26-.01-.21-.03-.42-.05-.63-.02-.17-.04-.33-.06-.5-.03-.21-.06-.42-.1-.62-.04-.19-.07-.38-.12-.57-.03-.1-.06-.2-.09-.3-.05-.17-.11-.33-.17-.48-.04-.09-.08-.18-.12-.27-.08-.15-.16-.29-.25-.43-.04-.07-.08-.13-.13-.19-.15-.18-.31-.35-.5-.49-.86-.62-2.21-.71-4.01-.27,1.18,1.7,1.39,3.68.49,5.29-.16.29-.36.54-.57.78-.03.03-.06.06-.09.1-.21.22-.45.42-.71.6,2.21-.26,4.4-.58,6.55-.99h0"/>
      <path class="cls-2" d="M434.27,57.52s-.06-.05-.09-.08c-3.06-1.48-6.55-.73-9.94-.02-.51.11-1.03.22-1.53.32-.03.14-.05.3-.07.45,3.8-.16,7.72-.34,11.63-.67"/>
      <path class="cls-9" d="M411.76,81.88c-.71,1.06-.9,2.63-.57,4.33,2.95-1.9,5.49-3.98,7.24-6.38-2.64-.4-5.04-.39-6.67,2.05"/>
      <path class="cls-9" d="M380.93,105.43l-.06-.44-.11-.71c-.47-2.99-.46-5.63-.44-8.19,0-.93,0-1.88-.02-2.84-.62-.15-1.25-.3-1.89-.45-3.6-.89-7.68-1.89-9.18-.83-.33.23-.51.57-.58,1.05.42,1.48.63,2.88-.73,3.84.3,2.03.24,4.26-.19,6.64l-.12.67c4.3.75,8.59,1.14,13.32,1.3v-.02Z"/>
      <path class="cls-9" d="M382.37,105.49c12.84.42,25.52-1.03,37.21-2.48l-.09-.69c-.32-2.5-.12-3.05.48-3.79.05-.06.1-.13.16-.2,1.23-1.69,4.52-2.88,7.71-4.03,1.87-.68,5.36-1.93,5.35-2.58,0,0-.11-.7-3.61-1.82-3.34-1.07-5.13.41-7.02,1.98-1.73,1.43-3.68,3.05-6.77,2.3-2.19-.53-4.27-2.69-5.42-5.63-.01-.03-.02-.06-.03-.09-3.17,1.88-6.67,3.59-10.13,5.29-4.28,2.09-8.32,4.07-11.61,6.29-1.09.74-2.12,1.3-3.04,1.8-2.06,1.12-3.13,1.76-3.16,2.93l-.02.72v.02Z"/>
      <path class="cls-9" d="M448.87,94.02c-.79-1.3-1.47-2.43-2.2-2.49-.78-.07-2.04.92-3.74,2.91-1.64,1.93-1.75,3.28-1.59,5.87,3.5-.61,6.17-1.79,8.95-4.1l-.02-.03c-.54-.74-.99-1.5-1.39-2.16"/>
      <path class="cls-9" d="M419.98,67.3c-3.68.29-7.29.69-9.02,2.43-1.82,1.83-1.68,2.59-1.6,2.78.26.57,1.82,1.12,5.41.94.1,0,.28-.02.54-.04,2.12-.16,3.99-.24,5.62-.24.05-.83.03-1.69-.09-2.58-.15-1.13-.46-2.22-.86-3.29"/>
      <path class="cls-9" d="M364.86,72.71c.01.11.03.22.05.33-.02-.11-.04-.23-.05-.33"/>
      <path class="cls-9" d="M361.88,102.83l.19-.7c.43-1.58.46-2.64.47-3.41.02-.92.04-1.8,1.17-2.14.32-6.06-.48-6.21-3.22-6.73-.35-.07-.73-.14-1.14-.23-2.72-.59-4.26-.09-7.22,1.02-1.33.5-2.5.37-3.53.25-1.27-.14-2.27-.26-3.5.63-.1.07-.19.13-.28.17l-.6.42c.39.49.8.98,1.23,1.48,3.97,4.59,9.47,7.44,16.43,9.27v-.05Z"/>
      <path class="cls-9" d="M363.27,103.24c1.27.33,1.58.38,2.92.64l.12-.64c.43-2.41.47-4.63.11-6.62-.06-.31.1-.63.38-.77.68-.35.99-.6.42-2.57-.02-.09-.03-.18-.02-.27.09-.97.49-1.71,1.2-2.22,2.03-1.45,6.08-.45,10.36.6.49.12.99.24,1.5.36,0-.2,0-.39-.02-.59-.12-2.07-.19-4.01-.08-5.85-1.81-.47-3.43-1.27-4.99-2.06-2.42-1.21-4.7-2.35-7.47-2.15-.39.01-.71-.24-.77-.6-.07-.41-.38-1.46-.71-2.58-.17-.58-.33-1.12-.48-1.64-1.47.13-2.95.25-4.43.36.22,1,.49,1.76.73,2.38.62,1.67.88,2.69-1.21,4.13-1.9,1.31-8.86,3.4-12.4,3.4-.37,0-.69-.02-.98-.07-.87-.15-1.6-.75-2.26-1.29-.47-.39-.95-.79-1.34-.88-.48.95-.87,1.28-1.71,1.22-.26-.02-.55-.04-1.17.28l-.64.33-.03.02c.96,2.12,1.29,2.54,3.04,4.82l.02-.02.59-.41c.09-.07.18-.12.27-.16l.04-.03c1.69-1.22,3.19-1.05,4.51-.9.96.11,1.86.21,2.86-.16,2.88-1.08,4.78-1.8,8.04-1.08.39.09.76.15,1.1.22,3.65.7,4.8,1.53,4.36,8.79-.02.35-.29.64-.65.68-.35.04-.44.09-.45.1-.02.07-.03.45-.04.75-.02.8-.04,2-.52,3.76l-.19.7v.03Z"/>
      <path class="cls-9" d="M364.8,72.01c0-.14,0-.27.03-.38-.02.11-.03.24-.03.38"/>
      <path class="cls-9" d="M364.97,73.34c.02.11.05.23.07.34-.03-.11-.05-.23-.07-.34"/>
      <path class="cls-9" d="M365.48,75.39s.02.08.03.12c-.01-.04-.02-.08-.03-.12"/>
      <path class="cls-9" d="M360.68,53.86c.1.1.2.22.3.33-.1-.11-.2-.22-.3-.33"/>
      <path class="cls-9" d="M361.65,54.99c-.09-.11-.18-.23-.27-.34.09.11.18.22.27.34"/>
      <path class="cls-9" d="M383.01,44.14c-.06.15-.12.3-.19.43.07-.13.13-.28.19-.43"/>
      <path class="cls-9" d="M382.73,44.74c-.11.17-.22.34-.35.48.13-.14.25-.3.35-.48"/>
      <path class="cls-9" d="M360.97,73.18c0-.17,0-.35,0-.53,0,.18,0,.36,0,.53"/>
      <path class="cls-9" d="M364.81,72.17c0,.1.01.2.02.31-.01-.11-.02-.22-.02-.31"/>
      <path class="cls-9" d="M360.99,72.36c0-.19.02-.39.03-.59-.01.2-.02.4-.03.59"/>
      <path class="cls-9" d="M346.71,69.61c-.08,0-.17,0-.26.01.09,0,.18,0,.26-.01"/>
      <path class="cls-9" d="M361.03,74.78c-.02-.2-.03-.4-.04-.61,0,.21.02.42.04.61"/>
      <path class="cls-9" d="M361.3,76.65c-.11-.53-.21-1.13-.27-1.82.06.69.15,1.29.27,1.82"/>
      <path class="cls-9" d="M360.98,73.97c0-.17-.01-.35-.01-.53,0,.18,0,.35.01.53"/>
      <path class="cls-9" d="M383.23,43.25c-.04.25-.09.48-.16.7.07-.22.12-.45.16-.7"/>
      <path class="cls-9" d="M361.04,71.48c.02-.3.05-.61.08-.93-.03.32-.06.63-.08.93"/>
      <path class="cls-9" d="M362.31,55.88c-.07-.11-.15-.21-.22-.31.07.1.15.2.22.31"/>
      <path class="cls-9" d="M360.29,53.49c-.23-.22-.47-.43-.71-.63.24.2.47.41.71.63"/>
      <path class="cls-9" d="M340.61,69.29c-.09-.01-.19-.03-.28-.04.09.01.19.03.28.04"/>
      <path class="cls-9" d="M359.38,52.69c-.17-.13-.33-.26-.5-.38.17.12.34.25.5.38"/>
      <path class="cls-9" d="M358.72,52.2c-.18-.13-.37-.25-.55-.36.18.11.37.24.55.36"/>
      <path class="cls-9" d="M341.79,69.45c-.12-.01-.24-.03-.36-.04.12.01.24.03.36.04"/>
      <path class="cls-9" d="M343.96,69.62c-.13,0-.26-.01-.39-.02.13,0,.26.01.39.02"/>
      <path class="cls-9" d="M344.96,69.65c-.12,0-.25,0-.37,0,.12,0,.25,0,.37,0"/>
      <path class="cls-9" d="M345.88,69.65c-.11,0-.22,0-.34,0,.11,0,.23,0,.34,0"/>
      <path class="cls-9" d="M342.9,69.56c-.13,0-.25-.02-.38-.03.13.01.25.02.38.03"/>
      <path class="cls-9" d="M384.21,58.53c.17-.07.35-.13.51-.19-.17.06-.34.12-.51.19"/>
      <path class="cls-9" d="M387.33,58.19c.07.06.14.12.2.21-.06-.08-.12-.15-.2-.21"/>
      <path class="cls-9" d="M387.02,58.04c.12.04.23.08.32.15-.09-.07-.2-.11-.32-.15"/>
      <path class="cls-9" d="M387.55,58.44c.05.08.09.16.13.26-.04-.1-.08-.18-.13-.26"/>
      <path class="cls-8" d="M365.51,75.51s-.02-.08-.03-.12c-.17-.63-.32-1.21-.43-1.71-.03-.12-.05-.23-.07-.34-.02-.1-.04-.2-.06-.29-.02-.12-.04-.23-.05-.33-.01-.08-.02-.16-.03-.23-.01-.11-.02-.22-.02-.31,0-.05,0-.11,0-.16,0-.14,0-.27.03-.38.07-.35.42-.57.73-.58,2.48.07,5.24-2.79,7.28-4.89l.7-.71c1.39-1.4,2.93-.4,3.94.27.95.62,1.44.88,1.82.61.62-.44,1.01-1.09,1.42-1.78.44-.74.95-1.59,1.81-2.25,1.07-.82,2.34-.71,3.47-.61.6.05,1.18.1,1.66,0,.25-1.34.25-2.35.02-2.97.08.22.13.5.15.82-1.76-.07-3.47-.18-5.13-.35.47-.22.93-.43,1.38-.61-1.49.6-3.16,1.52-4.49,2.25-1.68.92-3.14,1.72-4.21,2.03-4.15,3.03-7.06,2.24-8.43,1.49-.27-.15-.41-.44-.37-.74.07-.43.15-.93.25-1.49.48-2.83,1.29-7.56.65-9.31-.11-.29-.02-.61.22-.81,1.3-1.07,1.55-1.44,1.67-1.62.26-.38.45-.49,1.17-.8.58-.24,1.27-.79,1.93-1.32-.17.13-.33.27-.5.4.35-.91.75-1.9,1.16-2.93-4.52,1.43-9.84,3.47-14.97,6.12h0c.18.11.37.24.55.36.05.04.11.08.16.11.17.12.34.25.5.38.07.05.14.11.2.17.24.2.47.41.7.63.13.12.26.24.38.38.1.1.2.22.3.33.13.15.27.3.4.46.09.11.18.22.27.34.15.19.29.38.44.58.07.1.15.2.22.31.22.32.43.64.64.99.1.16.13.35.08.54-.72,3.07-.97,4.14-1.24,4.51-.12.53-.36,1.72-.69,3.37-.05.26-.24.47-.49.55-.25.08-.52.02-.72-.16-.33-.21-2.13-.28-3.33-.33-1.72-.07-2.9-.13-3.64-.37-2.84,2.54-6.37,1.82-9.5,1.18-.82-.17-1.62-.33-2.4-.44-.71,1.07-1.32,2.18-1.82,3.33.36.07.73.14,1.1.2.09.01.19.03.28.04.27.04.55.08.82.12.12.01.24.03.36.04.24.03.49.05.73.08.13.01.26.02.38.03.23.02.45.03.67.05.13,0,.26.01.39.02.21.01.42.02.62.02.12,0,.25,0,.37,0,.2,0,.39,0,.58,0,.11,0,.23,0,.34,0,.2,0,.39-.01.57-.02.08,0,.18,0,.26-.01.26-.02.5-.04.73-.07,2.65-.33,4.66-.11,6.6.1,1.95.21,3.78.42,6.27.11.22-.03.44.05.6.2.16.16.24.37.21.59-.03.32-.06.63-.08.93,0,.1-.01.19-.02.28-.01.2-.02.4-.03.6,0,.1,0,.2,0,.29,0,.18,0,.36,0,.53,0,.09,0,.18,0,.26,0,.18,0,.35.01.53,0,.07,0,.13,0,.2,0,.21.02.42.04.61,0,.02,0,.04,0,.05.06.69.15,1.29.27,1.82,1.49-.1,2.96-.23,4.43-.36-.08-.27-.15-.53-.22-.78"/>
      <path class="cls-9" d="M385.47,58.12c.19-.05.37-.08.54-.11-.17.02-.35.06-.54.11"/>
      <path class="cls-9" d="M384.87,58.29c.17-.06.35-.11.51-.15-.17.04-.34.1-.51.15"/>
      <path class="cls-9" d="M386.62,57.97c.1,0,.2.02.28.04-.09-.02-.18-.03-.28-.04"/>
      <path class="cls-9" d="M386.11,57.99c.13-.02.25-.02.37-.03-.12,0-.24,0-.37.03"/>
      <path class="cls-4" d="M381.96,43.47c-2.08.35-5.19,1.1-8.81,2.24-.41,1.03-.82,2.02-1.16,2.93.17-.13.33-.26.5-.4,1.09-.86,2.21-1.76,3.39-1.86.54-.05,1.13-.05,1.75-.06,1.82-.01,3.71-.03,4.76-1.12.13-.14.25-.3.35-.48.03-.05.06-.11.09-.17.07-.13.13-.28.19-.43.02-.07.05-.13.07-.19.07-.22.12-.45.16-.7h0c-.43.08-.86.16-1.27.22"/>
      <path class="cls-4" d="M387.85,59.54c-.02-.32-.07-.6-.16-.82,0,0,0-.02,0-.02-.04-.1-.08-.18-.13-.26,0-.01-.01-.03-.02-.04-.06-.08-.12-.15-.2-.21-.09-.07-.2-.11-.32-.15-.04-.01-.08-.02-.12-.02-.09-.02-.18-.03-.28-.04-.05,0-.09,0-.14,0-.12,0-.24,0-.37.03-.03,0-.07,0-.1.01-.17.03-.35.06-.54.11-.03,0-.05.02-.08.02-.17.04-.34.1-.51.15-.05.02-.1.03-.15.05-.17.06-.34.12-.51.19-.04.02-.08.03-.12.05-.45.18-.91.39-1.38.61,1.66.16,3.37.28,5.13.35"/>
      <path class="cls-9" d="M357.85,53.33c.07.05.13.09.2.14-.07-.05-.13-.09-.2-.14"/>
      <path class="cls-9" d="M357.24,52.94s.09.05.13.08c-.04-.03-.09-.05-.13-.08"/>
      <path class="cls-9" d="M341.98,64.41c.59.1,1.17.21,1.75.33-.58-.12-1.17-.23-1.75-.33"/>
      <path class="cls-9" d="M358.47,53.79c.08.07.16.13.25.2-.08-.07-.16-.14-.25-.2"/>
      <path class="cls-9" d="M359.1,54.33c.1.09.19.18.29.28-.1-.09-.19-.19-.29-.28"/>
      <path class="cls-9" d="M360.35,55.67c.13.16.26.33.39.5-.13-.17-.26-.34-.39-.5"/>
      <path class="cls-9" d="M360.96,56.47c.2.29.4.59.6.91-.2-.32-.4-.62-.6-.91"/>
      <path class="cls-9" d="M359.73,54.96c.11.12.22.24.32.37-.11-.12-.22-.25-.32-.37"/>
      <path class="cls-8" d="M341.98,64.41c.59.1,1.17.21,1.75.33,3.19.65,6.21,1.27,8.56-1.14.27-.27.71-.29.99-.04.34.22,2.16.29,3.35.34,1.43.06,2.48.11,3.22.27.45-2.22.62-3.03.84-3.34.11-.37.35-1.27.86-3.46-.2-.32-.4-.62-.6-.9-.07-.1-.15-.2-.23-.3-.13-.17-.26-.34-.39-.5-.1-.12-.2-.23-.3-.34-.11-.12-.22-.25-.33-.37-.11-.12-.23-.23-.34-.35-.1-.09-.19-.19-.29-.28-.13-.12-.25-.23-.38-.34-.08-.07-.16-.14-.25-.2-.14-.11-.28-.22-.43-.33-.07-.05-.13-.09-.2-.14-.16-.11-.32-.22-.48-.31-.04-.03-.09-.05-.13-.08-.18-.11-.37-.22-.56-.31-5.76,3.15-11.14,7.08-14.7,11.79"/>
      <path class="cls-9" d="M359.54,73.25c0-.12,0-.22,0-.35,0,.12,0,.23,0,.35"/>
      <path class="cls-9" d="M345.95,71.09c.23,0,.44-.02.64-.03-.21.01-.42.02-.64.03"/>
      <path class="cls-9" d="M343.82,71.07c.28.01.55.02.82.03-.27,0-.54-.01-.82-.03"/>
      <path class="cls-9" d="M340.29,84.53c.99-.51,1.59-.47,1.95-.44.02,0,.04,0,.06,0,.06-.08.19-.29.43-.8.09-.2.27-.35.48-.4,1.13-.28,2.06.5,2.89,1.18.54.44,1.09.9,1.58.98,2.57.43,10.53-1.86,12.32-3.09,1.27-.88,1.21-1.02.68-2.44-.25-.68-.58-1.58-.82-2.79h0c-7.64.48-15.33.53-22.15-.42,0,2.69.59,5.53,1.95,8.55l.64-.33Z"/>
      <path class="cls-9" d="M342.58,70.99c.33.03.66.05.98.07-.32-.02-.65-.04-.98-.07"/>
      <path class="cls-9" d="M346.85,71.05c.28-.02.54-.04.77-.07-.24.03-.5.05-.77.07"/>
      <path class="cls-9" d="M338.69,70.43h0c1.25.27,2.52.44,3.74.55-1.21-.11-2.49-.28-3.74-.55"/>
      <path class="cls-9" d="M345.65,71.1c-.23,0-.47,0-.71,0,.25,0,.48,0,.71,0"/>
      <path class="cls-9" d="M359.56,74.35c0,.09.01.17.02.25,0-.09-.01-.16-.02-.25"/>
      <path class="cls-9" d="M359.67,75.63s.01.07.02.11c0-.04-.01-.07-.02-.11"/>
      <path class="cls-8" d="M359.85,76.74h0c-.06-.31-.12-.65-.16-1,0-.04-.01-.07-.02-.11-.04-.32-.07-.67-.09-1.03,0-.09-.02-.16-.02-.25-.02-.34-.02-.72-.02-1.1,0-.12,0-.22,0-.35,0-.51.03-1.05.08-1.62-2.23.19-4,0-5.72-.2-1.94-.21-3.78-.42-6.27-.11-.24.03-.49.05-.77.07-.08,0-.17,0-.25.01-.21.01-.42.02-.65.03-.1,0-.2,0-.3,0-.23,0-.47,0-.71,0-.1,0-.2,0-.3,0-.27,0-.54-.01-.82-.03-.09,0-.17,0-.26-.01-.32-.02-.65-.04-.99-.07-.05,0-.1,0-.15-.01-1.21-.11-2.49-.28-3.74-.55-.65,1.87-.99,3.84-.99,5.89,6.82.95,14.51.91,22.15.42"/>
    </g>
  </g>
</svg>