<?xml version="1.0" encoding="UTF-8"?>
<svg id="Layer_1" data-name="Layer 1" xmlns="http://www.w3.org/2000/svg" viewBox="0 0 300 300">
  <defs>
    <style>
      .cls-1 {
        fill: #2b2b2a;
      }

      .cls-2 {
        fill: #fff;
      }

      .cls-3 {
        stroke-width: 5.41px;
      }

      .cls-3, .cls-4, .cls-5, .cls-6, .cls-7 {
        fill: none;
        stroke: #fff;
        stroke-linecap: round;
        stroke-linejoin: round;
      }

      .cls-4 {
        stroke-width: 4.09px;
      }

      .cls-5 {
        stroke-width: 6px;
      }

      .cls-6 {
        stroke-width: 16.25px;
      }

      .cls-7 {
        stroke-width: 4.18px;
      }
    </style>
  </defs>
  <path class="cls-5" d="M120.62,39.66h-22.26c-11.48.16-11.1-25.69.48-25.31h99.7c12.23.2,12.28,25.21,0,25.47-6.46.12-32.17-.2-41.88-.16h32.22c.36,14.73.39,20.33.29,28.94"/>
  <path class="cls-6" d="M181.57,71.56c-56.73,0-102.72,45.99-102.72,102.72s45.99,102.76,102.72,102.76,102.72-45.99,102.72-102.76-45.99-102.72-102.72-102.72h0Z"/>
  <path class="cls-5" d="M253.53,134.22c-10.43-18.66-27.85-32.83-48.75-38.95"/>
  <path class="cls-3" d="M108.34,102.55c-.39-19.21,0-23.03.77-62.91"/>
  <path class="cls-5" d="M252.3,250.01c3.61,22.83-3.64,38.95-32.7,38.95-69.09,0-73.66.68-143.48,0-49.47-.48-23.19-60.18,2.64-113.31"/>
  <path class="cls-2" d="M93.83,115.07C13.85,76.06,14.78,73.77,8.44,86.79c-7.11,14.57-6.02,12.03,73.98,51.72l11.43-23.44h-.02Z"/>
  <path class="cls-7" d="M93.83,115.07C13.85,76.06,14.78,73.77,8.44,86.79c-7.11,14.57-6.02,12.03,73.98,51.72"/>
  <path class="cls-2" d="M202.8,229.34l.73-.52c2.93-2.25,6.86-7.02,7.02-6.66-15.17-36.7,34.15-51.49,53.25-53.2-1.04,21.78-15.85,79.08-52.61,52.72,10.32,1.89,39.97-22.07,38.56-36.56l-46.95,44.22h0Z"/>
  <path class="cls-4" d="M202.8,229.34l.73-.52c2.93-2.25,6.86-7.02,7.02-6.66-15.17-36.7,34.15-51.49,53.25-53.2-1.04,21.78-15.85,79.08-52.61,52.72,10.32,1.89,39.97-22.07,38.56-36.56"/>
  <path class="cls-2" d="M151.08,160.14c19.69,3.48,47.11,41.65,46.31,56.73,36.76-71.62-62.62-90.35-98.42-69.02,37.24,7.02,25.64,69.98,97.83,69.02l-45.74-56.73h.02Z"/>
  <path class="cls-4" d="M151.08,160.14c19.69,3.48,47.11,41.65,46.31,56.73,36.76-71.62-62.62-90.35-98.42-69.02,37.24,7.02,25.64,69.98,97.83,69.02"/>
  <path class="cls-1" d="M200.19,233.76c2.21-4.53.45-12.28-2.89-16.21l2.89,16.21Z"/>
  <path class="cls-4" d="M200.19,233.76c2.21-4.53.45-12.28-2.89-16.21"/>
</svg>