<?xml version="1.0" encoding="UTF-8"?>
<svg id="Layer_1" data-name="Layer 1" xmlns="http://www.w3.org/2000/svg" viewBox="0 0 168.07 104.51">
  <defs>
    <style>
      .cls-1 {
        fill: #fff;
      }
    </style>
  </defs>
  <path class="cls-1" d="M69.8,27.72c-.16.04-.31.08-.47.12.16-.04.32-.08.47-.12Z"/>
  <path class="cls-1" d="M71.57,27.45c-.17,0-.34.02-.52.04.18-.02.35-.03.52-.04Z"/>
  <path class="cls-1" d="M70.69,27.54c-.16.03-.32.05-.48.08.16-.03.32-.06.48-.08Z"/>
  <path class="cls-1" d="M67.22,33.13s.08-.04.11-.06c-.04.02-.08.04-.11.06Z"/>
  <path class="cls-1" d="M66.76,33.37s.08-.04.12-.06c-.04.02-.08.04-.12.06Z"/>
  <path class="cls-1" d="M66.26,33.6s.05-.02.08-.03c-.03.01-.05.02-.08.03Z"/>
  <path class="cls-1" d="M71.85,27.43c.26,0,.52,0,.76.04-.25-.03-.5-.04-.76-.04Z"/>
  <path class="cls-1" d="M68.89,27.97c-.15.05-.3.09-.46.14.15-.05.31-.1.46-.14Z"/>
  <path class="cls-1" d="M65.68,40.68s-.06.02-.09.03c.03-.01.06-.02.09-.03Z"/>
  <path class="cls-1" d="M66.97,28.62c-.12.05-.25.09-.38.14.13-.05.25-.1.38-.14Z"/>
  <path class="cls-1" d="M67.95,28.27c-.14.05-.29.1-.43.15.15-.05.29-.1.43-.15Z"/>
  <path class="cls-1" d="M56.52,73.81c-.04-.14-.08-.28-.11-.42.04.14.07.28.11.42Z"/>
  <path class="cls-1" d="M80.03,31.53c-.08.5-.14,1.02-.18,1.56.04-.53.1-1.06.18-1.56Z"/>
  <path class="cls-1" d="M79.82,33.48c-.04.56-.06,1.14-.05,1.74,0-.6.02-1.18.05-1.74Z"/>
  <path class="cls-1" d="M56.69,74.42c-.03-.11-.06-.22-.09-.33.03.11.06.22.09.33Z"/>
  <path class="cls-1" d="M80.9,28.26h0c-.18.48-.34.98-.48,1.49.14-.51.3-1.01.48-1.49Z"/>
  <path class="cls-1" d="M80.39,29.88c-.14.52-.26,1.05-.35,1.61.09-.55.21-1.09.35-1.61Z"/>
  <path class="cls-1" d="M56.36,73.2c-.05-.19-.1-.38-.14-.56.04.18.09.37.14.56Z"/>
  <path class="cls-1" d="M68.47,39.94s-.04,0-.05.01c.02,0,.04,0,.05-.01Z"/>
  <path class="cls-1" d="M69.83,39.75s-.08,0-.13.01c.04,0,.09,0,.13-.01Z"/>
  <path class="cls-1" d="M72.17,39.76s-.1,0-.15-.01c.05,0,.1,0,.15.01Z"/>
  <path class="cls-1" d="M74.67,73.21s0,0,.01,0c.45-.46.92-.91,1.45-1.37-.53.46-1.01.91-1.46,1.37Z"/>
  <path class="cls-1" d="M73.21,39.93c-.05-.01-.1-.02-.16-.04.05.01.1.02.16.04Z"/>
  <path class="cls-1" d="M56.07,71.94c-.03-.16-.06-.31-.08-.45.02.13.05.28.08.45Z"/>
  <path class="cls-1" d="M56.19,72.49c-.03-.14-.06-.27-.09-.4.03.13.06.26.09.4Z"/>
  <path class="cls-1" d="M49.3,73.64c.02.36.05.71.09,1.03-.04-.32-.07-.67-.09-1.03Z"/>
  <path class="cls-1" d="M49.41,74.78c.05.36.1.69.16,1-.06-.31-.12-.65-.16-1Z"/>
  <path class="cls-1" d="M36.32,70.11c.08,0,.17,0,.25-.01-.08,0-.17,0-.25.01Z"/>
  <path class="cls-1" d="M35.37,70.14c.1,0,.2,0,.3,0-.1,0-.2,0-.3,0Z"/>
  <path class="cls-1" d="M34.66,70.14c-.1,0-.2,0-.3,0,.1,0,.2,0,.3,0Z"/>
  <path class="cls-1" d="M33.28,70.1c.09,0,.17,0,.26.01-.09,0-.17,0-.26-.01Z"/>
  <path class="cls-1" d="M49.25,71.95c0-.51.03-1.05.07-1.62-.04.58-.07,1.12-.07,1.62Z"/>
  <path class="cls-1" d="M49.26,72.29c0,.38,0,.75.02,1.1-.02-.34-.02-.72-.02-1.1Z"/>
  <path class="cls-1" d="M47.09,52.06c.16.1.32.21.48.32-.16-.11-.32-.22-.48-.32Z"/>
  <path class="cls-1" d="M47.77,52.51c.14.1.29.21.43.33-.14-.11-.29-.22-.43-.33Z"/>
  <path class="cls-1" d="M46.4,51.67c.19.1.37.2.56.31-.18-.11-.37-.21-.56-.31Z"/>
  <path class="cls-1" d="M48.44,53.04c.13.11.26.22.38.34-.13-.12-.25-.23-.38-.34Z"/>
  <path class="cls-1" d="M32.15,70.02c.05,0,.1,0,.15.01-.05,0-.1,0-.15-.01Z"/>
  <path class="cls-1" d="M49.11,53.65c.11.11.23.23.34.35-.11-.12-.23-.23-.34-.35Z"/>
  <path class="cls-1" d="M50.46,55.21c.08.1.15.19.23.3-.07-.1-.15-.2-.23-.3Z"/>
  <path class="cls-1" d="M49.78,54.36c.1.11.2.22.3.34-.1-.12-.2-.23-.3-.34Z"/>
  <path class="cls-1" d="M64.84,42.59c.42-.19.83-.35,1.24-.5-.41.15-.82.31-1.24.5Z"/>
  <path class="cls-1" d="M67.63,41.61c.35-.09.69-.17,1.02-.23-.33.06-.67.14-1.02.23Z"/>
  <path class="cls-1" d="M66.24,42.03c.39-.14.77-.25,1.15-.36-.38.1-.76.22-1.15.36Z"/>
  <path class="cls-1" d="M71.04,28.95c.08-.01.16-.03.24-.04-.08,0-.16.03-.24.04Z"/>
  <path class="cls-1" d="M69.47,29.3c.13-.04.27-.08.4-.11-.13.03-.26.08-.4.11Z"/>
  <path class="cls-1" d="M69,41.32c.29-.05.58-.09.87-.12-.28.03-.57.07-.87.12Z"/>
  <path class="cls-1" d="M66.91,31.65c-.11.07-.26.16-.42.24.16-.08.31-.17.42-.24Z"/>
  <path class="cls-1" d="M70.26,29.1c.11-.03.22-.05.33-.08-.11.02-.22.05-.33.08Z"/>
  <path class="cls-1" d="M54.77,72.72c.11.51.26,1.08.43,1.71-.18-.63-.32-1.2-.43-1.71Z"/>
  <path class="cls-1" d="M70.33,41.17c.23-.01.46-.03.68-.03-.22,0-.45.02-.68.03Z"/>
  <path class="cls-1" d="M55.45,75.33c-.08-.27-.15-.53-.22-.78.07.25.14.51.22.78h0Z"/>
  <path class="cls-1" d="M50.01,52.53c.13.12.26.24.38.37-.13-.13-.26-.25-.38-.37Z"/>
  <path class="cls-1" d="M54.53,71.21c0-.05,0-.11,0-.16,0,.05,0,.11,0,.16Z"/>
  <path class="cls-1" d="M54.55,71.52c0,.07.02.15.03.23-.01-.08-.02-.16-.03-.23Z"/>
  <path class="cls-1" d="M67.85,29.84c.16-.06.32-.12.48-.17-.16.06-.32.11-.48.17Z"/>
  <path class="cls-1" d="M71.62,41.17c.15,0,.31.01.46.03-.15-.02-.31-.02-.46-.03Z"/>
  <path class="cls-1" d="M54.64,72.09c.02.1.03.19.05.29-.02-.1-.04-.2-.05-.29Z"/>
  <path class="cls-1" d="M68.68,29.55c.15-.05.29-.1.44-.14-.14.04-.29.1-.44.14Z"/>
  <path class="cls-1" d="M66.94,30.18c.19-.07.39-.15.58-.22-.19.07-.39.15-.58.22Z"/>
  <path class="cls-1" d="M50.74,70.8c0-.09.01-.18.02-.28,0,.1-.01.18-.02.28Z"/>
  <path class="cls-1" d="M36.17,68.67c-.18.01-.37.02-.57.02.2,0,.39-.01.57-.02Z"/>
  <path class="cls-1" d="M50.69,72.48c0-.09,0-.17,0-.26,0,.09,0,.18,0,.26Z"/>
  <path class="cls-1" d="M37.16,68.59c-.22.03-.47.05-.73.07.26-.02.51-.04.73-.07Z"/>
  <polygon class="cls-1" points="51.02 75.69 51.02 75.69 51.02 75.69 51.02 75.69"/>
  <path class="cls-1" d="M50.75,73.87s0-.04,0-.05c0,.02,0,.04,0,.05Z"/>
  <path class="cls-1" d="M50.71,73.21c0-.06,0-.13,0-.2,0,.07,0,.13,0,.2Z"/>
  <path class="cls-1" d="M50.7,71.69c0-.1,0-.19,0-.29,0,.1,0,.2,0,.29Z"/>
  <path class="cls-1" d="M51.1,53.69c-.13-.16-.27-.31-.4-.46.13.15.27.3.4.46Z"/>
  <path class="cls-1" d="M51.81,54.62c-.14-.2-.29-.4-.44-.58.15.19.29.38.44.58Z"/>
  <path class="cls-1" d="M49.31,51.9c-.07-.06-.13-.11-.2-.17.07.05.13.11.2.17Z"/>
  <path class="cls-1" d="M35.26,68.7c-.19,0-.38,0-.58,0,.2,0,.39,0,.58,0Z"/>
  <path class="cls-1" d="M48.6,51.36c-.05-.04-.11-.08-.16-.11.05.04.11.07.16.11Z"/>
  <path class="cls-1" d="M34.31,68.69c-.2,0-.41-.01-.62-.02.21,0,.42.02.62.02Z"/>
  <path class="cls-1" d="M33.3,68.65c-.22-.01-.45-.03-.67-.05.23.02.45.03.67.05Z"/>
  <path class="cls-1" d="M32.24,68.57c-.24-.02-.49-.05-.73-.08.25.03.49.05.73.08Z"/>
  <path class="cls-1" d="M52.68,55.92c-.21-.35-.43-.68-.64-.99.22.32.43.64.64.99Z"/>
  <path class="cls-1" d="M31.15,68.45c-.27-.03-.55-.07-.82-.12.27.04.55.08.82.12Z"/>
  <path class="cls-1" d="M98.58,68.98c-.29.39-.51.75-.68,1.1.16-.35.39-.72.68-1.1Z"/>
  <path class="cls-1" d="M103.09,53.14c-.03-.1-.07-.19-.1-.29,0,.01,0,.02,0,.03.03.09.06.17.09.26Z"/>
  <path class="cls-1" d="M99.07,68.39c-.16.18-.3.36-.44.54.13-.18.28-.35.44-.54Z"/>
  <path class="cls-1" d="M100.57,67.02c-.33.22-.64.46-.91.74.27-.27.58-.52.91-.74Z"/>
  <path class="cls-1" d="M103.81,54.96c-.07-.15-.13-.29-.2-.43.02.04.03.09.05.13.04.1.1.2.14.31Z"/>
  <path class="cls-1" d="M81.26,33.61c0-.12.02-.24.03-.36,0,.12-.02.24-.03.36Z"/>
  <path class="cls-1" d="M101.64,66.43c-.27.12-.52.26-.76.41.24-.15.49-.29.76-.41Z"/>
  <polygon class="cls-1" points="77.06 72.93 77.06 72.93 77.07 72.93 77.06 72.93"/>
  <polygon class="cls-1" points="82.25 28.83 82.25 28.83 82.25 28.83 82.25 28.83"/>
  <path class="cls-1" d="M81.79,30.28s0-.02,0-.03c0,.01,0,.02,0,.03Z"/>
  <path class="cls-1" d="M81.45,31.85s0-.05,0-.07c0,.02,0,.04,0,.07Z"/>
  <path class="cls-1" d="M66.08,42.09c.05-.02.1-.04.16-.06-.05.02-.1.04-.16.06Z"/>
  <path class="cls-1" d="M64.76,42.62s.05-.02.08-.04c-.03.01-.05.02-.08.04Z"/>
  <path class="cls-1" d="M71.02,41.14c.21,0,.4.01.6.03-.2-.01-.39-.03-.6-.03Z"/>
  <path class="cls-1" d="M67.38,41.68c.08-.02.16-.04.25-.06-.08.02-.16.04-.25.06Z"/>
  <path class="cls-1" d="M69.87,41.2c.16-.02.31-.02.47-.03-.16,0-.31.02-.47.03Z"/>
  <path class="cls-1" d="M68.65,41.38c.12-.02.23-.04.35-.06-.12.02-.23.04-.35.06Z"/>
  <path class="cls-1" d="M72.08,41.19c.34.04.66.09.95.17-.29-.07-.61-.13-.95-.17Z"/>
  <path class="cls-1" d="M72.8,42.99c-.02.07-.04.13-.07.2.02-.06.05-.13.07-.2Z"/>
  <path class="cls-1" d="M72.54,43.62c-.03.06-.06.11-.09.17.03-.05.06-.11.09-.17Z"/>
  <path class="cls-1" d="M144.08,50.26c.24-.18.49-.35.74-.52-.25.17-.5.34-.74.52Z"/>
  <path class="cls-1" d="M144.97,49.65c.52-.34,1.07-.65,1.61-.93-.54.28-1.09.59-1.61.93Z"/>
  <polygon class="cls-1" points="141.21 53.73 141.21 53.73 141.21 53.73 141.21 53.73"/>
  <path class="cls-1" d="M146.72,48.64c.28-.14.55-.27.82-.39-.27.12-.55.25-.82.39Z"/>
  <path class="cls-1" d="M143.38,50.81c.22-.18.45-.36.69-.54-.24.18-.47.36-.69.54Z"/>
  <path class="cls-1" d="M142.11,52.03c.16-.18.32-.36.51-.55-.19.18-.35.37-.51.55Z"/>
  <path class="cls-1" d="M141.35,53.27c.07-.2.15-.4.25-.56-.1.16-.18.36-.25.56Z"/>
  <path class="cls-1" d="M141.6,52.71c.11-.18.25-.36.4-.54-.15.18-.29.36-.4.54Z"/>
  <path class="cls-1" d="M142.63,51.47c.19-.18.39-.36.6-.54-.21.18-.41.36-.6.54Z"/>
  <path class="cls-1" d="M129.57,55.48c-.22.22-.45.42-.71.6h0c.26-.17.49-.37.71-.6Z"/>
  <path class="cls-1" d="M134.39,50.27c.09.13.18.28.25.43-.08-.15-.16-.29-.25-.43Z"/>
  <path class="cls-1" d="M134.76,50.96c.06.15.12.31.17.48-.05-.17-.11-.33-.17-.48Z"/>
  <path class="cls-1" d="M135.25,52.93c.02.17.05.33.06.5-.02-.17-.04-.33-.06-.5Z"/>
  <path class="cls-1" d="M133.76,49.58c.19.14.35.3.5.49-.15-.18-.31-.35-.5-.49Z"/>
  <polygon class="cls-1" points="135.41 55.09 135.41 55.09 135.41 55.09 135.41 55.09"/>
  <path class="cls-1" d="M129.67,55.38c.21-.24.41-.49.57-.78-.16.29-.36.55-.57.78Z"/>
  <path class="cls-1" d="M135.36,54.05c0,.09.01.18.02.26,0-.09-.01-.18-.02-.26Z"/>
  <path class="cls-1" d="M135.03,51.74c.05.18.09.37.12.57-.04-.19-.08-.38-.12-.57Z"/>
  <path class="cls-1" d="M81.46,31.78c.09-.52.19-1.02.32-1.51-.13.49-.24.99-.32,1.51Z"/>
  <path class="cls-1" d="M101.7,36.64s0,0,0,0c0,0,0,0,0,0Z"/>
  <path class="cls-1" d="M81.8,30.25c.13-.49.28-.96.46-1.42-.17.46-.33.93-.46,1.42Z"/>
  <path class="cls-1" d="M101.7,39.09s0,.07.01.11c0-.04,0-.07-.01-.11Z"/>
  <path class="cls-1" d="M102.99,52.85c-.15-.47-.3-.94-.41-1.43.08.36.18.72.29,1.08.04.12.08.23.12.35Z"/>
  <path class="cls-1" d="M101.8,39.7c.01.08.03.16.05.24-.02-.08-.03-.16-.05-.24Z"/>
  <path class="cls-1" d="M104.44,56.28c.24.47.48.93.73,1.39-.25-.46-.5-.92-.73-1.39Z"/>
  <path class="cls-1" d="M101.92,40.35c.04.21.09.42.14.63-.05-.21-.09-.42-.14-.63Z"/>
  <path class="cls-1" d="M81.29,33.25c.04-.48.09-.95.17-1.4-.07.45-.13.92-.17,1.4Z"/>
  <path class="cls-1" d="M104.35,56.1c-.19-.38-.36-.76-.53-1.14.08.18.16.36.24.54.1.2.19.4.29.6Z"/>
  <path class="cls-1" d="M91.75,56.54c0,.13,0,.26-.01.38,0-.13.01-.25.01-.38Z"/>
  <path class="cls-1" d="M91.53,58.45c.08-.36.14-.72.18-1.09-.04.37-.09.73-.18,1.09Z"/>
  <path class="cls-1" d="M103.57,54.4s.03.08.05.12c-.18-.42-.34-.84-.49-1.26.03.09.06.19.1.28.11.29.22.58.34.87Z"/>
  <path class="cls-1" d="M81.21,35.2c0-.55.02-1.08.05-1.6-.03.52-.05,1.04-.05,1.6Z"/>
  <path class="cls-1" d="M103,52.88s0-.02,0-.03c-.04-.12-.08-.23-.12-.35.04.13.09.25.13.38Z"/>
  <path class="cls-1" d="M103.57,54.4c-.12-.29-.24-.58-.34-.87.11.29.22.58.34.87Z"/>
  <path class="cls-1" d="M86.08,46.73c-.28-.29-.54-.57-.8-.85.25.28.51.56.8.85Z"/>
  <path class="cls-1" d="M85.09,45.65c-.18-.2-.35-.4-.51-.59.16.19.34.39.51.59Z"/>
  <path class="cls-1" d="M83.78,44.06c-.15-.2-.29-.39-.42-.58.13.19.27.39.42.58Z"/>
  <path class="cls-1" d="M83.26,43.33c-.16-.23-.3-.47-.43-.7.13.23.28.46.43.7Z"/>
  <path class="cls-1" d="M104.05,55.49c-.08-.18-.16-.36-.24-.54-.05-.1-.1-.2-.14-.31.12.28.25.56.38.84Z"/>
  <path class="cls-1" d="M84.38,44.83c-.15-.19-.3-.37-.44-.56.14.18.29.37.44.56Z"/>
  <path class="cls-1" d="M77.41,57.74s0,.02,0,.02c0,0,0-.02,0-.02Z"/>
  <path class="cls-1" d="M75.11,57.18s.05-.02.08-.02c-.03,0-.05.02-.08.02Z"/>
  <path class="cls-1" d="M73.82,57.62s.08-.03.12-.05c-.04.02-.08.03-.12.05Z"/>
  <path class="cls-1" d="M74.45,57.38s.1-.03.15-.05c-.05.02-.1.03-.15.05Z"/>
  <path class="cls-1" d="M76.62,57.05s.08.01.11.03c-.04-.01-.08-.02-.11-.03Z"/>
  <path class="cls-1" d="M75.72,57.05s.07,0,.1-.01c-.04,0-.07,0-.1.01Z"/>
  <path class="cls-1" d="M76.2,57.01s.09,0,.14,0c-.05,0-.09,0-.14,0Z"/>
  <path class="cls-1" d="M77.25,57.44s.01.03.02.04c0-.01-.01-.03-.02-.04Z"/>
  <path class="cls-1" d="M66.49,31.89s-.08.04-.12.06c.04-.02.08-.04.12-.06Z"/>
  <path class="cls-1" d="M67.52,29.96c.11-.04.22-.08.33-.12-.11.04-.22.08-.33.12Z"/>
  <path class="cls-1" d="M66.69,30.27c.08-.03.16-.06.24-.09-.08.03-.16.06-.24.09Z"/>
  <path class="cls-1" d="M70.59,29.02c.15-.03.3-.05.45-.07-.15.02-.29.04-.45.07Z"/>
  <path class="cls-1" d="M69.87,29.19c.13-.04.26-.06.39-.09-.13.03-.26.06-.39.09Z"/>
  <path class="cls-1" d="M71.27,28.91c.22-.03.43-.04.64-.04-.2,0-.42.01-.64.04Z"/>
  <path class="cls-1" d="M68.33,29.67c.12-.04.23-.08.35-.12-.12.04-.23.08-.35.12Z"/>
  <path class="cls-1" d="M69.12,29.41c.12-.04.24-.07.36-.1-.12.03-.24.07-.36.1Z"/>
  <path class="cls-1" d="M143.9,48.62s-.05.04-.08.06c.03-.02.05-.04.08-.06Z"/>
  <path class="cls-1" d="M139.65,54.15c.03-.17.06-.33.09-.5-.04.16-.07.33-.09.5h0Z"/>
  <path class="cls-1" d="M140.01,52.73c-.03.07-.05.13-.08.2.02-.07.05-.14.08-.2Z"/>
  <path class="cls-1" d="M143.02,49.25s-.04.03-.06.04c.02-.01.04-.03.06-.04Z"/>
  <path class="cls-1" d="M142.18,49.94s-.02.02-.03.03c.01,0,.02-.02.03-.03Z"/>
  <path class="cls-1" d="M136.84,54.79h0c-.01-.28-.03-.55-.04-.82.02.27.03.55.04.82Z"/>
  <path class="cls-1" d="M104.53,52.9c-.04-.1-.07-.2-.1-.3.03.1.07.2.1.3Z"/>
  <path class="cls-1" d="M105.18,54.5c-.02-.05-.05-.11-.08-.16.02.05.05.11.08.16Z"/>
  <path class="cls-1" d="M135.27,49.05c.07.08.12.16.18.24-.06-.08-.12-.16-.18-.24Z"/>
  <path class="cls-1" d="M105.93,56.03s-.04-.08-.07-.13c.02.04.04.09.07.13Z"/>
  <path class="cls-1" d="M141.36,50.72c.06-.06.11-.12.17-.17-.06.06-.11.11-.17.17Z"/>
  <path class="cls-1" d="M136.78,53.64c-.02-.23-.04-.45-.06-.68.03.22.05.45.06.68Z"/>
  <path class="cls-1" d="M135.96,50.12c-.05-.11-.1-.21-.16-.31.06.1.11.2.16.31Z"/>
  <polygon class="cls-1" points="106.77 57.57 106.77 57.57 106.77 57.57 106.77 57.57"/>
  <path class="cls-1" d="M136.63,52.43c-.04-.22-.07-.44-.12-.66.05.21.09.43.12.66Z"/>
  <path class="cls-1" d="M136.32,51.04c-.04-.12-.08-.22-.12-.34.04.11.09.22.12.34Z"/>
  <path class="cls-1" d="M110.88,57.29c.03-.24.07-.48.11-.7-.05.23-.09.46-.11.7h0Z"/>
  <path class="cls-1" d="M111.18,55.91c-.07.21-.13.43-.18.66.05-.23.11-.45.18-.66Z"/>
  <path class="cls-1" d="M140.95,51.17c-.05.06-.1.12-.15.18.05-.06.1-.12.15-.18Z"/>
  <path class="cls-1" d="M77.91,56.07c.16.12.3.26.42.41-.12-.16-.26-.3-.42-.41Z"/>
  <path class="cls-1" d="M69.33,27.84c-.15.04-.29.08-.44.13.15-.04.3-.09.44-.13Z"/>
  <path class="cls-1" d="M79.01,58.63c-.01-.28-.04-.54-.09-.78.05.24.08.5.09.78Z"/>
  <path class="cls-1" d="M68.43,28.11c-.16.05-.32.11-.48.16.16-.06.32-.11.48-.16Z"/>
  <path class="cls-1" d="M78.66,57.03c-.07-.15-.15-.28-.24-.41.09.13.17.26.24.41Z"/>
  <path class="cls-1" d="M71.05,27.49c-.12.01-.24.04-.36.06.12-.02.24-.04.36-.06Z"/>
  <path class="cls-1" d="M70.86,57.4c-.12.06-.23.12-.35.18.12-.06.23-.12.35-.18Z"/>
  <path class="cls-1" d="M70.2,27.63c-.13.03-.27.06-.4.09.13-.03.27-.07.4-.09Z"/>
  <path class="cls-1" d="M78.89,57.72c-.04-.19-.1-.37-.16-.53.06.17.12.34.16.53Z"/>
  <path class="cls-1" d="M90.02,58.51c.08-.26.13-.52.18-.78-.05.26-.11.53-.18.78h0Z"/>
  <path class="cls-1" d="M90.3,56.88c-.01.2-.03.4-.06.6.03-.2.05-.4.06-.6Z"/>
  <path class="cls-1" d="M67.34,33.07c.14-.08.26-.15.37-.22-.11.07-.23.14-.37.22Z"/>
  <path class="cls-1" d="M90.28,55.77c.03.29.04.57.03.85,0-.28,0-.56-.03-.85Z"/>
  <path class="cls-1" d="M69.83,39.75c.79-.07,1.52-.07,2.19-.01-.67-.06-1.4-.06-2.19.01Z"/>
  <path class="cls-1" d="M66.6,28.76c-.22.09-.45.17-.68.26.23-.09.45-.17.68-.26Z"/>
  <path class="cls-1" d="M60.95,49.88h0c.72-.33,1.45-.9,2.15-1.46-.7.56-1.43,1.13-2.15,1.46Z"/>
  <path class="cls-1" d="M67.51,28.43c-.18.06-.36.13-.54.2.18-.07.36-.13.54-.2Z"/>
  <path class="cls-1" d="M76.03,55.57c.07,0,.14,0,.2,0-.07,0-.13,0-.2,0Z"/>
  <path class="cls-1" d="M71.57,27.45c.09,0,.19-.02.28-.02-.09,0-.19.01-.28.02Z"/>
  <path class="cls-1" d="M71.48,57.08c-.11.05-.22.11-.33.16.11-.06.22-.11.33-.16Z"/>
  <path class="cls-1" d="M73.05,39.89c-.28-.06-.57-.1-.89-.14.31.03.61.08.89.14Z"/>
  <path class="cls-1" d="M74.62,55.81c-.06.02-.12.03-.18.05.06-.02.12-.03.18-.05Z"/>
  <path class="cls-1" d="M75.2,55.68c-.07.01-.14.03-.21.04.07-.02.14-.03.21-.04Z"/>
  <path class="cls-1" d="M73.99,40.15c-.24-.09-.51-.16-.78-.22.28.06.55.14.78.22Z"/>
  <path class="cls-1" d="M73.89,56.04c-.06.02-.12.04-.18.07.06-.02.12-.05.18-.07Z"/>
  <path class="cls-1" d="M72.1,56.79c-.1.05-.21.1-.31.15.1-.05.21-.1.31-.15Z"/>
  <path class="cls-1" d="M75.73,55.6c-.07,0-.14.01-.21.02.07-.01.14-.02.21-.02Z"/>
  <path class="cls-1" d="M72.71,56.51c-.1.04-.19.09-.29.13.1-.04.19-.09.29-.13Z"/>
  <path class="cls-1" d="M73.3,56.26c-.09.03-.18.07-.26.11.09-.04.18-.07.26-.11Z"/>
  <path class="cls-1" d="M66.88,33.31c.12-.06.24-.12.34-.18-.11.06-.22.12-.34.18Z"/>
  <path class="cls-1" d="M77.14,55.69c-.06-.02-.11-.03-.17-.04.06.01.11.02.17.04Z"/>
  <path class="cls-1" d="M66.33,33.57c.15-.07.29-.13.43-.2-.14.07-.28.13-.43.2Z"/>
  <path class="cls-1" d="M77.54,55.85s-.09-.04-.13-.05c.04.02.09.03.13.05Z"/>
  <path class="cls-1" d="M65.71,33.84h0c.19-.08.37-.16.55-.24-.18.08-.36.16-.55.24Z"/>
  <path class="cls-1" d="M65.59,40.71c-.47.17-.95.36-1.43.58.48-.22.95-.41,1.43-.58Z"/>
  <path class="cls-1" d="M69.7,39.77c-.4.04-.81.09-1.24.17.42-.08.84-.13,1.24-.17Z"/>
  <path class="cls-1" d="M76.7,55.6c-.06,0-.13-.01-.19-.02.06,0,.13.01.19.02Z"/>
  <path class="cls-1" d="M68.41,39.95c-.87.16-1.79.4-2.73.73.94-.33,1.86-.57,2.73-.73Z"/>
  <path class="cls-1" d="M70.27,57.71c-.13.07-.27.14-.4.21.13-.07.27-.14.4-.21Z"/>
  <path class="cls-1" d="M79.85,33.08c-.01.13-.02.26-.03.39,0-.13.02-.26.03-.39Z"/>
  <path class="cls-1" d="M80.42,29.75s-.02.08-.04.13c.01-.04.02-.08.04-.13Z"/>
  <path class="cls-1" d="M80.04,31.49s0,.03,0,.04c0-.01,0-.03,0-.04Z"/>
  <path class="cls-1" d="M83.19,45.66c.07.08.14.17.21.25-.07-.09-.14-.17-.21-.25Z"/>
  <path class="cls-1" d="M82.54,44.82c.05.07.11.14.16.21-.05-.07-.11-.14-.16-.21Z"/>
  <path class="cls-1" d="M73.87,44.16c.08-.16.15-.33.21-.51-.06.18-.13.35-.21.51Z"/>
  <path class="cls-1" d="M81.98,44.02s.05.08.08.11c-.03-.04-.05-.08-.08-.11Z"/>
  <path class="cls-1" d="M73.14,45.26c.21-.22.39-.47.55-.74-.16.27-.34.52-.55.74Z"/>
  <path class="cls-1" d="M74.24,43.13c.03-.14.06-.29.09-.44-.03.15-.05.3-.09.44Z"/>
  <path class="cls-1" d="M83.96,46.56c.07.08.14.16.22.25-.08-.08-.14-.16-.22-.25Z"/>
  <path class="cls-1" d="M123.99,56.56s-.06-.05-.09-.08c.02.03.06.06.09.08h0Z"/>
  <path class="cls-1" d="M116.4,77.23c1.08-.95,1.61-1.77,1.43-2.2-.15-.35-1.02-1.24-5.87-1.36-.24,1.48-.72,2.86-1.41,4.15,2.29.4,4.42.66,5.84-.6Z"/>
  <path class="cls-1" d="M76.93,91.29c.17-.12.39-.35.43-.9.19-2.8-3.64-4.74-6.07-5.59-.07,1.66,0,3.41.11,5.33.02.35.02.67.03,1.01,2.4.52,4.6.81,5.5.15Z"/>
  <path class="cls-1" d="M101.7,39.09c-.11-.8-.14-1.62,0-2.44-.14.83-.11,1.64,0,2.44Z"/>
  <polygon class="cls-1" points="103.62 54.52 103.61 54.51 103.62 54.52 103.62 54.52"/>
  <path class="cls-1" d="M100.88,66.84c-.1.06-.22.12-.32.18.1-.07.21-.12.32-.18Z"/>
  <path class="cls-1" d="M101.85,36h0c-.06.21-.11.42-.15.63.04-.21.08-.42.15-.63Z"/>
  <path class="cls-1" d="M101.71,39.2c.03.17.05.34.08.5-.03-.17-.06-.34-.08-.5Z"/>
  <path class="cls-1" d="M98.63,68.93s-.03.04-.04.05c.01-.02.03-.04.04-.05Z"/>
  <path class="cls-1" d="M101.84,39.94c.03.14.05.28.08.41-.03-.14-.06-.28-.08-.41Z"/>
  <path class="cls-1" d="M99.66,67.76c-.21.22-.41.43-.59.63.18-.21.38-.42.59-.63Z"/>
  <path class="cls-1" d="M83.93,44.27c-.05-.07-.11-.14-.16-.21.05.07.1.14.16.21Z"/>
  <path class="cls-1" d="M82.82,42.63s0-.01-.01-.02c0,0,0,.01.01.02Z"/>
  <path class="cls-1" d="M84.57,45.07c-.07-.08-.13-.16-.2-.24.06.08.13.16.2.24Z"/>
  <path class="cls-1" d="M104.35,56.1c.03.06.06.12.09.18-.03-.06-.06-.12-.09-.18Z"/>
  <path class="cls-1" d="M83.36,43.48s-.07-.1-.1-.15c.03.05.07.1.1.15Z"/>
  <path class="cls-1" d="M85.29,45.88c-.07-.08-.13-.15-.2-.23.07.08.13.15.2.23Z"/>
  <path class="cls-1" d="M103.12,53.25s-.02-.07-.04-.11c.01.03.02.06.03.09,0,0,0,0,0,.01Z"/>
  <path class="cls-1" d="M103.12,53.24s-.02-.06-.03-.09c-.03-.09-.06-.17-.09-.26.04.12.08.24.12.35Z"/>
  <path class="cls-1" d="M91.7,57.36c.01-.14.03-.29.04-.43,0,.15-.02.29-.04.43Z"/>
  <path class="cls-1" d="M103.67,54.65s-.03-.09-.05-.13c0,0,0,0,0,0,.02.04.04.09.05.13Z"/>
  <path class="cls-1" d="M91.71,55.62c.03.32.04.62.04.93,0-.3,0-.61-.04-.93Z"/>
  <path class="cls-1" d="M103.22,53.53c-.03-.09-.06-.19-.1-.28,0,0,0,0,0-.01.03.1.07.2.1.29Z"/>
  <path class="cls-1" d="M102.58,51.42c.08.36.18.72.29,1.08-.11-.36-.21-.71-.29-1.08Z"/>
  <path class="cls-1" d="M103.62,54.52s0,0,0,0c-.02-.04-.03-.08-.05-.12.02.04.03.08.05.12Z"/>
  <path class="cls-1" d="M107.89,4.17c-.26-.33-.42-.67-.48-1.08l-.11-.7c-4.15.64-7.8,1.29-10.92,1.84l.15.92s.03.08.08.32c1.39,6.4-2.4,9.81-7.2,14.12-3.46,3.11-5.89,5.85-7.16,9.24,0,0,0,0,0,0-.17.46-.33.93-.46,1.42,0,.01,0,.02,0,.03-.13.49-.24.99-.32,1.51,0,.02,0,.04,0,.07-.07.45-.13.92-.17,1.4,0,.12-.02.24-.03.36-.03.52-.05,1.04-.05,1.6.02,2.05.16,3.66.62,5.14,0,0,0,0,0,0,.01.05.04.09.05.13.09.29.2.57.31.85.04.09.07.17.11.26.15.34.32.68.52,1.02,0,0,0,.01.01.02.13.23.28.46.43.7.03.05.07.1.1.15.13.19.27.39.42.58.05.07.1.14.16.21.14.18.29.37.44.56.07.08.13.16.2.24.16.19.34.39.51.59.07.08.13.15.2.23.25.28.51.56.8.85l.74.77c2.43,2.49,4.53,4.65,4.88,8.12.03.32.04.62.04.93,0,.13,0,.26-.01.38,0,.14-.02.29-.04.43-.04.37-.09.73-.18,1.09-1.04,4.48-5.57,7.81-9.99,11.04-1.61,1.18-3.13,2.29-4.46,3.44,0,0,0,0,0,0-3.83,3.31-5.25,6.58-5.66,10.38,2.28.76,7.68,3,7.39,7.17-.06.85-.4,1.52-1.02,1.97-1.29.94-3.61.72-6.3.17.01.86,0,1.7,0,2.53-.01,2.11-.01,4.13.22,6.33.71-.69,1.72-1.26,2.87-1.88.89-.48,1.89-1.03,2.92-1.73,3.38-2.28,7.46-4.28,11.79-6.39,3.55-1.73,7.13-3.49,10.33-5.41-.56-2.28-.34-4.43.66-5.93,2.24-3.36,5.61-3.1,8.74-2.57.7-1.21,1.2-2.51,1.46-3.89-1.47.01-3.22.08-5.33.24-.27.02-.46.03-.57.04-3.95.19-6.17-.39-6.8-1.8-.27-.6-.22-1.29.14-2.06.16-.35.39-.71.68-1.1.01-.02.03-.04.04-.05.14-.18.28-.35.44-.54.18-.21.38-.42.59-.63.27-.27.58-.51.91-.74.1-.07.21-.12.32-.18.24-.15.49-.29.76-.41,2.04-.94,4.74-1.27,7.49-1.49-.76-1.7-1.71-3.34-2.64-4.96-.44-.76-.89-1.53-1.32-2.31h0s0,0,0,0c-.25-.46-.5-.92-.73-1.39-.03-.06-.06-.12-.09-.18-.1-.2-.2-.4-.29-.6,0,0,0,0,0,0-.13-.28-.26-.56-.38-.84-.02-.04-.04-.09-.05-.13-.02-.04-.03-.08-.05-.12-.12-.29-.24-.58-.34-.87-.04-.1-.07-.2-.1-.29-.04-.12-.08-.24-.12-.35-.04-.13-.09-.25-.13-.38-.11-.36-.21-.71-.29-1.08-.38-1.63-.26-3.23-.15-4.78.08-1.17.16-2.27.05-3.37-.08-.77-.25-1.55-.42-2.3-.05-.21-.09-.42-.14-.63-.03-.14-.05-.28-.08-.41-.02-.08-.03-.16-.05-.24-.03-.17-.06-.34-.08-.5,0-.04,0-.07-.01-.11-.11-.8-.14-1.62,0-2.44,0,0,0,0,0,0,.04-.21.08-.42.15-.63.13-.45.31-.91.58-1.37,1.47-2.53,3.52-4.15,5.49-5.72,2.83-2.24,5.27-4.17,5.49-8.34.34-6.48-1.2-11.07-5.51-16.4Z"/>
  <path class="cls-1" d="M56.1,72.09c-.01-.05-.02-.1-.03-.15,0,.05.02.1.03.15Z"/>
  <path class="cls-1" d="M82.7,45.04c.16.21.32.41.49.63-.17-.21-.34-.42-.49-.63Z"/>
  <path class="cls-1" d="M83.4,45.91c.18.21.37.43.56.65-.19-.22-.38-.44-.56-.65Z"/>
  <path class="cls-1" d="M84.18,46.81c.27.3.56.61.86.92-.31-.32-.59-.62-.86-.92Z"/>
  <path class="cls-1" d="M82.06,44.13c.15.23.31.46.49.69-.17-.23-.33-.46-.49-.69Z"/>
  <path class="cls-1" d="M73.69,44.51c.07-.11.12-.24.18-.35-.06.12-.11.24-.18.35Z"/>
  <path class="cls-1" d="M56.6,74.08c-.03-.09-.05-.18-.08-.27.02.09.05.18.08.27Z"/>
  <path class="cls-1" d="M56.22,72.64c-.01-.05-.02-.1-.04-.15.01.05.02.1.04.15Z"/>
  <path class="cls-1" d="M56.41,73.39c-.02-.06-.03-.13-.05-.19.02.06.03.13.05.19Z"/>
  <path class="cls-1" d="M80.41,40.68h0c.34,1.14.84,2.21,1.57,3.34-.74-1.13-1.24-2.2-1.57-3.34Z"/>
  <path class="cls-1" d="M74.08,43.65c.06-.17.11-.34.16-.52-.04.18-.1.36-.16.52Z"/>
  <path class="cls-1" d="M74.43,42.01c-.02.24-.06.46-.1.68.04-.22.08-.44.1-.68h0Z"/>
  <path class="cls-1" d="M74.44,55.86c-.18.05-.37.11-.56.18.19-.07.37-.13.56-.18Z"/>
  <path class="cls-1" d="M76.97,55.65c-.09-.02-.18-.04-.27-.05.09.01.18.03.27.05Z"/>
  <path class="cls-1" d="M74.99,55.72c-.12.03-.24.06-.37.09.12-.03.25-.07.37-.09Z"/>
  <path class="cls-1" d="M75.52,55.62c-.1.01-.21.03-.32.06.11-.02.21-.04.32-.06Z"/>
  <path class="cls-1" d="M76.03,55.57c-.1,0-.2.01-.3.02.1-.01.2-.02.3-.02Z"/>
  <path class="cls-1" d="M77.41,55.79c-.09-.04-.18-.07-.27-.1.09.03.18.06.27.1Z"/>
  <path class="cls-1" d="M78.92,57.85s-.02-.09-.03-.14c.01.05.02.09.03.14Z"/>
  <path class="cls-1" d="M90.24,57.48c-.01.09-.02.17-.04.25.02-.08.03-.17.04-.25Z"/>
  <path class="cls-1" d="M77.91,56.07c-.12-.09-.24-.16-.37-.22.13.06.25.14.37.22Z"/>
  <path class="cls-1" d="M78.73,57.19c-.02-.05-.04-.11-.07-.16.02.05.04.1.07.16Z"/>
  <path class="cls-1" d="M90.31,56.62c0,.09,0,.17-.01.26,0-.09.01-.17.01-.26Z"/>
  <path class="cls-1" d="M76.23,55.57c.09,0,.19,0,.28.01-.09,0-.18-.01-.28-.01Z"/>
  <path class="cls-1" d="M70.51,57.58c-.08.04-.16.09-.24.13.08-.04.16-.09.24-.13Z"/>
  <path class="cls-1" d="M72.42,56.64c-.11.05-.21.1-.32.15.11-.05.21-.1.32-.15Z"/>
  <path class="cls-1" d="M71.79,56.94c-.1.05-.2.1-.3.15.1-.05.2-.1.3-.15Z"/>
  <path class="cls-1" d="M71.15,57.25c-.1.05-.19.1-.29.15.1-.05.19-.1.29-.15Z"/>
  <path class="cls-1" d="M78.34,56.49s.06.09.09.13c-.03-.04-.06-.09-.09-.13Z"/>
  <path class="cls-1" d="M73.71,56.11c-.13.05-.27.1-.41.15.14-.05.27-.1.41-.15Z"/>
  <path class="cls-1" d="M73.04,56.37c-.11.05-.22.09-.33.14.11-.05.22-.1.33-.14Z"/>
  <path class="cls-1" d="M79.85,33.08c.04-.53.1-1.06.18-1.56,0-.01,0-.03,0-.04.09-.56.21-1.09.35-1.61.01-.04.02-.08.04-.13.14-.51.3-1.01.48-1.49,1.36-3.59,3.92-6.48,7.55-9.75,4.62-4.16,7.97-7.16,6.75-12.74-.02-.11-.04-.16-.04-.18-.03-.08-.04-.14-.09-.42l-.11-.69c-.64.11-1.24.22-1.81.32-11.26,1.94-20.64,0-25.34,11.3-1.01,2.44-1.45,4.91-1.66,7.39-2.89-.73-5.85-1.38-8.85-1.93l-.12.7c-.15.85-.75,1.02-1.19,1.14l-.24.07s-.08.02-.12.03c-.92.12-1.51-.07-1.93-.26-.38,1.72.09,3.7.45,5.19.1.4.19.78.25,1.11,2.27,3.1,6.64,1.39,10.87-.26.22-.09.44-.17.66-.25.23-.09.45-.17.68-.26.13-.05.25-.1.38-.14.18-.07.36-.13.54-.2.15-.05.29-.1.43-.15.16-.06.32-.11.48-.16.15-.05.31-.1.46-.14.15-.04.3-.09.44-.13.16-.04.32-.08.47-.12.13-.03.27-.07.4-.09.16-.03.32-.06.48-.08.12-.02.24-.04.36-.06.18-.02.35-.03.52-.04.09,0,.19-.02.28-.02.26,0,.52,0,.76.04.31.04.56.27.62.58.37,1.9.25,3.07-.39,3.8-.74.84-1.91.78-2.94.73-.82-.04-1.66-.09-2.2.27-.11.07-.23.14-.37.22-.04.02-.08.04-.11.06-.11.06-.22.12-.34.18-.04.02-.08.04-.12.06-.14.07-.28.13-.43.2-.03.01-.05.02-.08.03-.18.08-.36.16-.55.24-.62.26-1.3.54-1.97.81-1.1.44-2.15.86-2.68,1.15-1.17.64-2.57.64-3.93.64-1,0-1.97,0-2.77.25-.04,1.56.43,5.69.69,7.45.98.18,2-.13,3.07-.46.8-.25,1.62-.5,2.49-.57.2-.09.51-.23,1.02-.44.85-.54,1.7-.99,2.54-1.37.48-.22.95-.41,1.43-.58.03-.01.06-.02.09-.03.94-.33,1.86-.57,2.73-.73.02,0,.04,0,.05-.01.42-.08.84-.13,1.24-.17.04,0,.09,0,.13-.01.79-.07,1.52-.07,2.19-.01.05,0,.1,0,.15.01.31.03.61.08.89.14.05.01.1.02.16.04.28.06.55.14.78.22.28.1.46.36.47.65.01.43,0,.82-.04,1.2-.02.24-.06.46-.1.68-.03.15-.05.3-.09.44-.05.18-.1.36-.16.52-.06.18-.14.34-.21.51-.06.12-.11.24-.18.35-.16.27-.34.52-.55.74-1.47,1.53-3.76,1.55-5.79,1.57-.58,0-1.13,0-1.64.05-.74.06-1.69.82-2.61,1.55-.7.56-1.43,1.13-2.15,1.46-.04.02-.08.04-.11.06-.11.05-.45.19-.52.24-.22.35-.54.76-1.6,1.66.48,2.07-.07,5.69-.73,9.55-.06.33-.11.65-.16.94,1.22.47,3.4.65,6.53-1.67.08-.06.16-.1.26-.12.91-.22,2.41-1.05,4.01-1.93.41-.23.83-.45,1.24-.68.13-.07.27-.14.4-.21.08-.04.16-.09.24-.13.12-.06.23-.12.35-.18.1-.05.19-.1.29-.15.11-.06.22-.11.33-.16.1-.05.2-.1.3-.15.1-.05.21-.1.31-.15.11-.05.21-.1.32-.15.1-.04.19-.09.29-.13.11-.05.22-.1.33-.14.09-.04.18-.07.26-.11.14-.05.27-.1.41-.15.06-.02.12-.05.18-.07.19-.07.37-.13.56-.18.06-.02.12-.03.18-.05.12-.03.25-.07.37-.09.07-.02.14-.03.21-.04.11-.02.21-.04.32-.06.07-.01.14-.02.21-.02.1-.01.2-.02.3-.02.07,0,.14,0,.2,0,.09,0,.19,0,.28.01.06,0,.13.01.19.02.09.01.18.03.27.05.06.01.11.02.17.04.09.03.18.06.27.1.04.02.09.03.13.05.13.06.25.14.37.22.16.12.3.26.42.41.03.04.06.09.09.13.09.13.17.26.24.41.02.05.04.1.07.16.07.16.12.34.16.53.01.05.02.09.03.14.05.24.08.5.09.78.03.78-.06,1.71-.29,2.81-.05.23-.21.42-.42.51-.86.37-1.79.29-2.69.21-.95-.08-1.84-.16-2.47.32-.64.49-1.03,1.14-1.45,1.84-.47.79-.96,1.6-1.83,2.22-1.23.87-2.46.07-3.45-.58-1.22-.79-1.64-.95-2.13-.46l-.69.71c-2.16,2.22-4.8,4.93-7.6,5.29.02.13.05.28.08.45,0,.05.02.1.03.15.03.13.06.26.09.4.01.05.02.1.04.15.04.18.09.37.14.56.02.06.03.13.05.19.04.14.07.28.11.42.02.09.05.18.08.27.03.11.06.22.09.33.07.23.13.46.2.69,0,.03.02.07.03.1,0,0,0,0,0,0,.14.5.28.97.4,1.36.26.86.47,1.59.61,2.13,2.87-.04,5.28,1.16,7.6,2.33,1.42.71,2.89,1.43,4.47,1.88.42-3.47,1.66-6.6,4.67-9.68.45-.46.93-.92,1.46-1.37,1.38-1.19,2.99-2.37,4.55-3.51,4.05-2.96,8.21-6.01,9.34-9.81.08-.26.13-.52.18-.78.02-.08.03-.17.04-.25.03-.2.05-.4.06-.6,0-.09.01-.17.01-.26,0-.28,0-.56-.03-.85-.31-2.97-2.06-4.77-4.48-7.26l-.75-.77c-.31-.32-.59-.62-.86-.92-.08-.08-.14-.16-.22-.25-.19-.22-.38-.44-.56-.65-.07-.09-.14-.17-.21-.25-.17-.21-.34-.42-.49-.63-.05-.07-.11-.14-.16-.21-.17-.23-.33-.46-.49-.69-.03-.04-.05-.08-.08-.11-.74-1.12-1.24-2.2-1.57-3.34-.47-1.6-.62-3.31-.64-5.46,0-.6.02-1.18.05-1.74,0-.13.02-.26.03-.39Z"/>
  <path class="cls-1" d="M149.42,54.82c.36.05.73.08,1.14-.03-.07-.21-.14-.41-.21-.62-.47.17-.73.39-.92.65Z"/>
  <path class="cls-1" d="M136.8,53.97c0-.11-.02-.22-.03-.33,0,.11.02.22.03.33Z"/>
  <path class="cls-1" d="M134.6,48.41c.26.18.47.4.67.63-.2-.23-.42-.45-.67-.63Z"/>
  <path class="cls-1" d="M136.71,52.97c-.02-.18-.05-.36-.08-.54.03.18.06.36.08.54Z"/>
  <path class="cls-1" d="M146.74,47.02h0c-.97.43-1.94.99-2.84,1.6.9-.61,1.88-1.17,2.84-1.6Z"/>
  <path class="cls-1" d="M142.96,49.3c-.27.21-.54.43-.79.65.25-.22.51-.43.79-.65Z"/>
  <path class="cls-1" d="M143.82,48.68c-.27.19-.54.38-.8.58.26-.2.52-.39.8-.58Z"/>
  <path class="cls-1" d="M141.53,50.55c.19-.19.4-.39.61-.58-.22.19-.42.38-.61.58Z"/>
  <path class="cls-1" d="M141.36,50.72c-.15.15-.28.3-.41.45.13-.15.26-.3.41-.45Z"/>
  <path class="cls-1" d="M140.38,51.94c-.15.24-.27.51-.37.79.1-.28.22-.55.37-.79Z"/>
  <path class="cls-1" d="M140.81,51.35c-.16.2-.31.4-.43.59.12-.19.27-.39.43-.59Z"/>
  <path class="cls-1" d="M139.93,52.94c-.07.23-.14.47-.19.72.05-.25.11-.49.19-.72Z"/>
  <path class="cls-1" d="M136.51,51.77c-.05-.25-.11-.5-.19-.73.07.24.13.48.19.73Z"/>
  <path class="cls-1" d="M136.2,50.7c-.07-.2-.15-.39-.24-.58.09.19.17.38.24.58Z"/>
  <path class="cls-1" d="M106.77,57.57c-.29-.52-.57-1.03-.84-1.55.27.51.55,1.03.84,1.55Z"/>
  <path class="cls-1" d="M135.8,49.81c-.1-.19-.22-.36-.35-.53.13.17.24.34.35.53Z"/>
  <path class="cls-1" d="M110.99,56.57s0,.01,0,.01c0,0,0-.01,0-.01Z"/>
  <path class="cls-1" d="M105.1,54.33c-.21-.47-.4-.95-.57-1.43.17.48.36.96.57,1.43Z"/>
  <path class="cls-1" d="M105.86,55.9c-.24-.47-.47-.93-.68-1.4.21.47.44.94.68,1.4Z"/>
  <path class="cls-1" d="M104.42,52.59c-.17-.49-.32-.99-.44-1.5.12.51.27,1,.44,1.5Z"/>
  <path class="cls-1" d="M108.73,2.17l.11.69c.03.17.08.27.18.4,4.55,5.63,6.19,10.51,5.83,17.38-.25,4.81-3.19,7.14-6.03,9.39-1.87,1.48-3.81,3.02-5.14,5.31-.99,1.71-.63,3.38-.2,5.31.17.79.35,1.6.44,2.45.13,1.23.04,2.45-.04,3.63-.11,1.51-.21,2.93.12,4.35.12.51.27,1,.44,1.5.03.1.07.2.1.3.17.48.36.96.57,1.43.02.05.05.11.08.16.21.47.44.94.68,1.4.02.04.04.08.07.13.27.51.55,1.03.84,1.55,0,0,0,0,0,0,.31.56.64,1.12.97,1.68,1.04,1.8,2.1,3.64,2.92,5.56,2.39-.18,4.67-.35,6.33-.86-1-1.69-3.13-2.25-4.88-2.19-.27.01-.56-.16-.68-.42-.51-1.13-.7-2.69-.55-4.06.03-.24.07-.48.11-.7,0,0,0-.01,0-.01.05-.23.11-.45.18-.66.09-.24.29-.42.55-.47.64-.12,1.28-.26,1.94-.4,3.59-.76,7.66-1.62,11.27.34,1.81.32,3.34-.23,4.05-1.49.76-1.35.37-3.06-1.01-4.47-.17-.18-.24-.44-.18-.68.06-.24.24-.44.48-.51,2.83-.92,4.9-.86,6.33.18.26.18.47.4.67.63.07.08.12.16.18.24.13.17.24.34.35.53.06.1.11.2.16.31.09.19.17.38.24.58.04.11.08.22.12.34.07.24.13.48.19.73.05.21.09.43.12.66.03.18.06.36.08.54.03.22.05.45.06.68,0,.11.02.22.03.33.02.27.03.55.04.82.02.65.03,1.3.04,1.93.01,1.36.02,2.66.2,3.68,1.9-.18,2.13-1.76,2.35-4.38.05-.63.12-1.26.21-1.87.03-.17.06-.33.09-.5.05-.25.11-.49.19-.72.02-.07.05-.14.08-.2.1-.28.22-.55.37-.79.12-.19.27-.39.43-.59.05-.06.1-.12.15-.18.13-.15.26-.3.41-.45.06-.06.11-.11.17-.17.19-.19.4-.39.61-.58.01,0,.02-.02.03-.03.25-.22.51-.43.79-.65.02-.01.04-.03.06-.04.26-.2.52-.39.8-.58.03-.02.05-.04.08-.06.9-.61,1.87-1.16,2.84-1.6,1.4-.63,2.78-1.01,3.88-.94.34.02.62.28.67.62.02.17.07.47-.04.72-.03.14-.08.28-.14.41-.14.34-.3.72-.07,1.19l.29.59c7.62-4.36,13.35-11.34,15.32-22.74C171.93-3.7,134-1.59,108.73,2.17Z"/>
  <path class="cls-1" d="M134.93,51.44c.03.1.07.2.09.3-.03-.1-.06-.2-.09-.3Z"/>
  <path class="cls-1" d="M129.67,55.38s-.06.06-.09.1c.03-.03.06-.06.09-.1Z"/>
  <path class="cls-1" d="M134.64,50.7c.04.09.08.17.12.27-.04-.09-.08-.18-.12-.27Z"/>
  <path class="cls-1" d="M142,52.17s.07-.09.11-.13c-.04.05-.08.09-.11.13Z"/>
  <path class="cls-1" d="M135.15,52.31c.04.2.07.41.1.62-.03-.21-.06-.42-.1-.62Z"/>
  <polygon class="cls-1" points="147.54 48.26 147.54 48.26 147.54 48.26 147.54 48.26"/>
  <path class="cls-1" d="M134.25,50.07c.05.06.09.13.13.2-.04-.07-.09-.13-.13-.2Z"/>
  <path class="cls-1" d="M152.38,68.01c.12-2.1.05-3.19-.15-5.28-.73.13-1.35.58-2.01,1.06-.77.56-1.65,1.22-2.75,1.22-.29,0-.59-.05-.91-.15-.98,1.29-.94,1.83-.86,2,.36.81,3.16.97,5.63,1.1l.99.06h.06Z"/>
  <path class="cls-1" d="M135.31,53.43c.02.21.04.42.05.63-.01-.21-.03-.42-.05-.63Z"/>
  <path class="cls-1" d="M143.23,50.93s.1-.08.15-.13c-.05.04-.1.08-.15.13Z"/>
  <path class="cls-1" d="M144.07,50.27s0,0,.01,0c0,0,0,0-.01,0Z"/>
  <path class="cls-1" d="M144.82,49.74s.1-.07.15-.1c-.05.03-.1.07-.15.1Z"/>
  <path class="cls-1" d="M142.62,51.49s.01,0,.01-.01c0,0-.01,0-.01.01Z"/>
  <path class="cls-1" d="M141.21,53.73c.04-.16.09-.31.14-.46-.05.14-.1.3-.14.46Z"/>
  <path class="cls-1" d="M135.38,54.32c.01.25.03.51.03.77,0-.26-.02-.51-.03-.77Z"/>
  <path class="cls-1" d="M146.58,48.71s.09-.05.14-.07c-.05.02-.09.05-.14.07Z"/>
  <path class="cls-1" d="M152.23,69.45l-.99-.06c-3.44-.19-6.16-.34-6.87-1.96-.56-1.28.46-2.77,1.3-3.8l.45-.61c1.37.99,2.07.47,3.24-.39.74-.55,1.58-1.16,2.69-1.34-.3-2.18-.38-3.03-1.07-5.12h-.02c-.79.24-1.47.13-1.97.05-.17-.03-.41-.06-.5-.06-.13.11-.3.17-.46.17-.2,0-.4-.08-.54-.24-.26-.29-.24-.74.04-1.01.01-.01.02-.02.04-.03.1-.09.19-.26.3-.45.29-.52.73-1.31,1.97-1.77-.27-.67-.56-1.33-.88-1.98.37-.18.75-.35,1.11-.54l-.32-.64c-.43-.85-.27-1.6-.1-2.08-.63.11-1.35.35-2.11.68,0,0,0,0,0,0-.27.12-.55.25-.82.39-.05.02-.09.05-.14.07-.54.28-1.09.59-1.61.93-.05.03-.1.07-.15.1-.25.17-.5.34-.74.52,0,0,0,0-.01,0-.24.18-.47.36-.69.54-.05.04-.1.08-.15.13-.21.18-.41.36-.6.54,0,0-.01,0-.01.01-.19.18-.35.37-.51.55-.04.04-.08.09-.11.13-.15.18-.29.36-.4.54-.1.16-.18.36-.25.56-.05.15-.1.3-.14.46,0,0,0,0,0,0-.18.72-.27,1.57-.34,2.41-.22,2.6-.52,5.85-4.39,5.71-.32-.01-.59-.23-.67-.53-.34-1.26-.36-2.88-.37-4.59,0-.54-.01-1.1-.03-1.65,0,0,0,0,0,0,0-.26-.02-.51-.03-.77,0-.09-.01-.18-.02-.26-.01-.21-.03-.42-.05-.63-.02-.17-.04-.33-.06-.5-.03-.21-.06-.42-.1-.62-.04-.19-.08-.38-.12-.57-.03-.1-.06-.2-.09-.3-.05-.17-.11-.33-.17-.48-.04-.09-.08-.18-.12-.27-.08-.15-.16-.29-.25-.43-.04-.07-.09-.13-.13-.2-.15-.18-.31-.35-.5-.49-.86-.62-2.21-.71-4.01-.27,1.19,1.7,1.39,3.68.49,5.29-.16.29-.36.54-.57.78-.03.03-.06.06-.09.1-.21.22-.45.42-.71.6-1.12.76-2.61,1.03-4.25.72-.04,0-.07-.01-.11-.02-.21-.04-.33-.07-.47-.16-.02-.01-.04-.03-.05-.05-.03-.03-.06-.05-.09-.08-3.06-1.48-6.55-.73-9.94-.02-.52.11-1.03.22-1.53.32-.26,1.06-.2,2.49.15,3.54,2.93.06,5.23,1.49,6.07,3.8.13.36-.04.76-.4.91-1.8.76-4.34.98-7.06,1.19.36,1.04.64,2.11.79,3.21.13.97.16,1.9.11,2.79,4.19.12,6.47.85,7.06,2.24.69,1.64-1.19,3.3-1.81,3.84-2.05,1.82-4.87,1.33-7.59.84-1.95,2.92-4.94,5.36-8.45,7.56.04.11.07.22.12.34.96,2.47,2.7,4.33,4.42,4.75,2.39.58,3.84-.62,5.51-2.01,2.01-1.67,4.28-3.55,8.38-2.24,3.21,1.03,4.59,1.97,4.62,3.17.03,1.69-2.62,2.64-6.3,3.97-2.84,1.02-6.06,2.18-7.03,3.52-.07.09-.13.18-.2.26-.28.35-.45.57-.17,2.71l.09.7c7.17-.9,13.46-1.79,18.09-2.22l.79-.09v-.07c-.18-2.71-.13-4.53,1.92-6.94,2.13-2.5,3.61-3.51,4.96-3.42,1.47.12,2.33,1.54,3.32,3.18.39.65.8,1.32,1.28,2,6.46-5.71,10.6-14.9,11.19-24.86h-.07Z"/>
  <path class="cls-1" d="M101.48,80.93c-.71,1.06-.89,2.63-.57,4.33,2.95-1.9,5.49-3.98,7.24-6.38-2.64-.4-5.04-.39-6.67,2.05Z"/>
  <path class="cls-1" d="M70.65,104.48l-.06-.44-.11-.71c-.47-2.99-.46-5.63-.44-8.19,0-.92,0-1.88-.02-2.84-.62-.15-1.25-.3-1.89-.46-3.6-.88-7.68-1.89-9.18-.83-.33.23-.51.57-.58,1.05.42,1.48.63,2.88-.73,3.84.3,2.03.24,4.25-.19,6.64l-.12.67c4.3.75,8.59,1.14,13.32,1.3v-.02Z"/>
  <path class="cls-1" d="M72.09,104.53c12.84.42,25.52-1.03,37.21-2.48l-.09-.69c-.32-2.5-.12-3.05.48-3.79.05-.06.1-.13.16-.2,1.23-1.69,4.52-2.88,7.71-4.03,1.87-.68,5.36-1.93,5.35-2.58,0,0-.11-.7-3.61-1.82-3.34-1.07-5.13.41-7.02,1.98-1.73,1.43-3.68,3.05-6.77,2.3-2.2-.53-4.27-2.69-5.42-5.63-.01-.03-.02-.06-.03-.09-3.17,1.88-6.67,3.59-10.13,5.29-4.28,2.09-8.32,4.07-11.61,6.29-1.09.74-2.12,1.3-3.04,1.8-2.06,1.12-3.13,1.76-3.16,2.93l-.02.72v.02Z"/>
  <path class="cls-1" d="M138.59,93.06c-.79-1.31-1.47-2.43-2.2-2.49-.78-.07-2.04.92-3.74,2.91-1.64,1.93-1.75,3.28-1.59,5.87,3.5-.61,6.17-1.79,8.95-4.11l-.02-.03c-.54-.74-.99-1.5-1.39-2.16Z"/>
  <path class="cls-1" d="M109.7,66.34c-3.67.29-7.29.69-9.02,2.43-1.82,1.83-1.68,2.59-1.6,2.78.26.57,1.82,1.12,5.41.94.1,0,.28-.02.54-.04,2.12-.16,3.99-.24,5.62-.24.05-.83.03-1.69-.09-2.58-.15-1.13-.46-2.22-.86-3.29Z"/>
  <path class="cls-1" d="M54.58,71.75c.02.11.03.22.05.33-.02-.11-.04-.23-.05-.33Z"/>
  <path class="cls-1" d="M51.61,101.87l.19-.7c.43-1.58.46-2.64.47-3.41.02-.92.04-1.8,1.17-2.14.32-6.06-.48-6.21-3.22-6.73-.35-.07-.73-.14-1.14-.23-2.72-.59-4.26-.09-7.22,1.02-1.33.5-2.5.37-3.53.25-1.27-.14-2.27-.26-3.5.63-.1.07-.19.13-.28.17l-.61.42c.39.49.8.98,1.23,1.48,3.98,4.59,9.47,7.44,16.43,9.27v-.05Z"/>
  <path class="cls-1" d="M54.52,71.05c0-.14,0-.27.03-.38-.02.11-.03.24-.03.38Z"/>
  <path class="cls-1" d="M54.69,72.38c.02.11.05.22.07.34-.03-.12-.05-.23-.07-.34Z"/>
  <path class="cls-1" d="M55.2,74.43s.02.08.03.12c-.01-.04-.02-.08-.03-.12Z"/>
  <path class="cls-1" d="M50.4,52.91c.1.1.2.22.3.33-.1-.11-.2-.22-.3-.33Z"/>
  <path class="cls-1" d="M51.37,54.03c-.09-.12-.18-.23-.27-.34.09.11.18.22.27.34Z"/>
  <path class="cls-1" d="M72.73,43.18c-.05.15-.12.3-.19.43.07-.13.13-.28.19-.43Z"/>
  <path class="cls-1" d="M72.45,43.78c-.11.17-.22.34-.35.48.13-.14.25-.3.35-.48Z"/>
  <path class="cls-1" d="M50.69,72.22c0-.17,0-.35,0-.53,0,.18,0,.36,0,.53Z"/>
  <path class="cls-1" d="M54.53,71.21c0,.1.01.2.02.31-.01-.11-.02-.22-.02-.31Z"/>
  <path class="cls-1" d="M50.71,71.4c0-.19.02-.39.03-.6-.01.2-.02.4-.03.6Z"/>
  <path class="cls-1" d="M36.43,68.65c-.08,0-.17,0-.26.01.09,0,.18,0,.26-.01Z"/>
  <path class="cls-1" d="M50.75,73.82c-.02-.2-.03-.4-.04-.61,0,.21.02.42.04.61Z"/>
  <path class="cls-1" d="M51.02,75.69c-.11-.53-.21-1.13-.27-1.82.06.69.15,1.29.27,1.82Z"/>
  <path class="cls-1" d="M50.7,73.01c0-.17-.01-.35-.01-.53,0,.18,0,.36.01.53Z"/>
  <path class="cls-1" d="M72.95,42.29c-.04.25-.09.48-.16.7.07-.22.12-.45.16-.7Z"/>
  <path class="cls-1" d="M50.76,70.53c.02-.3.05-.61.08-.93-.03.32-.06.63-.08.93Z"/>
  <path class="cls-1" d="M52.03,54.92c-.07-.11-.15-.21-.22-.31.07.1.15.2.22.31Z"/>
  <path class="cls-1" d="M50.01,52.53c-.23-.22-.47-.43-.71-.63.24.2.47.41.71.63Z"/>
  <path class="cls-1" d="M30.33,68.34c-.09-.01-.19-.03-.28-.04.09.02.19.03.28.04Z"/>
  <path class="cls-1" d="M49.1,51.73c-.17-.13-.33-.26-.5-.38.17.12.34.25.5.38Z"/>
  <path class="cls-1" d="M48.44,51.24c-.18-.13-.37-.25-.55-.36.18.11.37.24.55.36Z"/>
  <path class="cls-1" d="M31.51,68.49c-.12-.01-.24-.03-.36-.04.12.02.24.03.36.04Z"/>
  <path class="cls-1" d="M33.68,68.67c-.13,0-.26-.01-.39-.02.13,0,.26.01.39.02Z"/>
  <path class="cls-1" d="M34.68,68.7c-.12,0-.25,0-.37,0,.13,0,.25,0,.37,0Z"/>
  <path class="cls-1" d="M35.6,68.69c-.11,0-.22,0-.34,0,.11,0,.23,0,.34,0Z"/>
  <path class="cls-1" d="M32.62,68.6c-.13-.01-.25-.02-.38-.03.13.01.25.02.38.03Z"/>
  <path class="cls-1" d="M73.93,57.57c.17-.07.35-.13.51-.19-.17.06-.34.12-.51.19Z"/>
  <path class="cls-1" d="M77.05,57.23c.07.05.14.13.2.21-.06-.08-.12-.15-.2-.21Z"/>
  <path class="cls-1" d="M76.74,57.08c.12.04.23.08.32.15-.09-.07-.2-.11-.32-.15Z"/>
  <path class="cls-1" d="M77.27,57.48c.05.08.09.16.13.26-.04-.1-.08-.18-.13-.26Z"/>
  <path class="cls-1" d="M75.19,57.16c.19-.05.37-.08.54-.11-.17.03-.35.06-.54.11Z"/>
  <path class="cls-1" d="M74.6,57.33c.18-.06.35-.11.51-.15-.17.04-.34.1-.51.15Z"/>
  <path class="cls-1" d="M76.34,57.02c.1,0,.2.02.29.04-.09-.02-.18-.03-.29-.04Z"/>
  <path class="cls-1" d="M75.83,57.04c.13-.02.25-.02.37-.03-.12,0-.24,0-.37.03Z"/>
  <path class="cls-1" d="M77.56,58.58s0,0,0,0c-.02-.32-.07-.6-.16-.82,0,0,0-.02,0-.02-.04-.1-.08-.18-.13-.26,0-.01-.01-.03-.02-.04-.06-.08-.12-.15-.2-.21-.09-.07-.2-.11-.32-.15-.04-.01-.08-.02-.11-.03-.09-.02-.18-.03-.29-.04-.05,0-.09,0-.14,0-.12,0-.24,0-.37.03-.04,0-.07,0-.1.01-.17.03-.35.06-.54.11-.03,0-.05.02-.08.02-.17.04-.34.1-.51.15-.05.02-.1.03-.15.05-.17.06-.34.12-.51.19-.04.02-.08.03-.12.05-.42.17-.85.36-1.29.57,0,0,0,0,0,0-.03.02-.06.03-.09.04,0,0,0,0,0,0h0s.1,0,.15.01c-.05,0-.1,0-.15-.01-1.09.52-2.19,1.12-3.12,1.63-1.68.92-3.14,1.72-4.21,2.03-4.15,3.03-7.06,2.24-8.43,1.49-.27-.15-.41-.44-.37-.74.07-.43.15-.93.25-1.49.48-2.83,1.29-7.56.65-9.31-.11-.29-.02-.61.22-.81,1.3-1.07,1.55-1.44,1.67-1.62.26-.38.45-.49,1.17-.8.58-.24,1.26-.79,1.93-1.32,1.09-.86,2.21-1.76,3.39-1.86.54-.05,1.13-.05,1.75-.06,1.82-.01,3.71-.03,4.76-1.12.13-.14.25-.3.35-.48.03-.05.06-.11.09-.17.07-.13.13-.28.19-.43.02-.06.05-.13.07-.2.07-.22.12-.45.16-.7,0,0,0,0,0,0h0c.04-.29.07-.6.07-.93-.29-.07-.61-.13-.95-.17-.15-.02-.31-.02-.46-.03-.2-.01-.39-.03-.6-.03-.22,0-.45.02-.68.03-.15,0-.31.02-.47.03-.28.03-.57.07-.87.12-.12.02-.23.04-.35.06-.33.06-.68.14-1.02.23-.08.02-.16.04-.25.06-.38.1-.76.22-1.15.36-.05.02-.1.04-.16.06-.41.15-.83.31-1.24.5-.03.01-.05.02-.08.04-.8.36-1.61.78-2.41,1.29-.03.02-.07.04-.1.06,0,0-.98.42-1.14.49-.09.05-.19.07-.29.08-.74.04-1.49.27-2.28.51-1.38.43-2.81.86-4.36.34-.25-.09-.44-.3-.48-.56-.19-1.1-.97-7.27-.73-8.78.04-.24.19-.44.41-.54,1.16-.53,2.48-.53,3.75-.52,1.23,0,2.38,0,3.23-.46.6-.33,1.69-.76,2.83-1.22.9-.36,1.85-.74,2.61-1.09,0,0,0,0,0,0,.2-.09.38-.18.55-.27.04-.02.08-.04.12-.06.16-.08.31-.17.42-.24.94-.62,2.07-.56,3.07-.51.77.04,1.5.08,1.78-.23.15-.18.36-.67.16-2.03-.2,0-.42.01-.64.04-.08,0-.16.03-.24.04-.15.02-.29.04-.45.07-.11.02-.22.05-.33.08-.13.03-.26.06-.39.09-.13.03-.26.08-.4.11-.12.03-.24.07-.36.1-.14.04-.29.1-.44.14-.12.04-.23.08-.35.12-.16.06-.32.11-.48.17-.11.04-.22.08-.33.12-.19.07-.39.15-.58.22-.08.03-.16.06-.24.09-.27.1-.54.21-.81.32-.03.01-.06.02-.09.03-4.58,1.79-9.77,3.82-12.67-.39-.06-.08-.1-.18-.12-.28-.06-.34-.16-.75-.26-1.19-.45-1.89-1.07-4.48-.17-6.77.12-.31.45-.5.78-.45.29.04.52.17.73.27.33.17.65.34,1.31.26l.21-.06c.05-.02.11-.03.16-.05l.11-.63v-.04c-3.45-.62-5.79-.92-9.28-1.28l-.03.66s.05.1.08.16c.22.5.46,1.02.71,1.55,1.62,3.49,3.46,7.45,1.85,9.55-.91,1.19-2.7,1.54-5.47,1.06-1.57-.27-2.73-1.37-3.86-2.43-1.02-.96-1.99-1.87-3.13-2.04-.4-.06-1.19.28-1.89.58-.89.38-1.82.78-2.69.78-.82.02-1.72-.42-2.68-.87-2.05-.95-2.99-1.2-3.52-.31-.57.97-.22,1.35,1.4,2.42.53.35,1.12.74,1.64,1.22,3.29-.78,4.22-.87,7.54,1.17.95.59,1.73.57,2.71.54.68-.02,1.46-.04,2.33.18.65.16,1.46.15,2.31.14,2.01-.03,4.52-.06,5.83,2.54.02.03.03.07.04.1.02.06.04.13.04.19.03.12.08.33.14.6.65,2.75.8,3.65.76,4.07.4,1.95-.19,2.98-.88,4.18-.24.42-.48.85-.72,1.37-.11.25-.36.41-.63.42-.29,0-.53-.14-.66-.38-2.23-4.08-4.76-3.42-7.96-2.59-1.3.34-2.64.69-4.02.71-1.35.03-2.68-.26-3.97-.53-2.95-.62-5.51-1.16-7.75,1.91.26.43.66.41,1.81.08.91-.26,2.15-.62,2.96.37.33.41.48.72.57.92q.09.2.21.27c.45.27.63.18,1.23-.21.51-.33,1.13-.76,2.06-.74,1.55.01,2.85.2,4.34.48.86.16,1.71.27,2.62.39,2.58.34,5.37.71,8,2.33.18.11.37.24.55.36.05.04.11.07.16.11.17.12.34.25.5.38.07.05.13.11.2.17.24.2.47.41.71.63.13.12.26.24.38.37.1.1.2.22.3.33.13.15.27.3.4.46.09.11.18.22.27.34.15.19.29.38.44.58.07.1.15.2.22.31.22.32.43.64.64.99.1.16.13.35.08.54-.72,3.07-.97,4.14-1.24,4.51-.12.53-.36,1.72-.69,3.37-.05.26-.24.47-.49.55-.25.08-.52.02-.72-.16-.33-.21-2.13-.28-3.33-.33-1.72-.07-2.9-.13-3.64-.37-2.84,2.54-6.37,1.82-9.5,1.18-1.73-.35-3.37-.69-4.86-.53-1.1.11-2.16-.74-3.28-1.64-.95-.77-2.02-1.64-2.51-1.27-.89.68-1.35,1.22-1.37,1.61-.02.55.87,1.37,1.82,2.23,1.32,1.21,3.58,2.01,5.98,2.49,0,0,0,0,0,0,.02,0,.03,0,.05,0,.35.07.7.13,1.05.19.09.02.19.03.28.04.27.04.55.08.82.12.12.02.24.03.36.04.25.03.49.05.73.08.13.01.25.02.38.03.23.02.45.03.67.05.13,0,.26.01.39.02.21,0,.42.02.62.02.13,0,.25,0,.37,0,.2,0,.39,0,.58,0,.11,0,.23,0,.34,0,.2,0,.39-.01.57-.02.09,0,.18,0,.26-.01.26-.02.51-.04.73-.07,2.66-.33,4.66-.11,6.61.1,1.95.21,3.78.42,6.27.11.22-.03.44.05.6.2.16.15.24.37.21.59-.03.32-.06.63-.08.93,0,.1-.01.18-.02.28-.01.2-.02.4-.03.6,0,.1,0,.2,0,.29,0,.18,0,.36,0,.53,0,.09,0,.18,0,.26,0,.18,0,.36.01.53,0,.07,0,.13,0,.2.01.21.02.42.04.61,0,.02,0,.04,0,.05.06.69.15,1.29.27,1.82,0,0,0,0,0,0,.21,1,.5,1.76.73,2.38.63,1.67.88,2.69-1.21,4.13-1.89,1.31-8.86,3.4-12.4,3.4-.37,0-.69-.02-.98-.07-.87-.15-1.6-.75-2.26-1.29-.47-.39-.95-.79-1.34-.88-.48.95-.87,1.28-1.71,1.22-.26-.02-.55-.04-1.17.28l-.64.33-.03.02c.96,2.12,1.29,2.54,3.04,4.82l.02-.02.59-.42c.09-.06.18-.12.27-.16l.04-.03c1.69-1.22,3.19-1.05,4.51-.9.96.11,1.86.21,2.86-.17,2.88-1.08,4.78-1.79,8.04-1.08.39.09.76.16,1.1.22,3.65.69,4.8,1.53,4.36,8.79-.02.35-.29.64-.64.67-.35.04-.44.09-.45.1-.02.07-.03.45-.04.75-.02.8-.04,2-.52,3.76l-.19.7v.03c1.27.33,1.57.38,2.91.64l.12-.64c.43-2.41.47-4.63.11-6.62-.06-.31.1-.63.38-.77.68-.35.98-.6.42-2.57-.02-.09-.03-.18-.02-.27.09-.97.49-1.71,1.2-2.22,2.03-1.45,6.08-.45,10.36.6.49.12.99.24,1.5.36,0-.2,0-.39-.02-.59-.13-2.08-.19-4.01-.08-5.85-1.81-.47-3.43-1.27-4.99-2.06-2.42-1.21-4.7-2.35-7.47-2.15-.38.02-.71-.24-.77-.6-.07-.41-.38-1.46-.71-2.58-.17-.58-.33-1.12-.48-1.64-.08-.27-.15-.53-.22-.78-.01-.04-.02-.08-.03-.12-.17-.63-.32-1.21-.43-1.71-.03-.12-.05-.23-.07-.34-.02-.1-.04-.2-.05-.29-.02-.12-.04-.23-.05-.33-.01-.08-.02-.16-.03-.23-.01-.11-.02-.22-.02-.31,0-.05,0-.11,0-.16,0-.14,0-.27.03-.38.07-.35.42-.57.73-.58,2.48.07,5.24-2.8,7.28-4.89l.7-.71c1.39-1.4,2.93-.4,3.94.27.95.62,1.44.88,1.82.61.62-.44,1.01-1.09,1.42-1.78.44-.75.95-1.59,1.81-2.25,1.07-.81,2.34-.71,3.47-.61.6.05,1.18.1,1.66,0,.16-.86.21-1.58.17-2.15Z"/>
  <path class="cls-1" d="M47.57,52.37c.07.05.13.09.2.14-.07-.05-.13-.09-.2-.14Z"/>
  <polygon class="cls-1" points="46.4 51.67 46.4 51.67 46.4 51.67 46.4 51.67"/>
  <path class="cls-1" d="M46.96,51.98s.09.05.13.08c-.04-.03-.09-.05-.13-.08Z"/>
  <path class="cls-1" d="M31.7,63.46c.59.1,1.17.21,1.75.33-.58-.12-1.17-.23-1.75-.33h0Z"/>
  <path class="cls-1" d="M48.2,52.84c.08.07.17.13.25.2-.08-.07-.16-.14-.25-.2Z"/>
  <path class="cls-1" d="M48.82,53.38c.1.09.19.18.29.28-.1-.09-.19-.19-.29-.28Z"/>
  <path class="cls-1" d="M50.07,54.71c.13.16.26.33.39.5-.13-.17-.26-.34-.39-.5Z"/>
  <path class="cls-1" d="M50.68,55.51c.2.29.4.59.6.91-.2-.32-.4-.62-.6-.91Z"/>
  <path class="cls-1" d="M49.45,54c.11.12.22.24.33.37-.11-.12-.22-.25-.33-.37Z"/>
  <path class="cls-1" d="M49.26,72.29c0-.12,0-.22,0-.35,0,.12,0,.23,0,.35Z"/>
  <path class="cls-1" d="M35.67,70.13c.23,0,.44-.02.65-.03-.21.01-.42.02-.65.03Z"/>
  <path class="cls-1" d="M33.54,70.11c.28.01.55.02.82.03-.27,0-.54-.01-.82-.03Z"/>
  <path class="cls-1" d="M32.3,70.03c.33.03.66.05.98.07-.32-.02-.65-.04-.98-.07Z"/>
  <path class="cls-1" d="M36.57,70.09c.28-.02.54-.04.77-.07-.23.03-.49.05-.77.07Z"/>
  <path class="cls-1" d="M28.41,69.47h0c1.25.27,2.52.44,3.74.55-1.21-.11-2.49-.28-3.74-.55Z"/>
  <path class="cls-1" d="M35.37,70.14c-.23,0-.47,0-.71,0,.25,0,.48,0,.71,0Z"/>
  <path class="cls-1" d="M49.28,73.39c0,.09.01.16.02.25,0-.09-.02-.16-.02-.25Z"/>
  <path class="cls-1" d="M49.39,74.67s.01.07.02.11c0-.04-.01-.07-.02-.11Z"/>
  <path class="cls-1" d="M49.57,75.78c-.06-.31-.12-.65-.16-1,0-.04-.01-.07-.02-.11-.04-.32-.07-.67-.09-1.03,0-.09-.02-.16-.02-.25-.02-.34-.02-.72-.02-1.1,0-.12,0-.22,0-.35,0-.51.03-1.05.07-1.62-2.23.19-4,0-5.72-.2-1.95-.21-3.78-.42-6.27-.11-.23.03-.49.05-.77.07-.08,0-.17,0-.25.01-.21.01-.42.02-.65.03-.1,0-.2,0-.3,0-.23,0-.47,0-.71,0-.1,0-.2,0-.3,0-.27,0-.54-.01-.82-.03-.09,0-.17,0-.26-.01-.32-.02-.65-.04-.98-.07-.05,0-.1,0-.15-.01-1.22-.11-2.49-.28-3.74-.55-2.51-.53-4.9-1.42-6.41-2.8-1.31-1.2-2.35-2.14-2.29-3.36.04-.88.62-1.69,1.94-2.69,1.38-1.06,2.93.19,4.29,1.29.76.62,1.71,1.37,2.22,1.33,1.15-.12,2.35.02,3.54.22.59.1,1.17.21,1.75.33,3.19.65,6.21,1.27,8.56-1.14.27-.27.71-.29.99-.04.34.22,2.16.29,3.36.34,1.43.06,2.48.11,3.22.27.45-2.22.62-3.03.84-3.34.11-.37.35-1.27.86-3.46-.2-.32-.4-.62-.6-.91-.07-.1-.15-.2-.23-.3-.13-.17-.26-.34-.39-.5-.1-.12-.2-.23-.3-.34-.11-.12-.22-.25-.33-.37-.11-.12-.23-.23-.34-.35-.1-.09-.19-.19-.29-.28-.13-.12-.25-.23-.38-.34-.08-.07-.16-.14-.25-.2-.14-.11-.29-.22-.43-.33-.07-.05-.13-.09-.2-.14-.16-.11-.32-.22-.48-.32-.04-.03-.09-.05-.13-.08-.18-.11-.37-.21-.56-.31,0,0,0,0,0,0-2.11-1.09-4.37-1.39-6.7-1.69-.89-.12-1.8-.24-2.7-.4-1.45-.27-2.64-.44-4.09-.45-.47-.02-.84.23-1.26.5-.64.42-1.52.99-2.76.25-.49-.3-.64-.62-.77-.9-.08-.18-.17-.36-.39-.63-.19-.23-.69-.11-1.43.11-1.09.32-2.92.84-3.71-1.29-.08-.22-.05-.46.08-.65,2.83-4.24,6.36-3.51,9.48-2.85,1.21.25,2.46.51,3.65.5,1.21-.02,2.46-.35,3.68-.67,2.94-.77,6.24-1.63,8.9,2.17.06-.11.12-.22.18-.32.65-1.13,1.04-1.81.68-3.34-.03-.13-.02-.26.01-.38-.04-.58-.55-2.75-.72-3.49-.06-.24-.1-.45-.13-.63-.92-1.73-2.57-1.71-4.5-1.69-.9,0-1.84.02-2.68-.19-.68-.17-1.29-.15-1.94-.14-1.02.03-2.18.06-3.5-.75-2.96-1.83-3.44-1.71-6.54-.97l-.29.07c-.25.06-.52-.02-.69-.21-.47-.49-1.09-.9-1.69-1.3-1.34-.88-3.18-2.09-1.86-4.35,1.27-2.17,3.64-1.07,5.37-.27.78.36,1.58.73,2.07.73h0c.58,0,1.37-.34,2.13-.66.96-.41,1.87-.8,2.68-.68,1.58.24,2.76,1.35,3.9,2.42,1.02.96,1.98,1.86,3.12,2.06,2.13.37,3.54.19,4.08-.52,1.08-1.41-.71-5.26-2.01-8.07-.25-.54-.5-1.07-.72-1.57-.23-.25-.22-.51-.21-.74l.03-.72v-.08c-13.09-1.35-24.66-.67-34.58,2.5l-.11.03c-19.95,3.98-8.89,35.24-2.56,43.73,3.98,5.33,11.08,8.04,19.53,9.21,0,2.69.59,5.53,1.95,8.55l.64-.33c.99-.51,1.59-.47,1.95-.44.02,0,.04,0,.06,0,.06-.08.19-.29.43-.8.09-.2.27-.35.48-.4,1.13-.28,2.06.5,2.89,1.18.54.44,1.09.9,1.58.98,2.57.43,10.53-1.86,12.32-3.09,1.27-.88,1.21-1.02.68-2.44-.25-.68-.58-1.58-.82-2.79Z"/>
</svg>